<svg width="16" height="16" fill="none" xmlns="http://www.w3.org/2000/svg"><path d="M14.387 3.612a7.748 7.748 0 01-2 10.775 7.749 7.749 0 01-10.774-2 7.75 7.75 0 0112.775-8.775" fill="#DB7C27"/><path d="M11.331 14.996s-3.7-8.245.242-13.875l.33.183s-4.13 5.656.212 13.269l-.784.422m-9.72-2.608S5.258 6.972 4.252 1.216l-.448.308S5.773 3.131 1.33 11.979M8.64.285s-4.509 5.647-3.583 14.9c0 0 .67.199.886.276.216.076-1.438-8.383 3.377-15.098L8.64.285" fill="#404041"/><path d="M.42 6.744s5.86 4.227 15.059 2.85c0 0 .165-.68.23-.9.067-.219-8.301 1.848-15.245-2.633l-.045.683" fill="#404041"/></svg>