<svg width="13" height="11" fill="none" xmlns="http://www.w3.org/2000/svg"><path d="M1.344 0S1 .604 1 1.625c0 .678.155 1.035.266 1.219C.485 3.656 0 4.758 0 6.172 0 9.793 2.295 11 6.5 11S13 9.793 13 6.172c0-1.463-.457-2.562-1.203-3.36A3.916 3.916 0 0011.672 0c-1.551 0-2.844 1.192-2.891 1.234A10.725 10.725 0 006.5 1a9.66 9.66 0 00-2.328.282C3.133.25 1.879 0 1.344 0zm7.5 5.219c.421-.004.813.031 1.156.14.916.292 1.5 1.133 1.5 2.079 0 2.617-1.405 3.062-5 3.062-2.672 0-4.844-.47-4.844-2.969 0-.953.518-1.492.891-1.828.82-.738 2.115-.375 3.953-.375.836 0 1.639-.102 2.344-.11v.001zM3.75 6.5c-.414 0-.75.447-.75 1 0 .553.336 1 .75 1s.75-.447.75-1c0-.553-.336-1-.75-1zm5.5 0c-.414 0-.75.447-.75 1 0 .553.336 1 .75 1s.75-.447.75-1c0-.553-.336-1-.75-1zm-5.578.422c.117 0 .203.1.203.219s-.086.218-.203.218a.222.222 0 01-.219-.218c0-.12.102-.219.219-.219zm5.5 0c.117 0 .203.1.203.219s-.086.218-.203.218a.222.222 0 01-.219-.218c0-.12.102-.219.219-.219z" fill="#000"/></svg>