<svg width="81" height="14" fill="none" xmlns="http://www.w3.org/2000/svg"><path d="M11.443 11.418c-.474.527-1.169.952-2.083 1.274-.914.323-1.916.484-3.006.484-1.675 0-3.014-.513-4.016-1.538C1.336 10.612.8 9.186.729 7.358L.721 6.25c0-1.26.222-2.358.668-3.296.445-.943 1.08-1.667 1.907-2.17.832-.51 1.793-.765 2.883-.765 1.593 0 2.83.366 3.709 1.098.885.727 1.4 1.814 1.547 3.26H8.464c-.106-.714-.334-1.224-.686-1.528-.351-.305-.85-.457-1.494-.457-.773 0-1.37.328-1.793.984-.422.656-.636 1.594-.641 2.812v.774c0 1.277.216 2.238.65 2.883.44.638 1.128.958 2.065.958.803 0 1.4-.179 1.793-.536V8.28H6.214V6.162h5.23v5.256zm7.949-5.248l-.975-.07c-.932 0-1.53.294-1.793.88V13h-2.962V3.49h2.777l.097 1.222c.498-.932 1.192-1.398 2.083-1.398.317 0 .592.036.826.106l-.053 2.75zm6.034 7.006c-1.46 0-2.64-.434-3.542-1.301-.903-.873-1.354-2.007-1.354-3.401v-.246c0-.973.179-1.832.536-2.576a3.955 3.955 0 011.582-1.722c.692-.41 1.512-.616 2.461-.616 1.336 0 2.39.416 3.164 1.248.774.827 1.16 1.981 1.16 3.463v1.152h-5.888c.105.533.337.952.694 1.257.358.304.82.457 1.389.457.937 0 1.67-.329 2.197-.985l1.354 1.6c-.37.51-.894.917-1.574 1.221-.673.3-1.4.449-2.18.449zM25.092 5.6c-.867 0-1.383.574-1.547 1.722h2.988v-.228c.012-.475-.108-.841-.36-1.099-.252-.264-.612-.395-1.081-.395zM36.53 13c-.105-.193-.2-.477-.281-.852-.545.685-1.307 1.028-2.285 1.028-.897 0-1.658-.27-2.285-.809-.627-.545-.94-1.227-.94-2.048 0-1.03.38-1.81 1.142-2.338.761-.527 1.869-.79 3.322-.79h.914v-.502c0-.873-.378-1.31-1.134-1.31-.703 0-1.054.347-1.054 1.038h-2.962c0-.92.39-1.667 1.169-2.241.785-.574 1.784-.862 2.997-.862 1.213 0 2.17.296 2.874.888.703.592 1.063 1.403 1.08 2.435v4.21c.012.873.147 1.54.405 2.004V13H36.53zm-1.854-1.934c.369 0 .673-.079.914-.237.246-.158.422-.337.527-.536v-1.52h-.861c-1.032 0-1.547.462-1.547 1.388 0 .27.09.49.272.66.182.163.413.245.695.245zm10.049-9.94V3.49h1.565v2.057h-1.565v4.35c0 .358.065.607.194.748.129.14.384.21.764.21.293 0 .54-.017.739-.052v2.118c-.533.17-1.09.255-1.67.255-1.02 0-1.773-.24-2.259-.72-.486-.481-.73-1.21-.73-2.19v-4.72h-1.212V3.49h1.212V1.126h2.962zm14.251 5.739c0 1.248-.231 2.353-.694 3.314-.463.96-1.122 1.702-1.977 2.223-.85.516-1.82.774-2.91.774s-2.056-.25-2.9-.747c-.844-.504-1.503-1.222-1.978-2.154-.468-.931-.715-2-.738-3.208v-.72c0-1.254.229-2.359.686-3.314.462-.96 1.122-1.702 1.977-2.223.861-.522 1.84-.783 2.936-.783 1.084 0 2.05.258 2.9.774.85.515 1.509 1.25 1.978 2.206.474.949.715 2.039.72 3.27v.588zM55.84 6.33c0-1.271-.214-2.235-.642-2.891-.422-.663-1.028-.994-1.82-.994-1.546 0-2.364 1.16-2.451 3.48l-.01.941c0 1.254.209 2.218.625 2.892.416.674 1.034 1.01 1.854 1.01.78 0 1.38-.33 1.802-.993.422-.662.636-1.614.642-2.856V6.33zm7.851-2.84l.097 1.116c.656-.86 1.561-1.292 2.716-1.292.99 0 1.728.296 2.215.888.492.592.747 1.483.764 2.672V13h-2.97V6.997c0-.48-.097-.832-.29-1.055-.194-.228-.546-.342-1.055-.342-.58 0-1.011.228-1.292.685V13h-2.962V3.49h2.777zm12.581 9.686c-1.459 0-2.64-.434-3.542-1.301-.902-.873-1.353-2.007-1.353-3.401v-.246c0-.973.178-1.832.536-2.576a3.955 3.955 0 011.582-1.722c.691-.41 1.512-.616 2.46-.616 1.337 0 2.391.416 3.165 1.248.773.827 1.16 1.981 1.16 3.463v1.152h-5.889c.106.533.337.952.695 1.257.357.304.82.457 1.388.457.938 0 1.67-.329 2.198-.985l1.353 1.6c-.369.51-.893.917-1.573 1.221-.674.3-1.4.449-2.18.449zM75.938 5.6c-.867 0-1.383.574-1.547 1.722h2.989v-.228c.011-.475-.109-.841-.36-1.099-.253-.264-.613-.395-1.082-.395z" fill="#62D0DF"/></svg>