<?xml version="1.0" encoding="UTF-8"?><!DOCTYPE svg PUBLIC "-//W3C//DTD SVG 1.1//EN" "http://www.w3.org/Graphics/SVG/1.1/DTD/svg11.dtd"><svg xmlns="http://www.w3.org/2000/svg" xmlns:xlink="http://www.w3.org/1999/xlink"><defs>
<radialGradient id="paint0_radial" cx="0" cy="0" r="1" gradientUnits="userSpaceOnUse" gradientTransform="translate(485.967 97.4624) rotate(126.976) scale(605.116 498.882)">
<stop stop-color="#AD6DFF"/>
<stop offset="1" stop-color="#3BB7D2"/>
</radialGradient>
<clipPath id="clip0"><path fill="#fff" d="M0 0h128v29H0z"/></clipPath><filter id="filter0_di" x="0" y="0" width="93" height="94" filterUnits="userSpaceOnUse" color-interpolation-filters="sRGB"><feFlood flood-opacity="0" result="BackgroundImageFix"/><feColorMatrix in="SourceAlpha" values="0 0 0 0 0 0 0 0 0 0 0 0 0 0 0 0 0 0 127 0"/><feMorphology radius="1" operator="dilate" in="SourceAlpha" result="effect1_dropShadow"/><feOffset dx="1" dy="3"/><feColorMatrix values="0 0 0 0 0 0 0 0 0 0 0 0 0 0 0 0 0 0 1 0"/><feBlend in2="BackgroundImageFix" result="effect1_dropShadow"/><feBlend in="SourceGraphic" in2="effect1_dropShadow" result="shape"/><feColorMatrix in="SourceAlpha" values="0 0 0 0 0 0 0 0 0 0 0 0 0 0 0 0 0 0 127 0" result="hardAlpha"/><feMorphology radius="10" in="SourceAlpha" result="effect2_innerShadow"/><feOffset dx="13" dy="22"/><feGaussianBlur stdDeviation="2"/><feComposite in2="hardAlpha" operator="arithmetic" k2="-1" k3="1"/><feColorMatrix values="0 0 0 0 0.795833 0 0 0 0 0.722882 0 0 0 0 0.722882 0 0 0 1 0"/><feBlend in2="shape" result="effect2_innerShadow"/></filter></defs><symbol id="aslogo"><path d="M22.342 50.203H10.059L7.3 60.775H3.313L14.51 20.268h3.383l11.215 40.507h-3.966l-2.8-10.572zm-11.115-4.396h9.967L16.2 26.862l-4.973 18.945zm30.465-3.087c-3.315-1.317-5.732-2.931-7.249-4.841-1.503-1.93-2.255-4.303-2.255-7.122 0-3.19.92-5.824 2.759-7.902 1.852-2.095 4.255-3.143 7.209-3.143 2.013 0 3.805.538 5.376 1.613 1.584 1.076 2.806 2.56 3.665 4.452.872 1.892 1.308 3.96 1.308 6.204H48.62c0-2.449-.564-4.368-1.691-5.76-1.128-1.409-2.719-2.113-4.772-2.113-1.907 0-3.397.584-4.47 1.752-1.061 1.15-1.591 2.754-1.591 4.813 0 1.65.503 3.051 1.51 4.201 1.02 1.131 2.745 2.17 5.175 3.116 2.443.946 4.35 1.994 5.718 3.144 1.383 1.131 2.403 2.457 3.061 3.978.671 1.52 1.007 3.31 1.007 5.37 0 3.282-.926 5.916-2.779 7.9-1.852 1.966-4.33 2.95-7.43 2.95-2.014 0-3.893-.53-5.638-1.586-1.745-1.076-3.095-2.541-4.048-4.396-.94-1.855-1.41-3.96-1.41-6.315h3.887c0 2.448.651 4.386 1.953 5.814 1.316 1.41 3.068 2.115 5.256 2.115 2.04 0 3.604-.575 4.692-1.725 1.087-1.15 1.63-2.717 1.63-4.702 0-1.984-.503-3.515-1.51-4.59-1.006-1.095-2.832-2.17-5.477-3.228zm23.298-.78l-3.584 5.147v13.688h-3.867V20.268h3.867V40.3l13.028-20.03h4.671L67.567 38.156l12.444 22.618H75.38L64.99 41.94zm40.312-.11c0 3.968-.483 7.437-1.45 10.404-.966 2.949-2.335 5.203-4.107 6.76-1.772 1.558-3.84 2.337-6.202 2.337-2.31 0-4.356-.779-6.142-2.337-1.785-1.576-3.174-3.811-4.168-6.704-.98-2.912-1.483-6.279-1.51-10.1v-2.92c0-3.895.49-7.336 1.47-10.322.98-2.986 2.362-5.267 4.148-6.844 1.799-1.595 3.853-2.392 6.162-2.392 2.349 0 4.416.788 6.201 2.365 1.799 1.557 3.182 3.83 4.148 6.816.967 2.967 1.45 6.426 1.45 10.377v2.56zm-3.846-2.616c0-4.804-.698-8.485-2.094-11.045-1.396-2.578-3.35-3.867-5.86-3.867-2.443 0-4.369 1.29-5.779 3.867-1.396 2.56-2.114 6.12-2.154 10.683v2.977c0 4.655.705 8.319 2.114 10.99 1.423 2.651 3.376 3.978 5.86 3.978 2.497 0 4.43-1.252 5.799-3.756 1.369-2.522 2.074-6.13 2.114-10.822v-3.005zm14.639-18.946l9.585 33.051 9.585-33.05h5.014v40.506h-3.867V45.001l.363-17.026-9.625 32.8h-2.96l-9.605-32.717.383 16.943v15.774h-3.867V20.268h4.994zm47.562 29.935h-12.283l-2.759 10.572h-3.987l11.196-40.507h3.382l11.216 40.507h-3.967l-2.798-10.572zm-11.116-4.396h9.968l-4.994-18.945-4.974 18.945zm32.581-1.418h-6.887v16.386h-3.886V20.268h9.705c3.303 0 5.84 1.039 7.612 3.116 1.785 2.077 2.678 5.1 2.678 9.07 0 2.522-.497 4.72-1.49 6.593-.98 1.873-2.349 3.274-4.108 4.201l6.887 17.193v.334h-4.148l-6.363-16.386zm-6.887-4.368h5.94c1.92 0 3.443-.686 4.571-2.059 1.141-1.372 1.712-3.209 1.712-5.508 0-2.504-.544-4.424-1.631-5.76-1.074-1.335-2.631-2.012-4.672-2.03h-5.92V40.02zm44.098 1.809c0 3.968-.483 7.437-1.45 10.404-.966 2.949-2.336 5.203-4.108 6.76-1.771 1.558-3.839 2.337-6.201 2.337-2.309 0-4.357-.779-6.142-2.337-1.785-1.576-3.175-3.811-4.168-6.704-.98-2.912-1.483-6.279-1.51-10.1v-2.92c0-3.895.49-7.336 1.47-10.322.98-2.986 2.362-5.267 4.148-6.844 1.798-1.595 3.852-2.392 6.161-2.392 2.35 0 4.417.788 6.202 2.365 1.799 1.557 3.182 3.83 4.148 6.816.967 2.967 1.45 6.426 1.45 10.377v2.56zm-3.846-2.616c0-4.804-.698-8.485-2.094-11.045-1.396-2.578-3.349-3.867-5.86-3.867-2.443 0-4.369 1.29-5.779 3.867-1.396 2.56-2.114 6.12-2.154 10.683v2.977c0 4.655.704 8.319 2.114 10.99 1.423 2.651 3.376 3.978 5.86 3.978 2.496 0 4.43-1.252 5.799-3.756 1.369-2.522 2.074-6.13 2.114-10.822v-3.005zm18.908 14.466l8.376-33.412H250l-10.873 40.507h-3.424L224.85 20.268h4.208l8.337 33.413z" fill="#000"/><path d="M92.872 57.773a5 5 0 00-4.14-2.196H43.186a5 5 0 00-4.153 2.215l-6.7 9.992A5 5 0 0128.182 70H9.99c-4.12 0-6.472-4.7-4.003-7.997l44.925-60A5 5 0 0154.916 0h21.886a5 5 0 013.995 1.993l45.174 60c2.481 3.295.13 8.007-3.994 8.007h-18.173a4.999 4.999 0 01-4.14-2.196l-6.792-10.03zM53.547 36.117c-2.22 3.322.162 7.777 4.158 7.777H74.14c4.007 0 6.386-4.478 4.144-7.798L70.02 23.86c-1.988-2.944-6.327-2.933-8.3.021l-8.174 12.235z" fill="#5A37A5" fill-opacity=".76"/><path d="M210.086 50c0-2.59-1.94-4.571-5.822-5.942-3.881-1.402-10.868-2.864-20.959-4.388-10.092-1.554-18.081-3.077-23.968-4.57-16.043-4.083-24.065-9.582-24.065-16.499 0-3.595 2.135-6.794 6.404-9.597 4.335-2.834 10.513-5.043 18.534-6.627C168.296.792 177.353 0 187.38 0c10.092 0 19.084.868 26.976 2.605 7.892 1.706 14.005 4.129 18.34 7.267 2.547 1.817 4.357 3.778 5.429 5.882 1.254 2.46-1.07 4.812-3.831 4.812h-19.111c-2.761 0-4.961-2.52-6.915-4.471-1.004-1.004-2.403-1.875-4.198-2.613-4.075-1.706-9.8-2.559-17.175-2.559-7.116 0-12.647.716-16.593 2.148-3.946 1.402-5.919 3.26-5.919 5.576 0 2.163 2.296 3.976 6.889 5.439 4.658 1.462 11.483 2.833 20.475 4.113 16.56 2.346 28.625 5.256 36.194 8.73 7.569 3.472 11.353 7.8 11.353 12.979 0 5.758-4.625 10.283-13.876 13.574-9.251 3.26-21.704 6.48-37.359 6.48-10.868 0-25.856.428-35.008-1.59-6.89-1.52-9.549-2.923-14.271-6.184-2.585-1.809-4.726-5.11-6.12-8.426-1.382-3.286 1.87-5.731 5.163-4.364l7.79 3.235a6.63 6.63 0 011.036.56c6.735 4.332 23.235 4.347 41.41 4.347 6.922 0 12.324-.655 16.205-1.965 3.882-1.34 5.822-3.2 5.822-5.576z" fill="#365092"/></symbol><symbol id="aslogobalck"><path d="M19.333 31.158H7.383l-2.684 7.73H.82l10.893-29.62h3.29L25.915 38.89h-3.859l-2.723-7.731zM8.52 27.943h9.697l-4.858-13.855L8.52 27.943zm29.64-2.258c-3.227-.963-5.577-2.143-7.053-3.54-1.463-1.41-2.194-3.147-2.194-5.208 0-2.333.894-4.26 2.684-5.778 1.802-1.533 4.14-2.3 7.013-2.3 1.959 0 3.702.394 5.23 1.18 1.542.787 2.73 1.872 3.566 3.256a8.512 8.512 0 011.273 4.537H44.9c0-1.79-.55-3.194-1.646-4.212-1.097-1.03-2.645-1.546-4.643-1.546-1.855 0-3.304.427-4.35 1.282-1.03.84-1.547 2.014-1.547 3.52 0 1.207.49 2.23 1.47 3.072.992.827 2.67 1.587 5.034 2.278 2.377.692 4.232 1.458 5.564 2.3 1.345.827 2.338 1.796 2.977 2.909.653 1.112.98 2.42.98 3.926 0 2.4-.901 4.327-2.703 5.778-1.803 1.438-4.212 2.157-7.23 2.157-1.958 0-3.787-.387-5.484-1.16-1.698-.787-3.01-1.858-3.938-3.214-.914-1.357-1.371-2.896-1.371-4.619h3.78c0 1.79.634 3.208 1.9 4.252 1.28 1.031 2.985 1.547 5.114 1.547 1.985 0 3.506-.42 4.564-1.262 1.058-.84 1.587-1.987 1.587-3.438s-.49-2.57-1.47-3.357c-.979-.8-2.755-1.587-5.328-2.36zm22.665-.57l-3.487 3.764v10.01h-3.761V9.266h3.761v14.649L70.013 9.267h4.545L63.333 22.348l12.106 16.54h-4.505L60.825 25.116zm39.22-.081c0 2.902-.47 5.439-1.41 7.609-.941 2.157-2.273 3.804-3.997 4.944-1.724 1.14-3.735 1.709-6.034 1.709-2.246 0-4.238-.57-5.975-1.71-1.737-1.152-3.089-2.786-4.055-4.902-.953-2.13-1.443-4.591-1.47-7.386v-2.136c0-2.848.477-5.364 1.43-7.548.954-2.184 2.3-3.852 4.036-5.005 1.75-1.166 3.749-1.75 5.995-1.75 2.285 0 4.297.577 6.034 1.73 1.75 1.14 3.095 2.8 4.035 4.984.94 2.17 1.411 4.7 1.411 7.59v1.87zm-3.742-1.912c0-3.513-.679-6.206-2.037-8.078-1.359-1.885-3.259-2.828-5.701-2.828-2.377 0-4.251.943-5.622 2.829-1.359 1.871-2.057 4.475-2.097 7.812v2.177c0 3.404.686 6.083 2.057 8.036 1.385 1.94 3.285 2.91 5.701 2.91 2.43 0 4.31-.916 5.642-2.747 1.332-1.845 2.018-4.483 2.057-7.914v-2.197zm14.242-13.855l9.325 24.17 9.325-24.17h4.878v29.622h-3.761V27.353l.352-12.45-9.364 23.986h-2.879l-9.345-23.926.372 12.39V38.89h-3.761V9.266h4.858zm46.272 21.891h-11.95l-2.684 7.73h-3.878l10.892-29.621h3.291L163.4 38.889h-3.86l-2.723-7.731zm-10.813-3.215h9.697l-4.859-13.855-4.838 13.855zm31.697-1.037h-6.7v11.983h-3.781V9.266h9.442c3.213 0 5.681.76 7.405 2.28 1.737 1.518 2.606 3.73 2.606 6.632 0 1.844-.483 3.451-1.45 4.821-.953 1.37-2.285 2.394-3.996 3.073l6.7 12.573v.244h-4.036l-6.19-11.983zm-6.7-3.194h5.779c1.867 0 3.35-.502 4.447-1.506 1.11-1.004 1.665-2.346 1.665-4.028 0-1.831-.529-3.235-1.587-4.212-1.045-.976-2.56-1.471-4.545-1.485h-5.759v11.23zm42.902 1.322c0 2.902-.47 5.439-1.41 7.609-.94 2.157-2.273 3.804-3.997 4.944-1.724 1.14-3.735 1.709-6.033 1.709-2.247 0-4.238-.57-5.975-1.71-1.737-1.152-3.089-2.786-4.056-4.902-.953-2.13-1.443-4.591-1.469-7.386v-2.136c0-2.848.477-5.364 1.43-7.548.954-2.184 2.299-3.852 4.036-5.005 1.75-1.166 3.748-1.75 5.994-1.75 2.286 0 4.297.577 6.034 1.73 1.75 1.14 3.096 2.8 4.036 4.984.94 2.17 1.41 4.7 1.41 7.59v1.87zm-3.741-1.912c0-3.513-.68-6.206-2.038-8.078-1.358-1.885-3.258-2.828-5.701-2.828-2.376 0-4.251.943-5.622 2.829-1.358 1.871-2.057 4.475-2.096 7.812v2.177c0 3.404.686 6.083 2.057 8.036 1.384 1.94 3.285 2.91 5.701 2.91 2.429 0 4.309-.916 5.642-2.747 1.332-1.845 2.017-4.483 2.057-7.914v-2.197zM228.557 33.7l8.149-24.434h4.114L230.242 38.89h-3.331L216.352 9.266h4.094l8.111 24.435z" fill="#000"/><path d="M87.93 40.762a3.284 3.284 0 00-2.41-1.064H38.645c-.915 0-1.79.389-2.42 1.077l-7.479 8.148A3.285 3.285 0 0126.325 50H6.038c-3.029 0-4.496-3.849-2.289-6.003L47.876.942A3.277 3.277 0 0150.166 0h23.64c.847 0 1.663.334 2.282.935l44.371 43.056c2.217 2.15.751 6.009-2.282 6.009H97.914a3.284 3.284 0 01-2.408-1.064l-7.577-8.174zM50.23 25.49c-2.022 2.212-.513 5.863 2.425 5.863H71.44c2.946 0 4.452-3.67 2.412-5.877l-9.444-10.215a3.258 3.258 0 00-4.836.013l-9.34 10.216z" fill="#000" fill-opacity=".76"/><path d="M209.036 36.564c0-1.894-1.888-3.342-5.664-4.345-3.776-1.025-10.573-2.094-20.392-3.208-9.818-1.137-17.59-2.25-23.318-3.343-15.608-2.985-23.412-7.007-23.412-12.065 0-2.63 2.077-4.969 6.231-7.019 4.216-2.072 10.227-3.687 18.031-4.846C168.379.579 177.19 0 186.945 0c9.819 0 18.567.635 26.245 1.905 7.678 1.248 13.626 3.02 17.843 5.314 2.612 1.401 4.427 2.918 5.445 4.551 1.003 1.61-.523 3.27-2.369 3.27h-21.635c-1.846 0-3.422-1.745-4.839-2.974-.992-.86-2.475-1.596-4.452-2.206-3.965-1.248-9.535-1.872-16.71-1.872-6.923 0-12.304.524-16.143 1.57-3.839 1.026-5.759 2.385-5.759 4.078 0 1.582 2.235 2.908 6.703 3.978 4.532 1.07 11.171 2.072 19.92 3.008 16.111 1.715 27.849 3.843 35.213 6.383 7.363 2.54 11.045 5.704 11.045 9.492 0 4.212-4.5 7.52-13.5 9.927-9 2.384-21.115 3.576-36.346 3.576-10.573 0-20.202-.68-28.888-2.039-8.685-1.381-15.325-3.264-19.919-5.648-2.874-1.512-4.836-3.176-5.888-4.993-.951-1.644.588-3.296 2.434-3.296h21.729c1.847 0 3.335 1.736 4.62 3.112 3.077 3.295 11.714 4.943 25.912 4.943 6.735 0 11.99-.48 15.766-1.437 3.776-.98 5.664-2.34 5.664-4.078z" fill="#000"/></symbol><symbol id="basket-ball-img"><path d="M14.387 3.612a7.748 7.748 0 01-2 10.775 7.749 7.749 0 01-10.774-2 7.75 7.75 0 0112.775-8.775" fill="#DB7C27"/><path d="M11.331 14.996s-3.7-8.245.242-13.875l.33.183s-4.13 5.656.212 13.269l-.784.422m-9.72-2.608S5.258 6.972 4.252 1.216l-.448.308S5.773 3.131 1.33 11.979M8.64.285s-4.509 5.647-3.583 14.9c0 0 .67.199.886.276.216.076-1.438-8.383 3.377-15.098L8.64.285" fill="#404041"/><path d="M.42 6.744s5.86 4.227 15.059 2.85c0 0 .165-.68.23-.9.067-.219-8.301 1.848-15.245-2.633l-.045.683" fill="#404041"/></symbol><symbol id="decor-img-1" viewBox="0 0 526 598">
<path fill-rule="evenodd" clip-rule="evenodd" d="M52.3968 51.6606C-4.26075 140.787 -58.651 313.416 139.571 447.058C224.496 504.315 258.293 556.012 271.758 598H526V0H82.314C77.9732 6.81786 73.8436 14.3145 69.4257 22.3345C64.375 31.5031 58.9475 41.3559 52.3968 51.6606Z" fill="url(#paint0_radial)"/>

</symbol><symbol id="decor-img-2" viewBox="0 0 528 748">
<path d="M139.571 487.058C-58.651 353.416 -4.26076 180.787 52.3968 91.6606C93.3968 27.1649 90.3968 -19.6262 226.397 8.19551C333.384 30.082 466.709 4.92448 527.397 40.1912V636.013C513.033 661.535 455.864 718.705 342.102 743.206C199.9 773.832 387.349 654.111 139.571 487.058Z" fill="#1B5F9E"/>
</symbol><symbol id="decor-img-3" viewBox="0 0 398 742">
<path fill-rule="evenodd" clip-rule="evenodd" d="M0 676.772V134.919V76.9441C0 51.1776 21.4345 0.781437 80.242 0.781433C113.409 0.781431 124.407 4.88719 134.4 8.61756C148.739 13.9703 161.008 18.5502 233.731 9.11762C298 0.781451 338.73 11.1363 330.844 90.2062C317.5 224 315 290.5 362.529 388C407.303 479.847 398.547 577.405 393.094 638.172L393.094 638.175C392.196 648.176 391.388 657.181 390.923 665C389.091 695.779 355.035 698.768 306.116 703.063C267.106 706.488 218.646 710.742 169.537 730.579C80.9827 766.349 19.6147 709.612 0 676.772ZM216.576 202.273C216.576 206.436 215.153 210.427 212.62 213.371C210.087 216.314 206.652 217.967 203.071 217.967C199.489 217.967 196.054 216.314 193.521 213.371C190.988 210.427 189.565 206.436 189.565 202.273C189.565 198.111 190.988 194.119 193.521 191.176C196.054 188.233 199.489 186.579 203.071 186.579C206.652 186.579 210.087 188.233 212.62 191.176C215.153 194.119 216.576 198.111 216.576 202.273ZM203.555 198.165C202.242 198.801 199.615 200.115 195.678 202.108C195.04 202.403 194.704 202.693 194.674 202.976C194.623 203.452 195.137 203.64 195.836 203.897L195.839 203.898L196.134 204.005C196.823 204.266 197.751 204.57 198.232 204.582C198.671 204.594 199.159 204.386 199.698 203.954C203.376 201.069 205.275 199.611 205.393 199.58C205.478 199.556 205.596 199.529 205.674 199.611C205.753 199.692 205.745 199.847 205.736 199.888C205.686 200.136 203.735 202.246 202.676 203.392L202.675 203.392L202.62 203.452C202.294 203.805 202.063 204.054 202.015 204.111C201.957 204.181 201.897 204.251 201.837 204.319C201.791 204.372 201.745 204.424 201.698 204.476C201.057 205.194 200.577 205.732 201.723 206.611C202.275 207.034 202.718 207.382 203.158 207.731C203.638 208.111 204.117 208.49 204.738 208.965C204.879 209.07 205.015 209.183 205.147 209.292L205.194 209.332C205.753 209.795 206.258 210.21 206.877 210.144C207.239 210.104 207.612 209.712 207.801 208.535C208.248 205.755 209.128 199.735 209.33 197.253C209.342 197.047 209.335 196.84 209.308 196.635C209.292 196.47 209.224 196.318 209.116 196.209C208.962 196.086 208.779 196.022 208.592 196.027C208.086 196.037 207.304 196.353 203.555 198.165ZM225.016 269.767L221.15 274.279C220.993 274.462 220.806 274.607 220.6 274.706C220.395 274.805 220.174 274.856 219.952 274.856C219.729 274.856 219.509 274.805 219.303 274.706C219.098 274.607 218.911 274.462 218.753 274.279C218.596 274.096 218.471 273.879 218.386 273.64C218.301 273.401 218.257 273.145 218.257 272.886C218.257 272.628 218.301 272.372 218.386 272.133C218.471 271.894 218.596 271.676 218.753 271.493L225.506 263.647C225.666 263.468 225.856 263.328 226.063 263.235C226.474 263.038 226.935 263.038 227.346 263.235C227.553 263.328 227.742 263.468 227.903 263.647L234.655 271.493C234.814 271.676 234.939 271.893 235.025 272.132C235.111 272.371 235.155 272.627 235.155 272.886C235.155 273.145 235.111 273.402 235.025 273.641C234.939 273.88 234.814 274.097 234.655 274.279C234.498 274.463 234.312 274.609 234.106 274.709C233.9 274.808 233.68 274.859 233.457 274.859C233.234 274.859 233.013 274.808 232.808 274.709C232.602 274.609 232.415 274.463 232.258 274.279L228.392 269.767V292.504C228.392 293.024 228.215 293.523 227.898 293.891C227.581 294.259 227.152 294.466 226.704 294.466C226.257 294.466 225.827 294.259 225.511 293.891C225.194 293.523 225.016 293.024 225.016 292.504V269.767ZM189.282 457.943L214.075 457.945L214.304 457.931C214.709 457.882 215.079 457.708 215.348 457.439C215.616 457.171 215.763 456.827 215.763 456.471L215.749 456.275C215.695 455.922 215.497 455.598 215.19 455.364C214.882 455.129 214.488 455 214.079 455H183.118L182.33 455.604C182.09 455.888 181.975 456.237 182.005 456.588C182.035 456.939 182.209 457.27 182.495 457.519L192.621 466.341L192.813 466.482C193.138 466.691 193.538 466.792 193.941 466.766C194.344 466.74 194.723 466.588 195.009 466.339L195.173 466.174C195.413 465.89 195.528 465.541 195.498 465.19C195.467 464.838 195.293 464.508 195.007 464.259L188.908 458.943L187.76 457.943L189.282 457.943ZM194.429 465.505C194.491 465.421 194.507 465.341 194.502 465.276C194.495 465.204 194.457 465.107 194.351 465.014L194.35 465.013L187.103 458.696L185.091 456.942L187.761 456.943L214.045 456.945L214.21 456.935C214.398 456.907 214.547 456.826 214.64 456.733C214.725 456.648 214.757 456.562 214.762 456.494L214.755 456.401C214.737 456.327 214.688 456.239 214.584 456.159C214.46 456.065 214.282 456 214.079 456L214.079 456L183.457 456L183.048 456.314C183.036 456.335 183.026 456.355 183.019 456.375C183.009 456.403 183.003 456.429 183.001 456.454C183 456.471 183 456.487 183.001 456.503C183.007 456.575 183.045 456.672 183.152 456.765L193.248 465.56L193.375 465.654C193.51 465.734 193.687 465.78 193.876 465.768C194.064 465.756 194.222 465.689 194.332 465.602L194.429 465.505ZM128.546 260.993C128.075 260.169 126.714 259.441 125.858 259.301C125.566 259.255 125.267 259.257 124.967 259.326C124.14 259.514 123.374 260.179 122.952 261.037C122.987 260.344 123.01 259.656 123.026 259.013L123.07 259.019C123.178 259.034 123.452 258.958 123.555 258.923C123.728 258.862 124.081 258.45 124.157 258.271C124.482 257.517 124.372 256.909 124.232 256.145L124.232 256.144L124.232 256.142C124.213 256.04 124.194 255.936 124.176 255.829C124.172 255.805 124.148 255.701 124.114 255.55L124.113 255.545L124.113 255.544L124.113 255.544C123.983 254.974 123.707 253.757 123.762 253.686C123.863 253.556 124.32 254.814 124.514 255.351L124.515 255.351L124.516 255.354L124.516 255.355C124.56 255.476 124.591 255.56 124.6 255.581C124.775 255.964 125.174 256.569 125.448 256.869C125.805 257.261 126.286 257.44 126.712 257.528C127.029 257.594 127.664 257.506 127.911 257.258C128.153 257.018 128.272 256.655 128.331 256.182C128.392 255.694 128.341 255.41 128.225 254.936C128.187 254.782 128.092 254.532 128.061 254.465C127.953 254.238 127.472 253.536 127.073 252.953C126.753 252.484 126.485 252.093 126.508 252.089C126.638 252.073 127.365 252.693 127.898 253.147L127.898 253.147L127.898 253.147L127.898 253.148C128.175 253.384 128.4 253.575 128.462 253.61C128.81 253.806 129.202 253.906 129.584 253.995C129.83 254.053 130.06 254.037 130.3 254.019C130.382 254.013 130.464 254.008 130.548 254.004C130.61 254.002 130.909 253.816 131.192 253.467C131.382 253.234 131.407 252.803 131.407 252.651C131.407 252.057 131.304 251.793 130.905 251.204C130.747 250.974 130.498 250.787 130.224 250.603C130.163 250.564 129.845 250.461 129.462 250.338C128.796 250.123 127.932 249.844 127.881 249.723C127.826 249.591 128.836 249.741 129.478 249.836C129.745 249.875 129.949 249.906 129.985 249.902C130.119 249.889 130.261 249.894 130.404 249.899C130.602 249.906 130.8 249.913 130.975 249.87C131.428 249.757 131.865 249.6 132.123 249.343C132.64 248.833 132.557 247.734 132.319 247.371C131.623 246.311 131.181 246.322 130.445 246.339C130.246 246.344 130.026 246.349 129.774 246.334C129.745 246.332 129.691 246.333 129.619 246.335L129.54 246.337L129.474 246.339C128.899 246.358 127.755 246.395 127.731 246.123C127.706 245.827 128.868 245.391 129.426 245.182L129.427 245.182L129.514 245.149L129.574 245.126L129.627 245.105C129.641 245.1 129.654 245.095 129.665 245.09C129.676 245.086 129.684 245.082 129.692 245.078C130.418 244.743 131.015 244.465 131.321 243.693C131.395 243.509 131.49 243.033 131.342 242.472C131.169 241.815 130.023 241.302 129.533 241.395C129.48 241.406 129.425 241.416 129.368 241.426L129.368 241.426C129.064 241.483 128.713 241.547 128.375 241.704C128.319 241.731 128.217 241.789 128.091 241.86L128.09 241.86L128.09 241.861L128.09 241.861L128.09 241.861L128.089 241.861L128.089 241.861L128.089 241.861L128.089 241.861C127.679 242.094 127.014 242.47 126.816 242.403C126.576 242.319 127.194 241.708 127.529 241.377C127.622 241.284 127.694 241.214 127.719 241.182C127.796 241.082 127.88 240.993 127.963 240.904C128.109 240.749 128.252 240.596 128.354 240.395C128.556 239.995 128.799 239.473 128.795 239.002C128.793 238.725 128.544 237.952 128.269 237.781C127.1 237.048 126.356 238.051 125.493 239.321C125.406 239.448 124.503 240.77 124.374 240.812C124.317 240.831 124.85 239.637 125.087 239.105C125.15 238.965 125.192 238.871 125.197 238.857C125.535 237.952 125.385 237.146 125.155 236.314C125.106 236.14 124.834 235.912 124.608 235.826C124.48 235.777 124.03 235.611 123.872 235.63C122.882 235.76 122.547 236.29 121.935 237.536C121.856 237.696 121.726 238.362 121.607 238.972C121.512 239.46 121.423 239.913 121.373 240.044C121.235 240.402 121.089 238.911 121.038 238.39L121.029 238.297C121.027 238.274 121.025 238.255 121.023 238.242C120.989 237.959 120.928 237.682 120.842 237.415L120.815 237.336C120.737 237.107 120.656 236.869 120.548 236.687C120.411 236.459 120.251 236.238 120.063 236.069C119.749 235.79 119.221 235.606 118.757 235.753C118.605 235.802 118.552 235.819 118.438 235.902C117.833 236.339 117.679 237.408 117.706 238.1C117.732 238.752 118.11 239.615 118.398 240.275L118.398 240.276C118.575 240.68 118.719 241.008 118.727 241.165C118.608 241.105 118.286 240.623 117.927 240.085L117.927 240.084C117.496 239.438 117.012 238.711 116.759 238.538C116.094 238.082 115.708 237.903 114.908 238.195C114.86 238.212 114.742 238.325 114.63 238.431C114.534 238.523 114.443 238.61 114.404 238.629C114.331 238.667 114.33 238.703 114.329 238.742C114.328 238.769 114.327 238.798 114.304 238.83C114.129 239.078 114.093 239.637 114.131 239.88C114.196 240.315 114.34 240.666 114.505 241.068L114.505 241.068L114.505 241.069L114.509 241.079C114.536 241.144 114.608 241.266 114.673 241.377C114.719 241.456 114.762 241.528 114.783 241.572C114.86 241.723 114.961 241.863 115.06 242.001C115.111 242.071 115.161 242.141 115.208 242.212C115.22 242.231 115.424 242.39 115.681 242.592L115.682 242.593L115.683 242.594L115.684 242.594L115.684 242.594C116.172 242.977 116.85 243.509 116.797 243.526C116.724 243.552 116.156 243.292 115.699 243.084L115.699 243.084L115.699 243.084L115.697 243.083C115.409 242.951 115.166 242.84 115.121 242.835C115.102 242.832 115.044 242.798 114.955 242.746C114.464 242.459 113.042 241.628 112.258 242.643L112.249 242.655C112.066 242.891 111.837 243.188 111.798 243.646C111.779 243.899 111.747 244.458 111.838 244.649C112.118 245.228 112.34 245.542 112.804 245.92C112.939 246.03 113.296 246.173 113.608 246.299C113.81 246.379 113.993 246.453 114.087 246.506C114.118 246.523 114.289 246.532 114.498 246.544C114.913 246.567 115.48 246.599 115.423 246.717C115.401 246.763 114.717 246.855 114.328 246.907C114.187 246.926 114.084 246.94 114.066 246.945C113.961 246.974 113.866 246.999 113.779 247.022C113.43 247.114 113.201 247.175 112.908 247.359C112.86 247.389 112.796 247.421 112.72 247.459C112.191 247.723 111.127 248.253 111.768 250.245C111.928 250.741 112.264 250.954 112.656 251.05C113.028 251.14 113.568 251.025 114.024 250.878C114.11 250.85 114.314 250.752 114.565 250.632L114.565 250.632C115.146 250.354 115.978 249.955 116.185 250.022C116.41 250.096 115.782 250.517 115.416 250.762L115.415 250.762C115.297 250.841 115.206 250.902 115.18 250.927C114.982 251.118 114.148 251.989 114.024 252.246L113.984 252.327C113.761 252.782 113.678 252.951 113.538 253.489C113.406 254.007 113.368 254.313 113.41 254.855C113.429 255.105 113.49 255.405 113.711 255.515C113.912 255.613 114.249 255.61 114.465 255.609H114.465H114.465H114.465L114.509 255.608L114.539 255.608C115.057 255.608 115.398 255.399 115.825 255.138C115.888 255.1 115.953 255.06 116.02 255.02L116.051 255.001L116.08 254.985L116.146 254.947C116.324 254.847 116.495 254.75 116.657 254.571C116.697 254.527 116.823 254.296 116.981 254.004C117.315 253.39 117.794 252.509 117.913 252.563C117.909 252.56 117.084 255.38 117.071 255.463C116.984 256.023 116.967 256.596 117.107 257.143C117.186 257.462 117.327 257.757 117.518 258.004C117.653 258.178 117.955 258.301 118.183 258.306C119.198 258.335 119.787 257.381 120.143 255.988C120.164 255.905 120.591 254.316 120.658 254.277C120.821 254.177 120.863 255.514 120.881 256.087L120.881 256.088V256.088C120.882 256.144 120.884 256.193 120.885 256.232C120.887 256.284 120.889 256.32 120.89 256.334C120.928 256.712 121.053 257.271 121.219 257.602C121.283 257.729 121.349 257.848 121.418 257.961C121.413 258.139 121.405 258.316 121.395 258.492L121.38 258.739C121.32 259.761 121.228 261.315 121.062 262.68C120.839 261.7 120.212 260.808 119.426 260.392C119.147 260.245 118.858 260.159 118.565 260.128C117.704 260.032 116.233 260.373 115.611 261.047C115.593 261.067 115.571 261.088 115.548 261.111L115.548 261.111C115.473 261.186 115.383 261.274 115.364 261.359C115.325 261.521 115.418 261.672 115.499 261.803L115.522 261.842C116.672 263.785 119.138 264.958 120.87 263.946C120.813 264.248 120.749 264.521 120.679 264.752C120.456 265.481 120.219 266.481 121.114 266.785C121.327 266.856 121.599 266.9 121.815 266.805C121.973 266.734 122.042 266.544 122.104 266.376L122.118 266.336C122.174 266.186 122.226 266.033 122.278 265.882L122.278 265.882L122.278 265.881L122.31 265.788L122.342 265.694C122.382 265.579 122.418 265.459 122.448 265.338C122.647 264.557 122.778 263.515 122.865 262.405C124.351 263.837 126.973 263.364 128.474 261.788L128.494 261.767L128.508 261.753C128.61 261.648 128.727 261.528 128.723 261.361C128.722 261.276 128.655 261.17 128.597 261.078C128.578 261.048 128.56 261.019 128.546 260.993ZM28.0007 595.044V644.087L125.912 693.131L125.912 648.593H127.442L135.198 586.973H131.524L124.428 643.344L76.9562 619.566L125.912 595.044L125.922 595.044V546L28.0104 595.044L28.0007 595.044ZM169.745 630.781L171.094 627.468L174.609 643.721H180.36L174.254 618.933L179.827 601.55H173.846L170.367 614.178L169.745 616.205V583.855H164.722V643.721H169.745V630.781ZM115.671 619.673L123.712 627.43V638.42L110.79 624.234V614.957L123.712 600.732V611.722L115.671 619.673ZM144.164 640.447C144.306 641.98 144.448 643.072 144.59 643.721H149.649V643.059C149.199 641.006 148.962 638.161 148.939 634.523V614.685C148.939 610.215 148.359 606.786 147.199 604.395C146.051 601.979 144.424 600.771 142.318 600.771C140.283 600.771 138.596 602.044 137.259 604.59C135.934 607.11 135.271 610.319 135.271 614.217H140.295C140.295 610.995 140.922 609.384 142.176 609.384C142.744 609.384 143.176 609.774 143.472 610.553C143.768 611.333 143.915 612.671 143.915 614.568V617.958H142.389C139.975 618.01 138.123 619.245 136.833 621.661C135.555 624.078 134.916 627.494 134.916 631.912C134.916 635.627 135.443 638.654 136.496 640.993C137.561 643.331 138.898 644.501 140.508 644.501C142.046 644.501 143.265 643.149 144.164 640.447ZM143.046 635.108C142.655 635.601 142.182 635.848 141.626 635.848C140.513 635.848 139.957 634.289 139.957 631.171C139.957 629.17 140.2 627.572 140.685 626.377C141.182 625.182 141.856 624.584 142.708 624.584H143.915V633.354C143.726 634.029 143.436 634.614 143.046 635.108ZM158.898 632.418C158.898 631.483 158.691 630.625 158.277 629.846C157.875 629.04 156.969 627.962 155.561 626.611C153.491 624.766 152.065 622.856 151.284 620.882C150.515 618.907 150.13 616.451 150.13 613.515C150.13 609.826 150.733 606.786 151.94 604.395C153.159 601.979 154.769 600.771 156.768 600.771C158.875 600.771 160.561 601.966 161.827 604.356C163.093 606.747 163.726 609.956 163.726 613.983H158.703C158.703 610.553 158.052 608.838 156.751 608.838C156.218 608.838 155.78 609.202 155.437 609.93C155.094 610.657 154.922 611.671 154.922 612.97C154.922 613.905 155.112 614.737 155.49 615.464C155.869 616.166 156.762 617.179 158.171 618.504C160.218 620.167 161.661 622.025 162.501 624.078C163.353 626.104 163.779 628.742 163.779 631.99C163.779 635.757 163.135 638.784 161.845 641.071C160.555 643.357 158.863 644.501 156.768 644.501C155.36 644.501 154.118 643.903 153.041 642.708C151.964 641.487 151.118 639.798 150.503 637.641C149.899 635.484 149.597 633.159 149.597 630.664H154.372C154.396 632.587 154.597 634.029 154.976 634.991C155.366 635.952 155.999 636.433 156.875 636.433C158.224 636.433 158.898 635.095 158.898 632.418ZM179.35 621.271C179.35 614.879 180.036 609.865 181.409 606.227C182.782 602.589 184.681 600.771 187.107 600.771C189.556 600.771 191.467 602.589 192.84 606.227C194.212 609.865 194.899 614.905 194.899 621.349V624.039C194.899 630.457 194.218 635.471 192.858 639.083C191.497 642.695 189.592 644.501 187.142 644.501C184.681 644.501 182.764 642.695 181.391 639.083C180.031 635.445 179.35 630.405 179.35 623.961V621.271ZM184.391 624.039C184.391 631.574 185.308 635.341 187.142 635.341C188.834 635.341 189.745 632.197 189.876 625.909L189.893 621.271C189.893 617.426 189.651 614.581 189.166 612.736C188.68 610.865 187.994 609.93 187.107 609.93C186.255 609.93 185.586 610.865 185.101 612.736C184.628 614.581 184.391 617.426 184.391 621.271V624.039ZM200.723 605.448L200.581 601.55H195.877V643.721H200.9V613.087C201.409 611.034 202.095 610.008 202.959 610.008C203.717 610.008 204.243 610.553 204.539 611.645C204.835 612.71 204.983 614.451 204.983 616.867V643.721H210.006V615.113L209.97 613.788C210.432 611.268 211.13 610.008 212.065 610.008C212.798 610.008 213.319 610.527 213.627 611.567C213.934 612.606 214.088 614.347 214.088 616.789V643.721H219.111V616.088C219.029 605.876 217.307 600.771 213.946 600.771C211.911 600.771 210.343 602.667 209.243 606.461C208.45 602.667 207.095 600.771 205.178 600.771C203.332 600.771 201.847 602.329 200.723 605.448ZM229.781 643.721C229.639 643.072 229.497 641.98 229.355 640.447C228.456 643.149 227.237 644.501 225.699 644.501C224.089 644.501 222.752 643.331 221.687 640.993C220.634 638.654 220.108 635.627 220.108 631.912C220.108 627.494 220.747 624.078 222.025 621.661C223.314 619.245 225.166 618.01 227.58 617.958H229.107V614.568C229.107 612.671 228.959 611.333 228.663 610.553C228.367 609.774 227.935 609.384 227.367 609.384C226.113 609.384 225.486 610.995 225.486 614.217H220.463C220.463 610.319 221.125 607.11 222.451 604.59C223.788 602.044 225.474 600.771 227.509 600.771C229.615 600.771 231.242 601.979 232.39 604.395C233.55 606.786 234.13 610.215 234.13 614.685V634.523C234.153 638.161 234.39 641.006 234.84 643.059V643.721H229.781ZM226.817 635.848C227.373 635.848 227.846 635.601 228.237 635.108C228.627 634.614 228.917 634.029 229.107 633.354V624.584H227.9C227.048 624.584 226.373 625.182 225.876 626.377C225.391 627.572 225.148 629.17 225.148 631.171C225.148 634.289 225.705 635.848 226.817 635.848ZM243.397 611.878L244.847 612.149C244.45 614.791 244.251 617.832 244.251 621.271V623.961C244.251 630.405 244.932 635.445 246.293 639.083C247.665 642.695 249.582 644.501 252.043 644.501C254.493 644.501 256.398 642.695 257.759 639.083C259.12 635.471 259.8 630.457 259.8 624.039V621.349C259.8 614.905 259.114 609.865 257.741 606.227C256.368 602.589 254.457 600.771 252.008 600.771C249.582 600.771 247.683 602.589 246.31 606.227C245.804 607.568 245.392 609.095 245.072 610.809L245.119 601.277C244.764 600.939 244.302 600.771 243.734 600.771C242.338 600.771 241.244 602.55 240.451 606.11L240.309 601.55H235.57V643.721H240.611V615.854C241.096 613.204 242.025 611.878 243.397 611.878ZM249.292 624.039C249.292 631.574 250.209 635.341 252.043 635.341C253.736 635.341 254.647 632.197 254.777 625.909L254.795 621.271C254.795 617.426 254.552 614.581 254.067 612.736C253.582 610.865 252.895 609.93 252.008 609.93C251.156 609.93 250.487 610.865 250.002 612.736C249.529 614.581 249.292 617.426 249.292 621.271V624.039ZM269.209 601.55L266.778 628.131L264.346 601.55H259.092L264.382 643.721H269.174L274.446 601.55H269.209ZM283.145 619.518L274.945 611.684V600.771L288.044 614.957V624.234L274.945 638.459V627.546L283.145 619.518ZM112.406 371.558C112.723 371.19 113.152 370.984 113.6 370.984H119.508C119.732 370.984 119.947 371.087 120.105 371.271C120.263 371.455 120.352 371.704 120.352 371.964C120.352 372.225 120.263 372.474 120.105 372.658C119.947 372.842 119.732 372.945 119.508 372.945H113.6V390.601H128.793V383.735C128.793 383.475 128.882 383.225 129.04 383.041C129.198 382.857 129.413 382.754 129.637 382.754C129.861 382.754 130.075 382.857 130.234 383.041C130.392 383.225 130.481 383.475 130.481 383.735V390.601C130.481 391.121 130.303 391.62 129.986 391.988C129.67 392.356 129.241 392.563 128.793 392.563H113.6C113.152 392.563 112.723 392.356 112.406 391.988C112.089 391.62 111.912 391.121 111.912 390.601V372.945C111.912 372.425 112.089 371.926 112.406 371.558ZM130.481 371.959C130.48 371.7 130.391 371.453 130.234 371.27C130.156 371.179 130.063 371.107 129.96 371.057C129.858 371.008 129.748 370.983 129.637 370.984H124.572C124.349 370.984 124.134 371.087 123.976 371.271C123.817 371.455 123.728 371.704 123.728 371.964C123.728 372.225 123.817 372.474 123.976 372.658C124.134 372.842 124.349 372.945 124.572 372.945H127.599L118.91 383.04C118.832 383.132 118.77 383.24 118.727 383.359C118.685 383.478 118.663 383.606 118.663 383.735C118.663 383.864 118.685 383.992 118.727 384.111C118.77 384.23 118.832 384.338 118.91 384.429C118.989 384.521 119.082 384.593 119.185 384.642C119.287 384.692 119.397 384.717 119.508 384.717C119.619 384.717 119.729 384.692 119.832 384.642C119.934 384.593 120.027 384.521 120.106 384.429L128.793 374.332V377.85C128.793 378.11 128.882 378.359 129.04 378.543C129.198 378.727 129.413 378.831 129.637 378.831C129.861 378.831 130.075 378.727 130.234 378.543C130.392 378.359 130.481 378.11 130.481 377.85V371.959Z" fill="#2959D6"/>
</symbol><symbol id="gihub-eye"><path d="M1.344 0S1 .604 1 1.625c0 .678.155 1.035.266 1.219C.485 3.656 0 4.758 0 6.172 0 9.793 2.295 11 6.5 11S13 9.793 13 6.172c0-1.463-.457-2.562-1.203-3.36A3.916 3.916 0 0011.672 0c-1.551 0-2.844 1.192-2.891 1.234A10.725 10.725 0 006.5 1a9.66 9.66 0 00-2.328.282C3.133.25 1.879 0 1.344 0zm7.5 5.219c.421-.004.813.031 1.156.14.916.292 1.5 1.133 1.5 2.079 0 2.617-1.405 3.062-5 3.062-2.672 0-4.844-.47-4.844-2.969 0-.953.518-1.492.891-1.828.82-.738 2.115-.375 3.953-.375.836 0 1.639-.102 2.344-.11v.001zM3.75 6.5c-.414 0-.75.447-.75 1 0 .553.336 1 .75 1s.75-.447.75-1c0-.553-.336-1-.75-1zm5.5 0c-.414 0-.75.447-.75 1 0 .553.336 1 .75 1s.75-.447.75-1c0-.553-.336-1-.75-1zm-5.578.422c.117 0 .203.1.203.219s-.086.218-.203.218a.222.222 0 01-.219-.218c0-.12.102-.219.219-.219zm5.5 0c.117 0 .203.1.203.219s-.086.218-.203.218a.222.222 0 01-.219-.218c0-.12.102-.219.219-.219z" fill="#000"/></symbol><symbol id="github-logo"><path d="M12 .297c-6.63 0-12 5.373-12 12 0 5.303 3.438 9.8 8.205 11.385.6.113.82-.258.82-.577 0-.285-.01-1.04-.015-2.04-3.338.724-4.042-1.61-4.042-1.61C4.422 18.07 3.633 17.7 3.633 17.7c-1.087-.744.084-.729.084-.729 1.205.084 1.838 1.236 1.838 1.236 1.07 1.835 2.809 1.305 3.495.998.108-.776.417-1.305.76-1.605-2.665-.3-5.466-1.332-5.466-5.93 0-1.31.465-2.38 1.235-3.22-.135-.303-.54-1.523.105-3.176 0 0 1.005-.322 3.3 1.23.96-.267 1.98-.399 3-.405 1.02.006 2.04.138 3 .405 2.28-1.552 3.285-1.23 3.285-1.23.645 1.653.24 2.873.12 3.176.765.84 1.23 1.91 1.23 3.22 0 4.61-2.805 5.625-5.475 5.92.42.36.81 1.096.81 2.22 0 1.606-.015 2.896-.015 3.286 0 .315.21.69.825.57C20.565 22.092 24 17.592 24 12.297c0-6.627-5.373-12-12-12" fill="#000"/></symbol><symbol id="GreatOne"><path d="M11.443 11.418c-.474.527-1.169.952-2.083 1.274-.914.323-1.916.484-3.006.484-1.675 0-3.014-.513-4.016-1.538C1.336 10.612.8 9.186.729 7.358L.721 6.25c0-1.26.222-2.358.668-3.296.445-.943 1.08-1.667 1.907-2.17.832-.51 1.793-.765 2.883-.765 1.593 0 2.83.366 3.709 1.098.885.727 1.4 1.814 1.547 3.26H8.464c-.106-.714-.334-1.224-.686-1.528-.351-.305-.85-.457-1.494-.457-.773 0-1.37.328-1.793.984-.422.656-.636 1.594-.641 2.812v.774c0 1.277.216 2.238.65 2.883.44.638 1.128.958 2.065.958.803 0 1.4-.179 1.793-.536V8.28H6.214V6.162h5.23v5.256zm7.949-5.248l-.975-.07c-.932 0-1.53.294-1.793.88V13h-2.962V3.49h2.777l.097 1.222c.498-.932 1.192-1.398 2.083-1.398.317 0 .592.036.826.106l-.053 2.75zm6.034 7.006c-1.46 0-2.64-.434-3.542-1.301-.903-.873-1.354-2.007-1.354-3.401v-.246c0-.973.179-1.832.536-2.576a3.955 3.955 0 011.582-1.722c.692-.41 1.512-.616 2.461-.616 1.336 0 2.39.416 3.164 1.248.774.827 1.16 1.981 1.16 3.463v1.152h-5.888c.105.533.337.952.694 1.257.358.304.82.457 1.389.457.937 0 1.67-.329 2.197-.985l1.354 1.6c-.37.51-.894.917-1.574 1.221-.673.3-1.4.449-2.18.449zM25.092 5.6c-.867 0-1.383.574-1.547 1.722h2.988v-.228c.012-.475-.108-.841-.36-1.099-.252-.264-.612-.395-1.081-.395zM36.53 13c-.105-.193-.2-.477-.281-.852-.545.685-1.307 1.028-2.285 1.028-.897 0-1.658-.27-2.285-.809-.627-.545-.94-1.227-.94-2.048 0-1.03.38-1.81 1.142-2.338.761-.527 1.869-.79 3.322-.79h.914v-.502c0-.873-.378-1.31-1.134-1.31-.703 0-1.054.347-1.054 1.038h-2.962c0-.92.39-1.667 1.169-2.241.785-.574 1.784-.862 2.997-.862 1.213 0 2.17.296 2.874.888.703.592 1.063 1.403 1.08 2.435v4.21c.012.873.147 1.54.405 2.004V13H36.53zm-1.854-1.934c.369 0 .673-.079.914-.237.246-.158.422-.337.527-.536v-1.52h-.861c-1.032 0-1.547.462-1.547 1.388 0 .27.09.49.272.66.182.163.413.245.695.245zm10.049-9.94V3.49h1.565v2.057h-1.565v4.35c0 .358.065.607.194.748.129.14.384.21.764.21.293 0 .54-.017.739-.052v2.118c-.533.17-1.09.255-1.67.255-1.02 0-1.773-.24-2.259-.72-.486-.481-.73-1.21-.73-2.19v-4.72h-1.212V3.49h1.212V1.126h2.962zm14.251 5.739c0 1.248-.231 2.353-.694 3.314-.463.96-1.122 1.702-1.977 2.223-.85.516-1.82.774-2.91.774s-2.056-.25-2.9-.747c-.844-.504-1.503-1.222-1.978-2.154-.468-.931-.715-2-.738-3.208v-.72c0-1.254.229-2.359.686-3.314.462-.96 1.122-1.702 1.977-2.223.861-.522 1.84-.783 2.936-.783 1.084 0 2.05.258 2.9.774.85.515 1.509 1.25 1.978 2.206.474.949.715 2.039.72 3.27v.588zM55.84 6.33c0-1.271-.214-2.235-.642-2.891-.422-.663-1.028-.994-1.82-.994-1.546 0-2.364 1.16-2.451 3.48l-.01.941c0 1.254.209 2.218.625 2.892.416.674 1.034 1.01 1.854 1.01.78 0 1.38-.33 1.802-.993.422-.662.636-1.614.642-2.856V6.33zm7.851-2.84l.097 1.116c.656-.86 1.561-1.292 2.716-1.292.99 0 1.728.296 2.215.888.492.592.747 1.483.764 2.672V13h-2.97V6.997c0-.48-.097-.832-.29-1.055-.194-.228-.546-.342-1.055-.342-.58 0-1.011.228-1.292.685V13h-2.962V3.49h2.777zm12.581 9.686c-1.459 0-2.64-.434-3.542-1.301-.902-.873-1.353-2.007-1.353-3.401v-.246c0-.973.178-1.832.536-2.576a3.955 3.955 0 011.582-1.722c.691-.41 1.512-.616 2.46-.616 1.337 0 2.391.416 3.165 1.248.773.827 1.16 1.981 1.16 3.463v1.152h-5.889c.106.533.337.952.695 1.257.357.304.82.457 1.388.457.938 0 1.67-.329 2.198-.985l1.353 1.6c-.369.51-.893.917-1.573 1.221-.674.3-1.4.449-2.18.449zM75.938 5.6c-.867 0-1.383.574-1.547 1.722h2.989v-.228c.011-.475-.109-.841-.36-1.099-.253-.264-.613-.395-1.082-.395z" fill="#62D0DF"/></symbol><symbol id="icon-telegam"><path d="M16 8A8 8 0 11-.001 8 8 8 0 0116 8zM8.287 5.906c-.778.324-2.334.994-4.666 2.01-.378.15-.577.298-.595.442-.03.243.275.339.69.47l.175.055c.408.133.958.288 1.243.294.26.006.549-.1.868-.32 2.179-1.471 3.304-2.214 3.374-2.23.05-.012.12-.026.166.016.047.041.042.12.037.141-.03.129-1.227 1.241-1.846 1.817-.193.18-.33.307-.358.336a8.161 8.161 0 01-.188.186c-.38.366-.664.64.015 1.088.327.216.589.393.85.571.284.194.568.387.936.629.093.06.183.125.27.187.331.236.63.448.997.414.214-.02.435-.22.547-.82.265-1.417.786-4.486.906-5.751.007-.105.003-.21-.013-.315a.337.337 0 00-.114-.217.526.526 0 00-.31-.093c-.3.005-.763.166-2.984 1.09z" fill="#000"/></symbol><symbol id="icon-npm"><path fill-rule="evenodd" clip-rule="evenodd" d="M0 0h24v24H0V0z" fill="#D40001"/><path fill-rule="evenodd" clip-rule="evenodd" d="M16.718 7.928h-4.513V20.25H4V3h16v17.249h-3.282V7.928z" fill="#fff"/></symbol><symbol id="logos_figma"><path d="M4 24c2.208 0 4-1.792 4-4v-4H4c-2.208 0-4 1.792-4 4s1.792 4 4 4z" fill="#0ACF83"/><path d="M0 12c0-2.208 1.792-4 4-4h4v8H4c-2.208 0-4-1.792-4-4z" fill="#A259FF"/><path d="M0 4c0-2.208 1.792-4 4-4h4v8H4C1.792 8 0 6.208 0 4z" fill="#F24E1E"/><path d="M8 0h4c2.208 0 4 1.792 4 4s-1.792 4-4 4H8V0z" fill="#FF7262"/><path d="M16 12c0 2.208-1.792 4-4 4s-4-1.792-4-4 1.792-4 4-4 4 1.792 4 4z" fill="#1ABCFE"/></symbol><symbol id="logos_gulp"><path d="M35.449 104.708l.975-17.255 2.693-4.88s-6.129 2.661-16.389 2.661-16.296-2.613-16.296-2.613l3.018 5.325 1.068 16.762c0 1.797 5.58 3.254 12.465 3.254s12.466-1.457 12.466-3.254M32.373 24.13l2.047-8.592L45.754 2.872 42.767.17l-12 13.492-2.377 10.264a150.114 150.114 0 00-5.368-.094c-12.638 0-22.884 1.53-22.884 3.415 0 1.887 10.246 3.416 22.884 3.416 12.639 0 22.884-1.529 22.884-3.416 0-1.389-5.557-2.584-13.533-3.118" fill="#D34A47"/><path d="M31.182 28.94s-.443.106-1.747.112c-1.304.006-2.23-.01-2.6-.366-.099-.096-.153-.286-.152-.415 0-.245.165-.39.373-.48l.198.33c-.086.03-.135.068-.135.107-.001.187 1.333.314 2.354.3 1.02-.013 2.254-.102 2.255-.286 0-.055-.093-.108-.255-.149l.196-.326c.265.087.496.255.495.547-.002.495-.597.57-.982.626" fill="#fff"/><path d="M45.732 2.898c.285-.35-.147-1.244-.966-1.997-.819-.752-1.714-1.08-2-.73-.284.35.148 1.244.967 1.997.819.753 1.714 1.08 2 .73zM34.904 62.56c-.27-2.744 5.653-6.719 4.133-6.846-3.272.199-4.9 4.071-6.546 8.128-.603 1.486-2.667 7.826-4.021 7.045-1.354-.78 1.755-5.993 2.626-9.089-1.006.783-4.692 3.825-5.642.976-1.527 1.378-4.79 2.124-4.423-1.494-.812 1.528-2.636 3.662-4.825 2.775-2.874-1.164 1.666-10.888 2.795-10.397 1.129.49-.228 2.705-.583 3.565-.782 1.893-1.685 4.273-1.082 4.76 1.034.835 3.846-3.157 3.908-3.245.526-.738 2.025-5.565 3.232-5.01 1.208.554-3.012 6.927-1.434 8.192.318.255 1.62-.157 2.412-1.067.513-.589.336-1.893 2.045-6.219 1.708-4.326 3.23-9.713 4.402-9.303 1.172.41.206 3.176-.214 4.206-1.973 4.838-5.383 12.83-3.775 12.226 1.609-.605 2.446-.64 4.021-2.598 1.575-1.957 1.502-5.18 2.552-5.112 1.05.069.874 1.102.62 1.89 1.033-1.256 4.897-3.9 5.83-1.282 1.105 3.1-5.529 7.58-3.875 7.351 1.613-.223 4.225-1.98 5.341-3.578l3.07-29.313s-3.09 2.715-22.746 2.715C3.068 31.836.298 29.177.298 29.177l2.614 26.757C4.3 51.746 7.595 43.275 12.788 43.56c2.363.129 5.517 4.96 2.815 5.123-1.143.07-1.26-2.41-2.614-2.775-.977-.263-2.337.58-3.216 1.495-1.754 1.822-5.525 9.011-5.027 12.596.635 4.57 5.939-1.588 6.836-3.416.632-1.288 1.059-5.103 2.441-4.703 1.383.4-.12 4.338-1.122 7.82-1.126 3.908-1.718 8.032-3.128 7.558-1.411-.474.887-5.521.804-6.405-1.326 1.3-3.77 4.588-6.895 2.96L5.306 80.43s4.314 3.62 17.313 3.62c12.998 0 17.472-3.564 17.472-3.564l2.016-19.244c-1.65 1.705-6.87 4.734-7.203 1.32" fill="#D34A47"/></symbol><symbol id="logos_javascript"><path d="M0 0h16v16H0V0z" fill="#F7DF1E"/><path d="M4.207 13.37l1.224-.74c.237.419.452.773.967.773.494 0 .806-.193.806-.945V7.346h1.503v5.133c0 1.558-.913 2.266-2.245 2.266-1.202 0-1.9-.622-2.255-1.374m5.317-.161l1.224-.71c.322.527.741.914 1.482.914.623 0 1.02-.312 1.02-.741 0-.516-.408-.698-1.095-1l-.376-.16c-1.085-.462-1.804-1.042-1.804-2.266 0-1.128.86-1.987 2.202-1.987.956 0 1.643.333 2.137 1.203l-1.17.751c-.259-.461-.538-.644-.967-.644-.44 0-.72.28-.72.644 0 .451.28.634.924.913l.375.162c1.279.547 1.998 1.106 1.998 2.362 0 1.354-1.063 2.095-2.492 2.095-1.396 0-2.298-.666-2.738-1.536" fill="#000"/></symbol><symbol id="logos_jquery"><g clip-path="url(#clip0)" fill-rule="evenodd" clip-rule="evenodd"><path d="M122.429 2.162l5.355.029s-9.956 13.491-10.769 14.59c-.264.357-.665.74-.868 1.216-.514 1.197-1.042 3.822-1.042 3.822l-4.9.024s.762-2.736.731-4.193c-.028-1.273-.678-2.544-1.042-3.821-.369-1.293-.869-3.822-.869-3.822h5.038l.694 2.78 7.672-10.626" fill="#1A1918"/><path d="M112.289 5.007c.988.595 1.595 3.882 1.595 3.882s-5.171.076-7.985.076h-2.432l-2.953 12.854h-4.516s2.81-13.969 3.474-16.501c.215-.82 1.473-.68 3.597-.68h3.393c2.19 0 4.75-.28 5.827.369m-21.024 6.26s.14-.825-.478-1.78c-.528-.815-1.016-1.005-2.405-1.048-3.924-.123-3.848 2.784-3.848 2.784l6.731.044zm4.255-3.33c.576 2.074-.52 6.948-.52 6.948s-5.724-.096-8.859 0c-.975.03-2.142-.106-2.432.347-.408.636.15 1.614.622 2.027.544.476 1.603.53 1.984.578 2.544.324 7.87.084 7.87.084l-.923 4.085s-7.525.378-11.29-.521c-.743-.177-1.44-.535-1.91-1.042-.129-.139-.24-.328-.362-.492-.097-.13-.38-.559-.507-.898-.86-2.29.1-6.68 1.042-9.032.11-.272.247-.618.391-.912.18-.366.334-.78.478-.998.097-.151.217-.249.318-.391.116-.169.251-.332.377-.478.347-.403.741-.688 1.215-1.042 1.569-1.174 4.407-2.086 7.817-1.737 1.284.132 3.222.59 4.168 1.91.254.353.38 1.053.522 1.564zM74.807 4.622l4.38-.025s-2.441 11.576-3.685 17.222h-5.037c-3.521 0-6.656.436-7.99-2.085-1.294-2.447-.06-6.472.52-9.206.41-1.935 1.274-5.89 1.274-5.89l4.537-.041s-1.282 6.157-1.815 9.232c-.191 1.101-.585 2.138-.174 2.952.391.775.938.83 2.606.869.528.013 2.258 0 2.258 0l3.126-13.028M54.311 12.96c.459-1.629 1.127-3.395 1.042-4.863-.092-1.57-1.408-3-2.258-3.3-2.558-.904-4.953.359-5.905 1.389-1.232 1.334-1.649 2.892-2.085 5.037-.324 1.593-.59 3.274 0 4.516 1.046 2.196 4.306 1.716 7.817 1.738.52-1.397.951-2.966 1.389-4.517zm6.08-6.426c.5 3.637-1.42 7.651-2.741 11.142 1.348.122 2.529-.019 2.614.082.088.13-.904 4.167-1.25 4.177-1.07.028-4.614.058-6.093.058-4.823 0-9.336.314-11.637-2.085-.934-.974-1.58-2.646-1.737-3.821-.26-1.963.066-4.124.521-5.906.412-1.608.94-3.126 1.737-4.516C43.832 2.127 47.358-.5 53.269.107c1.146.118 2.793.62 3.821 1.216.071.041.32.24.377.274 1.39.884 2.656 2.995 2.924 4.937zM39.048 4.643c-.291 1.33-.583 2.835-.89 4.148h-4.864c.377-1.455.665-2.902 1.042-4.168 1.556 0 3.003.02 4.712.02m-5.928 5.365h4.69c-.613 3.394-1.828 8.868-2.78 12.68-.595 2.384-.993 4.125-2.605 5.384-.144.113-.227.059-.347.174-.297.283-1.671.611-2.432.694-1.236.134-2.635.018-4.155-.014.398-1.453.848-3.199 1.203-4.502 3.704.448 3.798-3.053 4.515-6.427.416-1.948 1.673-7.208 1.911-7.99" fill="#1A1918"/><path d="M22.177 18.866l-.1.26c-1.713 3.335-4.748 5.381-9.076 5.472-2.024.042-3.952-.478-5.211-1.042-2.718-1.222-5.005-3.486-6.253-5.906-1.791-3.469-2.114-8.294 1.61-11.898.057 0-.452.782-.394.782l-.103.333c-2.683 8.401 5.584 15.601 13.621 14.778 1.932-.198 4.395-1.256 5.906-2.779z" fill="#21609B"/><path d="M17.314 15.392c2.021.014 4.134-.931 5.384-2.258-1.094 2.777-4.262 4.563-8.51 3.995-3.558-.476-6.947-4.056-7.296-7.643-.255-2.61.655-4.168 2.154-6.058-.521.988-.716 1.75-.764 2.237-.57 5.647 4.51 9.697 9.032 9.727" fill="#21609B"/><path d="M22.495 8.378c-.314.721-2.124 2.082-2.923 2.253-3.165.674-5.192-.827-6.253-2.534-.158-.255-.45-.952-.502-1.13-.412-1.4-.223-3.517 1.005-4.613-.37 1.042-.423 2.253-.229 3.04.118.476.478 1.306.838 1.829.654.952 1.07 1.183 1.91 1.689.379.227.785.41.96.46.798.234 2.481.853 5.194-.994" fill="#21609B"/></g></symbol><symbol id="radio-empty"><g filter="url(#filter0_di)"><circle cx="40" cy="40" r="39" stroke="#000" stroke-width="2"/></g></symbol><symbol id="vscode-icons_file-type-css"><path d="M2.951 13.6L1.828 1h12.344l-1.125 12.598L7.992 15l-5.041-1.4z" fill="#1572B6"/><path d="M8 13.929l4.085-1.133.961-10.765H8v11.898z" fill="#33A9DC"/><path d="M8 6.596h2.045l.141-1.583H8V3.468h3.875l-.037.414-.38 4.259H8V6.596z" fill="#fff"/><path d="M8.01 10.609l-.008.002-1.72-.465-.11-1.232H4.62l.216 2.426 3.166.879.007-.002v-1.608z" fill="#EBEBEB"/><path d="M9.914 8.075l-.187 2.07-1.723.465v1.608l3.168-.878.023-.261.269-3.004h-1.55z" fill="#fff"/><path d="M8.005 3.468v1.545H4.272l-.03-.347-.071-.784-.037-.414h3.871zM8 6.596V8.14H6.3l-.03-.347-.07-.784-.037-.414H8z" fill="#EBEBEB"/></symbol><symbol id="vscode-icons_file-type-html"><path d="M2.951 13.6L1.827 1h12.345l-1.125 12.598L7.992 15l-5.041-1.4z" fill="#E44F26"/><path d="M8 13.929l4.085-1.133.961-10.765H8v11.898z" fill="#F1662A"/><path d="M8 6.704H5.955L5.814 5.12H8V3.575H4.125l.037.415.38 4.259H8V6.703zm0 4.013l-.007.002-1.721-.464-.11-1.233H4.611l.216 2.426 3.166.879.007-.002v-1.608z" fill="#EBEBEB"/><path d="M7.995 6.703V8.25h1.903l-.18 2.005-1.723.465v1.607l3.168-.878.023-.261.363-4.069.038-.415H7.995zm0-3.128v1.546h3.732l.031-.347.071-.784.037-.415H7.995z" fill="#fff"/></symbol><symbol id="vscode-icons_file-type-scss"><path d="M8.085 9.35c-.24.11-.504.255-1.031.544-.2.113-.409.225-.604.331l-.04-.044c-1.044-1.115-2.974-1.903-2.892-3.4.03-.546.218-1.978 3.707-3.717 2.87-1.415 5.155-1.023 5.55-.153.566 1.239-1.225 3.546-4.19 3.88a2.234 2.234 0 01-1.876-.474c-.156-.17-.18-.18-.238-.146-.096.05-.034.204 0 .293a1.75 1.75 0 001.07.842 5.7 5.7 0 003.479-.345c1.796-.695 3.2-2.629 2.789-4.25-.413-1.643-3.141-2.185-5.722-1.268a13 13 0 00-4.395 2.523c-1.422 1.33-1.647 2.486-1.555 2.97.331 1.719 2.7 2.837 3.65 3.665l-.13.072c-.473.236-2.28 1.18-2.731 2.179-.512 1.132.082 1.944.474 2.053a2.916 2.916 0 003.14-1.272 3.15 3.15 0 00.28-2.9c.112-.09.232-.17.358-.239.242-.143.473-.284.677-.393a5.238 5.238 0 012.237-.494c1.623.19 1.944 1.203 1.883 1.63a1.08 1.08 0 01-.515.729c-.113.072-.15.096-.14.147.013.075.067.071.163.058a1.267 1.267 0 00.883-1.129c.05-1-.903-2.097-2.591-2.087a3.877 3.877 0 00-1.692.394l.002.001zm-2.412 3.92c-.539.586-1.289.808-1.613.62-.35-.2-.211-1.068.45-1.688.392-.353.815-.67 1.265-.944.079-.05.194-.116.334-.2l.037-.021.083-.05a2.329 2.329 0 01-.556 2.283z" fill="#CD6799"/></symbol></svg>