<svg id="visual" viewBox="0 0 900 450" width="900" height="450" xmlns="http://www.w3.org/2000/svg" xmlns:xlink="http://www.w3.org/1999/xlink" version="1.1"><rect x="0" y="0" width="900" height="450" fill="#13c0fb"></rect><path d="M0 171L11.5 172.7C23 174.3 46 177.7 69 181.2C92 184.7 115 188.3 138.2 186.5C161.3 184.7 184.7 177.3 207.8 174C231 170.7 254 171.3 277 174.7C300 178 323 184 346 184.3C369 184.7 392 179.3 415.2 175.3C438.3 171.3 461.7 168.7 484.8 167.2C508 165.7 531 165.3 554 161.5C577 157.7 600 150.3 623 154.2C646 158 669 173 692.2 181.2C715.3 189.3 738.7 190.7 761.8 188.8C785 187 808 182 831 174.2C854 166.3 877 155.7 888.5 150.3L900 145L900 0L888.5 0C877 0 854 0 831 0C808 0 785 0 761.8 0C738.7 0 715.3 0 692.2 0C669 0 646 0 623 0C600 0 577 0 554 0C531 0 508 0 484.8 0C461.7 0 438.3 0 415.2 0C392 0 369 0 346 0C323 0 300 0 277 0C254 0 231 0 207.8 0C184.7 0 161.3 0 138.2 0C115 0 92 0 69 0C46 0 23 0 11.5 0L0 0Z" fill="#ffffff"></path><path d="M0 161L11.5 159.8C23 158.7 46 156.3 69 156.2C92 156 115 158 138.2 152.8C161.3 147.7 184.7 135.3 207.8 136C231 136.7 254 150.3 277 152.8C300 155.3 323 146.7 346 144.2C369 141.7 392 145.3 415.2 145.8C438.3 146.3 461.7 143.7 484.8 145.5C508 147.3 531 153.7 554 154.8C577 156 600 152 623 151.8C646 151.7 669 155.3 692.2 149.5C715.3 143.7 738.7 128.3 761.8 126C785 123.7 808 134.3 831 141.8C854 149.3 877 153.7 888.5 155.8L900 158L900 0L888.5 0C877 0 854 0 831 0C808 0 785 0 761.8 0C738.7 0 715.3 0 692.2 0C669 0 646 0 623 0C600 0 577 0 554 0C531 0 508 0 484.8 0C461.7 0 438.3 0 415.2 0C392 0 369 0 346 0C323 0 300 0 277 0C254 0 231 0 207.8 0C184.7 0 161.3 0 138.2 0C115 0 92 0 69 0C46 0 23 0 11.5 0L0 0Z" fill="#dbd2fa"></path><path d="M0 100L11.5 100.8C23 101.7 46 103.3 69 104.5C92 105.7 115 106.3 138.2 108.7C161.3 111 184.7 115 207.8 114.5C231 114 254 109 277 110.5C300 112 323 120 346 123.7C369 127.3 392 126.7 415.2 126.5C438.3 126.3 461.7 126.7 484.8 122.7C508 118.7 531 110.3 554 107C577 103.7 600 105.3 623 108.3C646 111.3 669 115.7 692.2 113.2C715.3 110.7 738.7 101.3 761.8 96C785 90.7 808 89.3 831 91.2C854 93 877 98 888.5 100.5L900 103L900 0L888.5 0C877 0 854 0 831 0C808 0 785 0 761.8 0C738.7 0 715.3 0 692.2 0C669 0 646 0 623 0C600 0 577 0 554 0C531 0 508 0 484.8 0C461.7 0 438.3 0 415.2 0C392 0 369 0 346 0C323 0 300 0 277 0C254 0 231 0 207.8 0C184.7 0 161.3 0 138.2 0C115 0 92 0 69 0C46 0 23 0 11.5 0L0 0Z" fill="#b4a7f4"></path><path d="M0 85L11.5 82.7C23 80.3 46 75.7 69 73.2C92 70.7 115 70.3 138.2 72C161.3 73.7 184.7 77.3 207.8 79.2C231 81 254 81 277 80.5C300 80 323 79 346 76.7C369 74.3 392 70.7 415.2 70C438.3 69.3 461.7 71.7 484.8 71.2C508 70.7 531 67.3 554 65.5C577 63.7 600 63.3 623 65.7C646 68 669 73 692.2 72.8C715.3 72.7 738.7 67.3 761.8 64.5C785 61.7 808 61.3 831 61C854 60.7 877 60.3 888.5 60.2L900 60L900 0L888.5 0C877 0 854 0 831 0C808 0 785 0 761.8 0C738.7 0 715.3 0 692.2 0C669 0 646 0 623 0C600 0 577 0 554 0C531 0 508 0 484.8 0C461.7 0 438.3 0 415.2 0C392 0 369 0 346 0C323 0 300 0 277 0C254 0 231 0 207.8 0C184.7 0 161.3 0 138.2 0C115 0 92 0 69 0C46 0 23 0 11.5 0L0 0Z" fill="#897ded"></path><path d="M0 46L11.5 47.8C23 49.7 46 53.3 69 51C92 48.7 115 40.3 138.2 36.2C161.3 32 184.7 32 207.8 34.2C231 36.3 254 40.7 277 44.3C300 48 323 51 346 49.5C369 48 392 42 415.2 42.5C438.3 43 461.7 50 484.8 52.2C508 54.3 531 51.7 554 47.7C577 43.7 600 38.3 623 37.7C646 37 669 41 692.2 44.3C715.3 47.7 738.7 50.3 761.8 50.5C785 50.7 808 48.3 831 45.3C854 42.3 877 38.7 888.5 36.8L900 35L900 0L888.5 0C877 0 854 0 831 0C808 0 785 0 761.8 0C738.7 0 715.3 0 692.2 0C669 0 646 0 623 0C600 0 577 0 554 0C531 0 508 0 484.8 0C461.7 0 438.3 0 415.2 0C392 0 369 0 346 0C323 0 300 0 277 0C254 0 231 0 207.8 0C184.7 0 161.3 0 138.2 0C115 0 92 0 69 0C46 0 23 0 11.5 0L0 0Z" fill="#5155e5"></path></svg>