<svg width="241" height="50" fill="none" xmlns="http://www.w3.org/2000/svg"><path d="M19.333 31.158H7.383l-2.684 7.73H.82l10.893-29.62h3.29L25.915 38.89h-3.859l-2.723-7.731zM8.52 27.943h9.697l-4.858-13.855L8.52 27.943zm29.64-2.258c-3.227-.963-5.577-2.143-7.053-3.54-1.463-1.41-2.194-3.147-2.194-5.208 0-2.333.894-4.26 2.684-5.778 1.802-1.533 4.14-2.3 7.013-2.3 1.959 0 3.702.394 5.23 1.18 1.542.787 2.73 1.872 3.566 3.256a8.512 8.512 0 011.273 4.537H44.9c0-1.79-.55-3.194-1.646-4.212-1.097-1.03-2.645-1.546-4.643-1.546-1.855 0-3.304.427-4.35 1.282-1.03.84-1.547 2.014-1.547 3.52 0 1.207.49 2.23 1.47 3.072.992.827 2.67 1.587 5.034 2.278 2.377.692 4.232 1.458 5.564 2.3 1.345.827 2.338 1.796 2.977 2.909.653 1.112.98 2.42.98 3.926 0 2.4-.901 4.327-2.703 5.778-1.803 1.438-4.212 2.157-7.23 2.157-1.958 0-3.787-.387-5.484-1.16-1.698-.787-3.01-1.858-3.938-3.214-.914-1.357-1.371-2.896-1.371-4.619h3.78c0 1.79.634 3.208 1.9 4.252 1.28 1.031 2.985 1.547 5.114 1.547 1.985 0 3.506-.42 4.564-1.262 1.058-.84 1.587-1.987 1.587-3.438s-.49-2.57-1.47-3.357c-.979-.8-2.755-1.587-5.328-2.36zm22.665-.57l-3.487 3.764v10.01h-3.761V9.266h3.761v14.649L70.013 9.267h4.545L63.333 22.348l12.106 16.54h-4.505L60.825 25.116zm39.22-.081c0 2.902-.47 5.439-1.41 7.609-.941 2.157-2.273 3.804-3.997 4.944-1.724 1.14-3.735 1.709-6.034 1.709-2.246 0-4.238-.57-5.975-1.71-1.737-1.152-3.089-2.786-4.055-4.902-.953-2.13-1.443-4.591-1.47-7.386v-2.136c0-2.848.477-5.364 1.43-7.548.954-2.184 2.3-3.852 4.036-5.005 1.75-1.166 3.749-1.75 5.995-1.75 2.285 0 4.297.577 6.034 1.73 1.75 1.14 3.095 2.8 4.035 4.984.94 2.17 1.411 4.7 1.411 7.59v1.87zm-3.742-1.912c0-3.513-.679-6.206-2.037-8.078-1.359-1.885-3.259-2.828-5.701-2.828-2.377 0-4.251.943-5.622 2.829-1.359 1.871-2.057 4.475-2.097 7.812v2.177c0 3.404.686 6.083 2.057 8.036 1.385 1.94 3.285 2.91 5.701 2.91 2.43 0 4.31-.916 5.642-2.747 1.332-1.845 2.018-4.483 2.057-7.914v-2.197zm14.242-13.855l9.325 24.17 9.325-24.17h4.878v29.622h-3.761V27.353l.352-12.45-9.364 23.986h-2.879l-9.345-23.926.372 12.39V38.89h-3.761V9.266h4.858zm46.272 21.891h-11.95l-2.684 7.73h-3.878l10.892-29.621h3.291L163.4 38.889h-3.86l-2.723-7.731zm-10.813-3.215h9.697l-4.859-13.855-4.838 13.855zm31.697-1.037h-6.7v11.983h-3.781V9.266h9.442c3.213 0 5.681.76 7.405 2.28 1.737 1.518 2.606 3.73 2.606 6.632 0 1.844-.483 3.451-1.45 4.821-.953 1.37-2.285 2.394-3.996 3.073l6.7 12.573v.244h-4.036l-6.19-11.983zm-6.7-3.194h5.779c1.867 0 3.35-.502 4.447-1.506 1.11-1.004 1.665-2.346 1.665-4.028 0-1.831-.529-3.235-1.587-4.212-1.045-.976-2.56-1.471-4.545-1.485h-5.759v11.23zm42.902 1.322c0 2.902-.47 5.439-1.41 7.609-.94 2.157-2.273 3.804-3.997 4.944-1.724 1.14-3.735 1.709-6.033 1.709-2.247 0-4.238-.57-5.975-1.71-1.737-1.152-3.089-2.786-4.056-4.902-.953-2.13-1.443-4.591-1.469-7.386v-2.136c0-2.848.477-5.364 1.43-7.548.954-2.184 2.299-3.852 4.036-5.005 1.75-1.166 3.748-1.75 5.994-1.75 2.286 0 4.297.577 6.034 1.73 1.75 1.14 3.096 2.8 4.036 4.984.94 2.17 1.41 4.7 1.41 7.59v1.87zm-3.741-1.912c0-3.513-.68-6.206-2.038-8.078-1.358-1.885-3.258-2.828-5.701-2.828-2.376 0-4.251.943-5.622 2.829-1.358 1.871-2.057 4.475-2.096 7.812v2.177c0 3.404.686 6.083 2.057 8.036 1.384 1.94 3.285 2.91 5.701 2.91 2.429 0 4.309-.916 5.642-2.747 1.332-1.845 2.017-4.483 2.057-7.914v-2.197zM228.557 33.7l8.149-24.434h4.114L230.242 38.89h-3.331L216.352 9.266h4.094l8.111 24.435z" fill="#000"/><path d="M87.93 40.762a3.284 3.284 0 00-2.41-1.064H38.645c-.915 0-1.79.389-2.42 1.077l-7.479 8.148A3.285 3.285 0 0126.325 50H6.038c-3.029 0-4.496-3.849-2.289-6.003L47.876.942A3.277 3.277 0 0150.166 0h23.64c.847 0 1.663.334 2.282.935l44.371 43.056c2.217 2.15.751 6.009-2.282 6.009H97.914a3.284 3.284 0 01-2.408-1.064l-7.577-8.174zM50.23 25.49c-2.022 2.212-.513 5.863 2.425 5.863H71.44c2.946 0 4.452-3.67 2.412-5.877l-9.444-10.215a3.258 3.258 0 00-4.836.013l-9.34 10.216z" fill="#000" fill-opacity=".76"/><path d="M209.036 36.564c0-1.894-1.888-3.342-5.664-4.345-3.776-1.025-10.573-2.094-20.392-3.208-9.818-1.137-17.59-2.25-23.318-3.343-15.608-2.985-23.412-7.007-23.412-12.065 0-2.63 2.077-4.969 6.231-7.019 4.216-2.072 10.227-3.687 18.031-4.846C168.379.579 177.19 0 186.945 0c9.819 0 18.567.635 26.245 1.905 7.678 1.248 13.626 3.02 17.843 5.314 2.612 1.401 4.427 2.918 5.445 4.551 1.003 1.61-.523 3.27-2.369 3.27h-21.635c-1.846 0-3.422-1.745-4.839-2.974-.992-.86-2.475-1.596-4.452-2.206-3.965-1.248-9.535-1.872-16.71-1.872-6.923 0-12.304.524-16.143 1.57-3.839 1.026-5.759 2.385-5.759 4.078 0 1.582 2.235 2.908 6.703 3.978 4.532 1.07 11.171 2.072 19.92 3.008 16.111 1.715 27.849 3.843 35.213 6.383 7.363 2.54 11.045 5.704 11.045 9.492 0 4.212-4.5 7.52-13.5 9.927-9 2.384-21.115 3.576-36.346 3.576-10.573 0-20.202-.68-28.888-2.039-8.685-1.381-15.325-3.264-19.919-5.648-2.874-1.512-4.836-3.176-5.888-4.993-.951-1.644.588-3.296 2.434-3.296h21.729c1.847 0 3.335 1.736 4.62 3.112 3.077 3.295 11.714 4.943 25.912 4.943 6.735 0 11.99-.48 15.766-1.437 3.776-.98 5.664-2.34 5.664-4.078z" fill="#000"/></svg>