<svg width="1920" height="5334" viewBox="0 0 1920 5334" fill="none" xmlns="http://www.w3.org/2000/svg">
<path fill-rule="evenodd" clip-rule="evenodd" d="M702.601 626.788C671.516 578.391 605.142 575.343 548.592 565.226C497.958 556.168 445.06 547.286 400.409 572.727C355.118 598.531 321.437 645.596 316.348 697.548C311.732 744.68 356.383 777.475 376.136 820.555C400.695 874.117 391.195 950.726 444.198 976.382C499.428 1003.12 566.879 972.763 616.583 936.941C662.329 903.971 680.99 849.244 696.076 794.85C711.644 738.717 734.117 675.857 702.601 626.788Z" stroke="white" stroke-width="2"/>
<path fill-rule="evenodd" clip-rule="evenodd" d="M1647.1 43.0668C1711.21 45.3321 1751.92 107.322 1793.81 155.852C1831.32 199.305 1869.95 245.032 1870.97 302.401C1872 360.591 1846.04 419.749 1799.11 454.24C1756.53 485.531 1699.66 461.35 1647.1 466.934C1581.75 473.878 1513.68 526.656 1458.9 490.386C1401.83 452.594 1392.54 370.536 1398.6 302.401C1404.18 239.69 1446.05 190.586 1489.63 145.104C1534.6 98.1683 1582.1 40.77 1647.1 43.0668Z" stroke="white" stroke-width="2"/>
<path fill-rule="evenodd" clip-rule="evenodd" d="M1607.95 1061.56C1640.8 1039.35 1683.68 1055.45 1722.25 1064.41C1756.8 1072.43 1792.72 1081.18 1814.09 1109.43C1835.77 1138.08 1844.32 1177.05 1833.42 1211.35C1823.53 1242.46 1786.33 1251.11 1762.11 1273.03C1731.99 1300.29 1717.18 1351.41 1676.63 1353.26C1634.37 1355.19 1599.89 1317.63 1578.14 1281.43C1558.12 1248.11 1561.17 1208.37 1566.4 1169.81C1571.8 1130.01 1574.65 1084.08 1607.95 1061.56Z" stroke="white" stroke-width="2"/>
<path fill-rule="evenodd" clip-rule="evenodd" d="M1500.95 2296.04C1549.15 2299.81 1591.86 2321.03 1635.41 2342.02C1684.94 2365.89 1743 2380.88 1772.83 2427.07C1803.97 2475.31 1810.32 2537.86 1798.04 2593.95C1786.15 2648.27 1736.77 2682.72 1706.63 2729.45C1670.23 2785.88 1666.46 2876.64 1602.51 2897.12C1538.94 2917.47 1483.83 2845.39 1421.86 2820.61C1367.24 2798.77 1301.78 2801.41 1259.9 2760.11C1216.88 2717.7 1201.4 2655.33 1193.51 2595.44C1185.68 2536.05 1185.28 2472.62 1215.19 2420.73C1244.09 2370.56 1299.21 2343.04 1352.28 2319.89C1399.23 2299.4 1449.88 2292.05 1500.95 2296.04Z" stroke="white" stroke-width="2"/>
<path fill-rule="evenodd" clip-rule="evenodd" d="M381.477 2244.07C347.613 2240.58 315.342 2249.89 282.515 2258.93C245.179 2269.22 203.058 2272.26 176.547 2300.53C148.862 2330.04 136.536 2372.61 137.934 2413.06C139.288 2452.24 169.128 2482.38 184.084 2518.6C202.144 2562.34 193.253 2625.77 234.958 2648.06C276.414 2670.22 323.722 2627.21 369.794 2617.87C410.395 2609.63 455.405 2619.75 489.652 2596.41C524.822 2572.44 543.453 2531.15 556.508 2490.61C569.452 2450.42 577.767 2406.48 563.629 2366.71C549.963 2328.26 515.272 2302.2 481.444 2279.42C451.515 2259.27 417.362 2247.77 381.477 2244.07Z" stroke="white" stroke-width="2"/>
<path fill-rule="evenodd" clip-rule="evenodd" d="M405.399 4144.84C366.835 4147.85 332.665 4164.84 297.819 4181.65C258.188 4200.76 211.729 4212.77 187.869 4249.76C162.951 4288.38 157.868 4338.46 167.693 4383.38C177.209 4426.88 216.718 4454.46 240.834 4491.88C269.954 4537.07 272.97 4609.75 324.138 4626.14C375.002 4642.43 419.096 4584.72 468.685 4564.88C512.386 4547.39 564.762 4549.5 598.274 4516.43C632.69 4482.47 645.081 4432.53 651.394 4384.57C657.653 4337.02 657.974 4286.23 634.047 4244.67C610.918 4204.5 566.82 4182.47 524.358 4163.93C486.788 4147.52 446.264 4141.64 405.399 4144.84Z" stroke="white" stroke-width="2"/>
<path fill-rule="evenodd" clip-rule="evenodd" d="M1342.83 3492.11C1376.28 3482.98 1410.25 3486.97 1444.74 3490.61C1483.97 3494.74 1526.8 3490.81 1558.14 3514.81C1590.86 3539.87 1610.33 3580.61 1615.65 3621.5C1620.8 3661.1 1595.82 3696.35 1586.82 3735.24C1575.94 3782.2 1595.42 3844.47 1557.22 3873.8C1519.24 3902.96 1464.56 3867.59 1416.71 3865.86C1374.54 3864.33 1331 3881.97 1292.7 3864.2C1253.38 3845.95 1227.79 3807.55 1207.93 3768.97C1188.25 3730.73 1172.59 3687.95 1180.18 3645.62C1187.52 3604.71 1218.05 3572.75 1248.25 3544.24C1274.98 3519.02 1307.38 3501.78 1342.83 3492.11Z" stroke="white" stroke-width="2"/>
<path fill-rule="evenodd" clip-rule="evenodd" d="M1551.54 1704.94C1590.28 1756.07 1567.93 1826.79 1556.77 1889.92C1546.78 1946.44 1535.72 2005.28 1491.89 2042.3C1447.43 2079.86 1385.17 2097.09 1328.78 2082.49C1277.63 2069.25 1260.46 2009.89 1222.93 1972.66C1176.27 1926.38 1092.36 1906.95 1085.88 1841.57C1079.13 1773.45 1136.88 1714.42 1193.53 1676.09C1245.67 1640.8 1310.19 1642.24 1372.97 1647.3C1437.77 1652.53 1512.27 1653.09 1551.54 1704.94Z" stroke="white" stroke-width="2"/>
<path fill-rule="evenodd" clip-rule="evenodd" d="M673.14 1729.25C638.269 1737.4 607.279 1709.95 577.618 1689.93C551.059 1672 523.565 1653.01 514.633 1622.25C505.573 1591.05 510.917 1555.38 531.16 1529.94C549.525 1506.87 583.698 1511.58 611.199 1500.89C645.392 1487.6 674.35 1449.22 709.162 1460.76C745.436 1472.78 762.43 1515.63 769.12 1553.22C775.278 1587.82 759.899 1620.4 743.066 1651.27C725.695 1683.13 708.495 1720.99 673.14 1729.25Z" stroke="white" stroke-width="2"/>
<path fill-rule="evenodd" clip-rule="evenodd" d="M483.013 3344.44C527.048 3331.26 575.525 3349.28 614.286 3373.93C654.637 3399.58 690.197 3436.89 701.356 3483.27C712.158 3528.17 697.901 3576.75 672.349 3615.27C650.243 3648.59 609.592 3661.27 572.78 3677.08C543.95 3689.46 514.245 3693.41 483.013 3696.58C447.627 3700.17 408.921 3715.77 378.918 3696.73C348.673 3677.54 345.33 3636.11 334.177 3602.15C322.996 3568.11 300.901 3532.6 314.056 3499.26C327.115 3466.18 372.523 3462.52 398.787 3438.45C430.595 3409.3 441.627 3356.84 483.013 3344.44Z" stroke="white" stroke-width="2"/>
<path fill-rule="evenodd" clip-rule="evenodd" d="M1393.46 4109.25C1370.16 4099.6 1344.51 4112.8 1324 4130.84C1302.65 4149.63 1283.83 4176.95 1277.93 4210.91C1272.21 4243.79 1279.76 4279.36 1293.28 4307.56C1304.97 4331.96 1326.48 4341.25 1345.96 4352.82C1361.21 4361.89 1376.93 4364.78 1393.46 4367.1C1412.18 4369.73 1432.66 4381.15 1448.53 4367.21C1464.54 4353.16 1466.31 4322.82 1472.21 4297.96C1478.12 4273.03 1489.81 4247.03 1482.85 4222.62C1475.94 4198.39 1451.92 4195.71 1438.02 4178.09C1421.19 4156.75 1415.35 4118.33 1393.46 4109.25Z" stroke="white" stroke-width="2"/>
<path fill-rule="evenodd" clip-rule="evenodd" d="M1607.24 4919.65C1630.67 4910.32 1639.85 4882.98 1641.97 4855.74C1644.16 4827.39 1638.6 4794.69 1619.14 4766.23C1600.31 4738.68 1570.1 4718.45 1540.74 4707.66C1515.34 4698.34 1493.45 4706.68 1471.42 4711.97C1454.16 4716.11 1440.88 4725 1427.42 4734.86C1412.17 4746.03 1389.52 4752.13 1387.87 4773.19C1386.2 4794.42 1406.09 4817.4 1419.2 4839.33C1432.34 4861.32 1442.1 4888.11 1464.11 4900.75C1485.96 4913.3 1505.05 4898.46 1527.3 4901.4C1554.24 4904.96 1585.22 4928.42 1607.24 4919.65Z" stroke="white" stroke-width="2"/>
<g clip-path="url(#clip0)">
<path fill-rule="evenodd" clip-rule="evenodd" d="M228.241 5301.65C251.672 5292.32 260.852 5264.98 262.965 5237.74C265.165 5209.39 259.597 5176.69 240.143 5148.23C221.311 5120.68 191.097 5100.45 161.74 5089.66C136.342 5080.33 114.448 5088.68 92.416 5093.97C75.161 5098.11 61.8789 5106.99 48.4189 5116.86C33.1685 5128.03 10.5244 5134.13 8.8673 5155.19C7.19688 5176.42 27.0886 5199.4 40.1987 5221.33C53.3422 5243.32 63.0997 5270.11 85.1104 5282.75C106.959 5295.3 126.047 5280.46 148.296 5283.4C175.242 5286.96 206.219 5310.42 228.241 5301.65Z" stroke="white" stroke-opacity="0.11" stroke-width="2"/>
<path fill-rule="evenodd" clip-rule="evenodd" d="M199.54 5266.84C217.382 5259.74 224.371 5238.92 225.98 5218.18C227.655 5196.59 223.415 5171.69 208.603 5150.02C194.264 5129.05 171.258 5113.64 148.904 5105.43C129.566 5098.33 112.896 5104.68 96.1194 5108.71C82.981 5111.86 72.8677 5118.63 62.6188 5126.14C51.0067 5134.65 33.7649 5139.29 32.5032 5155.32C31.2313 5171.49 46.3774 5188.98 56.3597 5205.68C66.3676 5222.43 73.7972 5242.83 90.5568 5252.45C107.192 5262 121.727 5250.71 138.668 5252.94C159.186 5255.65 182.772 5273.52 199.54 5266.84Z" stroke="white" stroke-opacity="0.11" stroke-width="2"/>
<path fill-rule="evenodd" clip-rule="evenodd" d="M275.548 5324.54C308.373 5311.47 321.232 5273.17 324.192 5235.01C327.273 5195.29 319.473 5149.48 292.221 5109.62C265.841 5071.03 223.516 5042.69 182.391 5027.58C146.812 5014.51 116.143 5026.2 85.2792 5033.61C61.1076 5039.41 42.5014 5051.86 23.6459 5065.68C2.28251 5081.33 -29.4383 5089.87 -31.7597 5119.37C-34.0997 5149.11 -6.23441 5181.3 12.1307 5212.03C30.5427 5242.83 44.2116 5280.36 75.0452 5298.07C105.651 5315.64 132.391 5294.86 163.558 5298.97C201.306 5303.96 244.699 5336.83 275.548 5324.54Z" stroke="white" stroke-opacity="0.11" stroke-width="2"/>
<path fill-rule="evenodd" clip-rule="evenodd" d="M333.695 5382.34C375.99 5365.5 392.56 5316.14 396.374 5266.98C400.344 5215.8 390.294 5156.77 355.178 5105.41C321.187 5055.68 266.649 5019.16 213.657 4999.7C167.813 4982.86 128.295 4997.92 88.5256 5007.46C57.3797 5014.94 33.4049 5030.98 9.10891 5048.78C-18.4187 5068.95 -59.2922 5079.96 -62.2833 5117.97C-65.2985 5156.29 -29.393 5197.77 -5.72885 5237.36C17.9957 5277.05 35.6085 5325.41 75.3387 5348.23C114.775 5370.87 149.23 5344.09 189.391 5349.4C238.031 5355.82 293.944 5398.17 333.695 5382.34Z" stroke="white" stroke-opacity="0.11" stroke-width="2"/>
</g>
<g clip-path="url(#clip1)">
<path fill-rule="evenodd" clip-rule="evenodd" d="M1925.34 5348.26C1941.1 5316.74 1925.24 5279.69 1902.11 5249.32C1878.04 5217.71 1841.82 5188.79 1795.07 5177.2C1749.82 5165.99 1699.5 5172.99 1658.86 5189.04C1623.7 5202.94 1608.63 5232 1590.57 5258C1576.43 5278.36 1570.84 5299.98 1565.98 5322.78C1560.47 5348.62 1542.52 5376.03 1560.38 5399.53C1578.38 5423.23 1620.49 5428.69 1654.56 5439.37C1688.72 5450.08 1723.8 5468.94 1758.51 5461.65C1792.96 5454.42 1799.07 5421.2 1825 5403.57C1856.41 5382.22 1910.53 5377.88 1925.34 5348.26Z" stroke="white" stroke-opacity="0.11" stroke-width="2"/>
<path fill-rule="evenodd" clip-rule="evenodd" d="M1970.86 5308.89C1989.5 5274.47 1970.24 5233.76 1942.34 5200.32C1913.28 5165.51 1869.71 5133.56 1813.66 5120.53C1759.39 5107.91 1699.2 5115.22 1650.65 5132.52C1608.66 5147.48 1590.83 5179.21 1569.39 5207.57C1552.61 5229.78 1546.08 5253.43 1540.42 5278.38C1534.01 5306.64 1512.73 5336.55 1534.28 5362.43C1556 5388.52 1606.46 5394.81 1647.32 5406.76C1688.29 5418.74 1730.44 5439.66 1771.94 5431.92C1813.13 5424.24 1820.2 5387.89 1851.12 5368.77C1888.57 5345.6 1953.34 5341.24 1970.86 5308.89Z" stroke="white" stroke-opacity="0.11" stroke-width="2"/>
<path fill-rule="evenodd" clip-rule="evenodd" d="M1863.04 5338.65C1875.04 5314.65 1862.97 5286.44 1845.36 5263.32C1827.03 5239.25 1799.45 5217.23 1763.85 5208.4C1729.4 5199.87 1691.08 5205.2 1660.13 5217.42C1633.36 5228 1621.89 5250.12 1608.14 5269.92C1597.37 5285.43 1593.12 5301.89 1589.41 5319.25C1585.22 5338.93 1571.55 5359.8 1585.15 5377.69C1598.86 5395.73 1630.92 5399.89 1656.86 5408.03C1682.87 5416.18 1709.59 5430.54 1736.01 5424.99C1762.24 5419.48 1766.89 5394.19 1786.64 5380.77C1810.56 5364.51 1851.76 5361.21 1863.04 5338.65Z" stroke="white" stroke-opacity="0.11" stroke-width="2"/>
<path fill-rule="evenodd" clip-rule="evenodd" d="M1995.96 5328.14C2018.03 5283.98 1995.82 5232.08 1963.42 5189.54C1929.7 5145.26 1878.97 5104.74 1813.48 5088.51C1750.08 5072.8 1679.59 5082.61 1622.66 5105.1C1573.4 5124.56 1552.29 5165.27 1527 5201.69C1507.19 5230.22 1499.36 5260.51 1492.55 5292.45C1484.83 5328.64 1459.69 5367.04 1484.71 5399.96C1509.92 5433.15 1568.91 5440.81 1616.64 5455.77C1664.48 5470.77 1713.64 5497.19 1762.26 5486.98C1810.51 5476.84 1819.07 5430.31 1855.4 5405.62C1899.4 5375.71 1975.21 5369.63 1995.96 5328.14Z" stroke="white" stroke-opacity="0.11" stroke-width="2"/>
<path fill-rule="evenodd" clip-rule="evenodd" d="M2119.34 5340.7C2147.79 5283.81 2119.16 5216.93 2077.42 5162.11C2033.97 5105.05 1968.6 5052.85 1884.21 5031.94C1802.52 5011.69 1711.69 5024.33 1638.33 5053.31C1574.87 5078.38 1547.66 5130.84 1515.07 5177.77C1489.54 5214.53 1479.46 5253.56 1470.68 5294.71C1460.73 5341.35 1428.34 5390.83 1460.58 5433.25C1493.07 5476.02 1569.08 5485.88 1630.58 5505.16C1692.23 5524.49 1755.56 5558.54 1818.21 5545.38C1880.39 5532.32 1891.42 5472.35 1938.23 5440.54C1994.92 5402 2092.61 5394.17 2119.34 5340.7Z" stroke="white" stroke-opacity="0.11" stroke-width="2"/>
</g>
<circle cx="473.853" cy="1661.85" r="113" transform="rotate(83.6225 473.853 1661.85)" fill="url(#paint0_radial)" fill-opacity="0.3"/>
<circle cx="1203.85" cy="3022.85" r="113" transform="rotate(9.72199 1203.85 3022.85)" fill="url(#paint1_radial)" fill-opacity="0.4"/>
<circle cx="1432.59" cy="3671.59" r="146.894" transform="rotate(9.72199 1432.59 3671.59)" fill="url(#paint2_radial)" fill-opacity="0.1"/>
<circle cx="542.008" cy="4161.01" r="107.413" transform="rotate(-78.2692 542.008 4161.01)" fill="url(#paint3_radial)" fill-opacity="0.4"/>
<circle cx="1440.01" cy="4168.01" r="25.4158" transform="rotate(176.278 1440.01 4168.01)" fill="url(#paint4_radial)" fill-opacity="0.4"/>
<circle cx="174.678" cy="4498.68" r="66.3878" transform="rotate(176.278 174.678 4498.68)" fill="url(#paint5_radial)" fill-opacity="0.4"/>
<circle cx="1639.55" cy="4778.18" r="88.0627" transform="rotate(-96.3654 1639.55 4778.18)" fill="url(#paint6_radial)" fill-opacity="0.4"/>
<circle cx="1222.89" cy="2702.89" r="25.4158" transform="rotate(5.88953 1222.89 2702.89)" fill="url(#paint7_radial)" fill-opacity="0.4"/>
<circle cx="1168.01" cy="1517.01" r="25.4158" transform="rotate(176.278 1168.01 1517.01)" fill="url(#paint8_radial)" fill-opacity="0.4"/>
<circle cx="296.012" cy="505.012" r="25.4158" transform="rotate(14.1047 296.012 505.012)" fill="url(#paint9_radial)" fill-opacity="0.4"/>
<circle cx="623.438" cy="3275.44" r="154.721" transform="rotate(176.278 623.438 3275.44)" fill="url(#paint10_radial)" fill-opacity="0.4"/>
<circle cx="371" cy="951" r="186" fill="url(#paint11_radial)" fill-opacity="0.4"/>
<circle cx="588.035" cy="511.804" r="117.957" transform="rotate(-174.464 588.035 511.804)" fill="url(#paint12_radial)" fill-opacity="0.4"/>
<circle cx="1617.24" cy="77.2419" r="58.7122" transform="rotate(66.5229 1617.24 77.2419)" fill="url(#paint13_radial)" fill-opacity="0.4"/>
<circle cx="1670.53" cy="1288.05" r="113" transform="rotate(83.6225 1670.53 1288.05)" fill="url(#paint14_radial)" fill-opacity="0.4"/>
<circle cx="315.5" cy="2583.5" r="83.5" transform="rotate(165.91 315.5 2583.5)" fill="url(#paint15_radial)" fill-opacity="0.4"/>
<circle cx="1158.5" cy="2054.5" r="196.5" fill="url(#paint16_radial)" fill-opacity="0.4"/>
<defs>
<radialGradient id="paint0_radial" cx="0" cy="0" r="1" gradientUnits="userSpaceOnUse" gradientTransform="translate(508.357 1719.36) rotate(-125.724) scale(195.503)">
<stop stop-color="#FFAC71"/>
<stop offset="1" stop-color="#FFAC71" stop-opacity="0"/>
</radialGradient>
<radialGradient id="paint1_radial" cx="0" cy="0" r="1" gradientUnits="userSpaceOnUse" gradientTransform="translate(1238.36 3080.36) rotate(-125.724) scale(195.503)">
<stop stop-color="#FFAC71"/>
<stop offset="1" stop-color="#FFAC71" stop-opacity="0"/>
</radialGradient>
<radialGradient id="paint2_radial" cx="0" cy="0" r="1" gradientUnits="userSpaceOnUse" gradientTransform="translate(1477.44 3746.34) rotate(-125.724) scale(254.143)">
<stop stop-color="#FFAC71"/>
<stop offset="1" stop-color="#FFAC71" stop-opacity="0"/>
</radialGradient>
<radialGradient id="paint3_radial" cx="0" cy="0" r="1" gradientUnits="userSpaceOnUse" gradientTransform="translate(574.806 4215.67) rotate(-125.724) scale(185.837)">
<stop stop-color="#FFAC71"/>
<stop offset="1" stop-color="#FFAC71" stop-opacity="0"/>
</radialGradient>
<radialGradient id="paint4_radial" cx="0" cy="0" r="1" gradientUnits="userSpaceOnUse" gradientTransform="translate(1447.77 4180.95) rotate(-125.724) scale(43.9723)">
<stop stop-color="#FFAC71"/>
<stop offset="1" stop-color="#FFAC71" stop-opacity="0"/>
</radialGradient>
<radialGradient id="paint5_radial" cx="0" cy="0" r="1" gradientUnits="userSpaceOnUse" gradientTransform="translate(194.949 4532.46) rotate(-125.724) scale(114.859)">
<stop stop-color="#FFAC71"/>
<stop offset="1" stop-color="#FFAC71" stop-opacity="0"/>
</radialGradient>
<radialGradient id="paint6_radial" cx="0" cy="0" r="1" gradientUnits="userSpaceOnUse" gradientTransform="translate(1666.44 4822.99) rotate(-125.724) scale(152.359)">
<stop stop-color="#FFAC71"/>
<stop offset="1" stop-color="#FFAC71" stop-opacity="0"/>
</radialGradient>
<radialGradient id="paint7_radial" cx="0" cy="0" r="1" gradientUnits="userSpaceOnUse" gradientTransform="translate(1230.65 2715.82) rotate(-125.724) scale(43.9723)">
<stop stop-color="#FFAC71"/>
<stop offset="1" stop-color="#FFAC71" stop-opacity="0"/>
</radialGradient>
<radialGradient id="paint8_radial" cx="0" cy="0" r="1" gradientUnits="userSpaceOnUse" gradientTransform="translate(1175.77 1529.95) rotate(-125.724) scale(43.9723)">
<stop stop-color="#FFAC71"/>
<stop offset="1" stop-color="#FFAC71" stop-opacity="0"/>
</radialGradient>
<radialGradient id="paint9_radial" cx="0" cy="0" r="1" gradientUnits="userSpaceOnUse" gradientTransform="translate(303.773 517.946) rotate(-125.724) scale(43.9723)">
<stop stop-color="#FFAC71"/>
<stop offset="1" stop-color="#FFAC71" stop-opacity="0"/>
</radialGradient>
<radialGradient id="paint10_radial" cx="0" cy="0" r="1" gradientUnits="userSpaceOnUse" gradientTransform="translate(670.681 3354.18) rotate(-125.724) scale(267.685)">
<stop stop-color="#FFAC71"/>
<stop offset="1" stop-color="#FFAC71" stop-opacity="0"/>
</radialGradient>
<radialGradient id="paint11_radial" cx="0" cy="0" r="1" gradientUnits="userSpaceOnUse" gradientTransform="translate(427.794 1045.66) rotate(-125.724) scale(321.802)">
<stop stop-color="#FFAC71"/>
<stop offset="1" stop-color="#FFAC71" stop-opacity="0"/>
</radialGradient>
<radialGradient id="paint12_radial" cx="0" cy="0" r="1" gradientUnits="userSpaceOnUse" gradientTransform="translate(624.053 571.833) rotate(-125.724) scale(204.079)">
<stop stop-color="#FFAC71"/>
<stop offset="1" stop-color="#FFAC71" stop-opacity="0"/>
</radialGradient>
<radialGradient id="paint13_radial" cx="0" cy="0" r="1" gradientUnits="userSpaceOnUse" gradientTransform="translate(1635.17 107.121) rotate(-125.724) scale(101.579)">
<stop stop-color="#FFAC71"/>
<stop offset="1" stop-color="#FFAC71" stop-opacity="0"/>
</radialGradient>
<radialGradient id="paint14_radial" cx="0" cy="0" r="1" gradientUnits="userSpaceOnUse" gradientTransform="translate(1705.04 1345.55) rotate(-125.724) scale(195.503)">
<stop stop-color="#FFAC71"/>
<stop offset="1" stop-color="#FFAC71" stop-opacity="0"/>
</radialGradient>
<radialGradient id="paint15_radial" cx="0" cy="0" r="1" gradientUnits="userSpaceOnUse" gradientTransform="translate(340.996 2625.99) rotate(-125.724) scale(144.465)">
<stop stop-color="#FFAC71"/>
<stop offset="1" stop-color="#FFAC71" stop-opacity="0"/>
</radialGradient>
<radialGradient id="paint16_radial" cx="0" cy="0" r="1" gradientUnits="userSpaceOnUse" gradientTransform="translate(1218.5 2154.5) rotate(-125.724) scale(339.968)">
<stop stop-color="#FFAC71"/>
<stop offset="1" stop-color="#FFAC71" stop-opacity="0"/>
</radialGradient>
<clipPath id="clip0">
<rect width="490" height="274" fill="white" transform="translate(0 5060)"/>
</clipPath>
<clipPath id="clip1">
<rect width="836" height="274" fill="white" transform="translate(1353 5060)"/>
</clipPath>
</defs>
</svg>
