<svg width="11" height="11" viewBox="0 0 11 11" fill="none" xmlns="http://www.w3.org/2000/svg">
<path fill-rule="evenodd" clip-rule="evenodd" d="M1 1.70867e-06C0.734784 1.70867e-06 0.48043 0.105358 0.292893 0.292895C0.105357 0.480431 0 0.734785 0 1V10C0 10.2652 0.105357 10.5196 0.292893 10.7071C0.48043 10.8946 0.734784 11 1 11H10C10.2652 11 10.5196 10.8946 10.7071 10.7071C10.8946 10.5196 11 10.2652 11 10V6.5C11 6.36739 10.9473 6.24022 10.8536 6.14645C10.7598 6.05268 10.6326 6 10.5 6C10.3674 6 10.2402 6.05268 10.1464 6.14645C10.0527 6.24022 10 6.36739 10 6.5V10H1V1H4.5C4.63261 1 4.75979 0.947323 4.85355 0.853555C4.94732 0.759787 5 0.63261 5 0.500002C5 0.367393 4.94732 0.240217 4.85355 0.146448C4.75979 0.0526802 4.63261 1.70867e-06 4.5 1.70867e-06H1ZM10.854 0.146002C10.947 0.239216 10.9994 0.365343 11 0.497002V3.5C11 3.63261 10.9473 3.75979 10.8536 3.85355C10.7598 3.94732 10.6326 4 10.5 4C10.3674 4 10.2402 3.94732 10.1464 3.85355C10.0527 3.75979 10 3.63261 10 3.5V1.707L4.854 6.854C4.80751 6.90049 4.75232 6.93737 4.69158 6.96253C4.63084 6.98768 4.56574 7.00063 4.5 7.00063C4.43426 7.00063 4.36916 6.98768 4.30842 6.96253C4.24768 6.93737 4.19249 6.90049 4.146 6.854C4.09951 6.80751 4.06264 6.75233 4.03748 6.69159C4.01232 6.63085 3.99937 6.56575 3.99937 6.5C3.99937 6.43426 4.01232 6.36916 4.03748 6.30842C4.06264 6.24768 4.09951 6.19249 4.146 6.146L9.293 1H7.5C7.36739 1 7.24021 0.947323 7.14645 0.853555C7.05268 0.759787 7 0.63261 7 0.500002C7 0.367393 7.05268 0.240217 7.14645 0.146448C7.24021 0.0526802 7.36739 1.70867e-06 7.5 1.70867e-06H10.5C10.5657 -0.00017025 10.6308 0.0126387 10.6916 0.0376935C10.7523 0.0627483 10.8075 0.0995554 10.854 0.146002Z" fill="black"/>
</svg>
