<svg width="128" height="29" fill="none" xmlns="http://www.w3.org/2000/svg"><g clip-path="url(#clip0)" fill-rule="evenodd" clip-rule="evenodd"><path d="M122.429 2.162l5.355.029s-9.956 13.491-10.769 14.59c-.264.357-.665.74-.868 1.216-.514 1.197-1.042 3.822-1.042 3.822l-4.9.024s.762-2.736.731-4.193c-.028-1.273-.678-2.544-1.042-3.821-.369-1.293-.869-3.822-.869-3.822h5.038l.694 2.78 7.672-10.626" fill="#1A1918"/><path d="M112.289 5.007c.988.595 1.595 3.882 1.595 3.882s-5.171.076-7.985.076h-2.432l-2.953 12.854h-4.516s2.81-13.969 3.474-16.501c.215-.82 1.473-.68 3.597-.68h3.393c2.19 0 4.75-.28 5.827.369m-21.024 6.26s.14-.825-.478-1.78c-.528-.815-1.016-1.005-2.405-1.048-3.924-.123-3.848 2.784-3.848 2.784l6.731.044zm4.255-3.33c.576 2.074-.52 6.948-.52 6.948s-5.724-.096-8.859 0c-.975.03-2.142-.106-2.432.347-.408.636.15 1.614.622 2.027.544.476 1.603.53 1.984.578 2.544.324 7.87.084 7.87.084l-.923 4.085s-7.525.378-11.29-.521c-.743-.177-1.44-.535-1.91-1.042-.129-.139-.24-.328-.362-.492-.097-.13-.38-.559-.507-.898-.86-2.29.1-6.68 1.042-9.032.11-.272.247-.618.391-.912.18-.366.334-.78.478-.998.097-.151.217-.249.318-.391.116-.169.251-.332.377-.478.347-.403.741-.688 1.215-1.042 1.569-1.174 4.407-2.086 7.817-1.737 1.284.132 3.222.59 4.168 1.91.254.353.38 1.053.522 1.564zM74.807 4.622l4.38-.025s-2.441 11.576-3.685 17.222h-5.037c-3.521 0-6.656.436-7.99-2.085-1.294-2.447-.06-6.472.52-9.206.41-1.935 1.274-5.89 1.274-5.89l4.537-.041s-1.282 6.157-1.815 9.232c-.191 1.101-.585 2.138-.174 2.952.391.775.938.83 2.606.869.528.013 2.258 0 2.258 0l3.126-13.028M54.311 12.96c.459-1.629 1.127-3.395 1.042-4.863-.092-1.57-1.408-3-2.258-3.3-2.558-.904-4.953.359-5.905 1.389-1.232 1.334-1.649 2.892-2.085 5.037-.324 1.593-.59 3.274 0 4.516 1.046 2.196 4.306 1.716 7.817 1.738.52-1.397.951-2.966 1.389-4.517zm6.08-6.426c.5 3.637-1.42 7.651-2.741 11.142 1.348.122 2.529-.019 2.614.082.088.13-.904 4.167-1.25 4.177-1.07.028-4.614.058-6.093.058-4.823 0-9.336.314-11.637-2.085-.934-.974-1.58-2.646-1.737-3.821-.26-1.963.066-4.124.521-5.906.412-1.608.94-3.126 1.737-4.516C43.832 2.127 47.358-.5 53.269.107c1.146.118 2.793.62 3.821 1.216.071.041.32.24.377.274 1.39.884 2.656 2.995 2.924 4.937zM39.048 4.643c-.291 1.33-.583 2.835-.89 4.148h-4.864c.377-1.455.665-2.902 1.042-4.168 1.556 0 3.003.02 4.712.02m-5.928 5.365h4.69c-.613 3.394-1.828 8.868-2.78 12.68-.595 2.384-.993 4.125-2.605 5.384-.144.113-.227.059-.347.174-.297.283-1.671.611-2.432.694-1.236.134-2.635.018-4.155-.014.398-1.453.848-3.199 1.203-4.502 3.704.448 3.798-3.053 4.515-6.427.416-1.948 1.673-7.208 1.911-7.99" fill="#1A1918"/><path d="M22.177 18.866l-.1.26c-1.713 3.335-4.748 5.381-9.076 5.472-2.024.042-3.952-.478-5.211-1.042-2.718-1.222-5.005-3.486-6.253-5.906-1.791-3.469-2.114-8.294 1.61-11.898.057 0-.452.782-.394.782l-.103.333c-2.683 8.401 5.584 15.601 13.621 14.778 1.932-.198 4.395-1.256 5.906-2.779z" fill="#21609B"/><path d="M17.314 15.392c2.021.014 4.134-.931 5.384-2.258-1.094 2.777-4.262 4.563-8.51 3.995-3.558-.476-6.947-4.056-7.296-7.643-.255-2.61.655-4.168 2.154-6.058-.521.988-.716 1.75-.764 2.237-.57 5.647 4.51 9.697 9.032 9.727" fill="#21609B"/><path d="M22.495 8.378c-.314.721-2.124 2.082-2.923 2.253-3.165.674-5.192-.827-6.253-2.534-.158-.255-.45-.952-.502-1.13-.412-1.4-.223-3.517 1.005-4.613-.37 1.042-.423 2.253-.229 3.04.118.476.478 1.306.838 1.829.654.952 1.07 1.183 1.91 1.689.379.227.785.41.96.46.798.234 2.481.853 5.194-.994" fill="#21609B"/></g><defs><clipPath id="clip0"><path fill="#fff" d="M0 0h128v29H0z"/></clipPath></defs></svg>