<svg width="16" height="16" fill="none" xmlns="http://www.w3.org/2000/svg"><path d="M2.951 13.6L1.828 1h12.344l-1.125 12.598L7.992 15l-5.041-1.4z" fill="#1572B6"/><path d="M8 13.929l4.085-1.133.961-10.765H8v11.898z" fill="#33A9DC"/><path d="M8 6.596h2.045l.141-1.583H8V3.468h3.875l-.037.414-.38 4.259H8V6.596z" fill="#fff"/><path d="M8.01 10.609l-.008.002-1.72-.465-.11-1.232H4.62l.216 2.426 3.166.879.007-.002v-1.608z" fill="#EBEBEB"/><path d="M9.914 8.075l-.187 2.07-1.723.465v1.608l3.168-.878.023-.261.269-3.004h-1.55z" fill="#fff"/><path d="M8.005 3.468v1.545H4.272l-.03-.347-.071-.784-.037-.414h3.871zM8 6.596V8.14H6.3l-.03-.347-.07-.784-.037-.414H8z" fill="#EBEBEB"/></svg>