<svg width="16" height="16" fill="none" xmlns="http://www.w3.org/2000/svg"><path d="M2.951 13.6L1.827 1h12.345l-1.125 12.598L7.992 15l-5.041-1.4z" fill="#E44F26"/><path d="M8 13.929l4.085-1.133.961-10.765H8v11.898z" fill="#F1662A"/><path d="M8 6.704H5.955L5.814 5.12H8V3.575H4.125l.037.415.38 4.259H8V6.703zm0 4.013l-.007.002-1.721-.464-.11-1.233H4.611l.216 2.426 3.166.879.007-.002v-1.608z" fill="#EBEBEB"/><path d="M7.995 6.703V8.25h1.903l-.18 2.005-1.723.465v1.607l3.168-.878.023-.261.363-4.069.038-.415H7.995zm0-3.128v1.546h3.732l.031-.347.071-.784.037-.415H7.995z" fill="#fff"/></svg>