<svg width="16" height="16" viewBox="0 0 16 16" fill="none" xmlns="http://www.w3.org/2000/svg">
<path d="M2.951 13.6005L1.828 1H14.172L13.0475 13.5985L7.9925 15L2.951 13.6005Z" fill="#1572B6"/>
<path d="M8 13.929L12.085 12.7965L13.046 2.03052H8V13.929Z" fill="#33A9DC"/>
<path d="M8 6.59553H10.045L10.186 5.01303H8V3.46753H11.875L11.838 3.88203L11.4585 8.14103H8V6.59553V6.59553Z" fill="white"/>
<path d="M8.00949 10.609L8.00249 10.611L6.2815 10.146L6.1715 8.91351H4.62L4.8365 11.34L8.002 12.219L8.00949 12.217V10.609V10.609Z" fill="#EBEBEB"/>
<path d="M9.9135 8.0755L9.7275 10.145L8.004 10.61V12.218L11.172 11.34L11.1955 11.079L11.464 8.0755H9.9135V8.0755Z" fill="white"/>
<path d="M8.0055 3.46753V5.01303H4.2725L4.2415 4.66553L4.171 3.88203L4.134 3.46753H8.0055V3.46753Z" fill="#EBEBEB"/>
<path d="M8.00001 6.59552V8.14102H6.30051L6.26951 7.79352L6.19951 7.01002L6.16251 6.59552H8.00001V6.59552Z" fill="#EBEBEB"/>
</svg>
