<svg width="16" height="16" fill="none" xmlns="http://www.w3.org/2000/svg"><path d="M8.085 9.35c-.24.11-.504.255-1.031.544-.2.113-.409.225-.604.331l-.04-.044c-1.044-1.115-2.974-1.903-2.892-3.4.03-.546.218-1.978 3.707-3.717 2.87-1.415 5.155-1.023 5.55-.153.566 1.239-1.225 3.546-4.19 3.88a2.234 2.234 0 01-1.876-.474c-.156-.17-.18-.18-.238-.146-.096.05-.034.204 0 .293a1.75 1.75 0 001.07.842 5.7 5.7 0 003.479-.345c1.796-.695 3.2-2.629 2.789-4.25-.413-1.643-3.141-2.185-5.722-1.268a13 13 0 00-4.395 2.523c-1.422 1.33-1.647 2.486-1.555 2.97.331 1.719 2.7 2.837 3.65 3.665l-.13.072c-.473.236-2.28 1.18-2.731 2.179-.512 1.132.082 1.944.474 2.053a2.916 2.916 0 003.14-1.272 3.15 3.15 0 00.28-2.9c.112-.09.232-.17.358-.239.242-.143.473-.284.677-.393a5.238 5.238 0 012.237-.494c1.623.19 1.944 1.203 1.883 1.63a1.08 1.08 0 01-.515.729c-.113.072-.15.096-.14.147.013.075.067.071.163.058a1.267 1.267 0 00.883-1.129c.05-1-.903-2.097-2.591-2.087a3.877 3.877 0 00-1.692.394l.002.001zm-2.412 3.92c-.539.586-1.289.808-1.613.62-.35-.2-.211-1.068.45-1.688.392-.353.815-.67 1.265-.944.079-.05.194-.116.334-.2l.037-.021.083-.05a2.329 2.329 0 01-.556 2.283z" fill="#CD6799"/></svg>