<svg width="250" height="70" fill="none" xmlns="http://www.w3.org/2000/svg"><path d="M22.342 50.203H10.059L7.3 60.775H3.313L14.51 20.268h3.383l11.215 40.507h-3.966l-2.8-10.572zm-11.115-4.396h9.967L16.2 26.862l-4.973 18.945zm30.465-3.087c-3.315-1.317-5.732-2.931-7.249-4.841-1.503-1.93-2.255-4.303-2.255-7.122 0-3.19.92-5.824 2.759-7.902 1.852-2.095 4.255-3.143 7.209-3.143 2.013 0 3.805.538 5.376 1.613 1.584 1.076 2.806 2.56 3.665 4.452.872 1.892 1.308 3.96 1.308 6.204H48.62c0-2.449-.564-4.368-1.691-5.76-1.128-1.409-2.719-2.113-4.772-2.113-1.907 0-3.397.584-4.47 1.752-1.061 1.15-1.591 2.754-1.591 4.813 0 1.65.503 3.051 1.51 4.201 1.02 1.131 2.745 2.17 5.175 3.116 2.443.946 4.35 1.994 5.718 3.144 1.383 1.131 2.403 2.457 3.061 3.978.671 1.52 1.007 3.31 1.007 5.37 0 3.282-.926 5.916-2.779 7.9-1.852 1.966-4.33 2.95-7.43 2.95-2.014 0-3.893-.53-5.638-1.586-1.745-1.076-3.095-2.541-4.048-4.396-.94-1.855-1.41-3.96-1.41-6.315h3.887c0 2.448.651 4.386 1.953 5.814 1.316 1.41 3.068 2.115 5.256 2.115 2.04 0 3.604-.575 4.692-1.725 1.087-1.15 1.63-2.717 1.63-4.702 0-1.984-.503-3.515-1.51-4.59-1.006-1.095-2.832-2.17-5.477-3.228zm23.298-.78l-3.584 5.147v13.688h-3.867V20.268h3.867V40.3l13.028-20.03h4.671L67.567 38.156l12.444 22.618H75.38L64.99 41.94zm40.312-.11c0 3.968-.483 7.437-1.45 10.404-.966 2.949-2.335 5.203-4.107 6.76-1.772 1.558-3.84 2.337-6.202 2.337-2.31 0-4.356-.779-6.142-2.337-1.785-1.576-3.174-3.811-4.168-6.704-.98-2.912-1.483-6.279-1.51-10.1v-2.92c0-3.895.49-7.336 1.47-10.322.98-2.986 2.362-5.267 4.148-6.844 1.799-1.595 3.853-2.392 6.162-2.392 2.349 0 4.416.788 6.201 2.365 1.799 1.557 3.182 3.83 4.148 6.816.967 2.967 1.45 6.426 1.45 10.377v2.56zm-3.846-2.616c0-4.804-.698-8.485-2.094-11.045-1.396-2.578-3.35-3.867-5.86-3.867-2.443 0-4.369 1.29-5.779 3.867-1.396 2.56-2.114 6.12-2.154 10.683v2.977c0 4.655.705 8.319 2.114 10.99 1.423 2.651 3.376 3.978 5.86 3.978 2.497 0 4.43-1.252 5.799-3.756 1.369-2.522 2.074-6.13 2.114-10.822v-3.005zm14.639-18.946l9.585 33.051 9.585-33.05h5.014v40.506h-3.867V45.001l.363-17.026-9.625 32.8h-2.96l-9.605-32.717.383 16.943v15.774h-3.867V20.268h4.994zm47.562 29.935h-12.283l-2.759 10.572h-3.987l11.196-40.507h3.382l11.216 40.507h-3.967l-2.798-10.572zm-11.116-4.396h9.968l-4.994-18.945-4.974 18.945zm32.581-1.418h-6.887v16.386h-3.886V20.268h9.705c3.303 0 5.84 1.039 7.612 3.116 1.785 2.077 2.678 5.1 2.678 9.07 0 2.522-.497 4.72-1.49 6.593-.98 1.873-2.349 3.274-4.108 4.201l6.887 17.193v.334h-4.148l-6.363-16.386zm-6.887-4.368h5.94c1.92 0 3.443-.686 4.571-2.059 1.141-1.372 1.712-3.209 1.712-5.508 0-2.504-.544-4.424-1.631-5.76-1.074-1.335-2.631-2.012-4.672-2.03h-5.92V40.02zm44.098 1.809c0 3.968-.483 7.437-1.45 10.404-.966 2.949-2.336 5.203-4.108 6.76-1.771 1.558-3.839 2.337-6.201 2.337-2.309 0-4.357-.779-6.142-2.337-1.785-1.576-3.175-3.811-4.168-6.704-.98-2.912-1.483-6.279-1.51-10.1v-2.92c0-3.895.49-7.336 1.47-10.322.98-2.986 2.362-5.267 4.148-6.844 1.798-1.595 3.852-2.392 6.161-2.392 2.35 0 4.417.788 6.202 2.365 1.799 1.557 3.182 3.83 4.148 6.816.967 2.967 1.45 6.426 1.45 10.377v2.56zm-3.846-2.616c0-4.804-.698-8.485-2.094-11.045-1.396-2.578-3.349-3.867-5.86-3.867-2.443 0-4.369 1.29-5.779 3.867-1.396 2.56-2.114 6.12-2.154 10.683v2.977c0 4.655.704 8.319 2.114 10.99 1.423 2.651 3.376 3.978 5.86 3.978 2.496 0 4.43-1.252 5.799-3.756 1.369-2.522 2.074-6.13 2.114-10.822v-3.005zm18.908 14.466l8.376-33.412H250l-10.873 40.507h-3.424L224.85 20.268h4.208l8.337 33.413z" fill="#000"/><path d="M92.872 57.773a5 5 0 00-4.14-2.196H43.186a5 5 0 00-4.153 2.215l-6.7 9.992A5 5 0 0128.182 70H9.99c-4.12 0-6.472-4.7-4.003-7.997l44.925-60A5 5 0 0154.916 0h21.886a5 5 0 013.995 1.993l45.174 60c2.481 3.295.13 8.007-3.994 8.007h-18.173a4.999 4.999 0 01-4.14-2.196l-6.792-10.03zM53.547 36.117c-2.22 3.322.162 7.777 4.158 7.777H74.14c4.007 0 6.386-4.478 4.144-7.798L70.02 23.86c-1.988-2.944-6.327-2.933-8.3.021l-8.174 12.235z" fill="#5A37A5" fill-opacity=".76"/><path d="M210.086 50c0-2.59-1.94-4.571-5.822-5.942-3.881-1.402-10.868-2.864-20.959-4.388-10.092-1.554-18.081-3.077-23.968-4.57-16.043-4.083-24.065-9.582-24.065-16.499 0-3.595 2.135-6.794 6.404-9.597 4.335-2.834 10.513-5.043 18.534-6.627C168.296.792 177.353 0 187.38 0c10.092 0 19.084.868 26.976 2.605 7.892 1.706 14.005 4.129 18.34 7.267 2.547 1.817 4.357 3.778 5.429 5.882 1.254 2.46-1.07 4.812-3.831 4.812h-19.111c-2.761 0-4.961-2.52-6.915-4.471-1.004-1.004-2.403-1.875-4.198-2.613-4.075-1.706-9.8-2.559-17.175-2.559-7.116 0-12.647.716-16.593 2.148-3.946 1.402-5.919 3.26-5.919 5.576 0 2.163 2.296 3.976 6.889 5.439 4.658 1.462 11.483 2.833 20.475 4.113 16.56 2.346 28.625 5.256 36.194 8.73 7.569 3.472 11.353 7.8 11.353 12.979 0 5.758-4.625 10.283-13.876 13.574-9.251 3.26-21.704 6.48-37.359 6.48-10.868 0-25.856.428-35.008-1.59-6.89-1.52-9.549-2.923-14.271-6.184-2.585-1.809-4.726-5.11-6.12-8.426-1.382-3.286 1.87-5.731 5.163-4.364l7.79 3.235a6.63 6.63 0 011.036.56c6.735 4.332 23.235 4.347 41.41 4.347 6.922 0 12.324-.655 16.205-1.965 3.882-1.34 5.822-3.2 5.822-5.576z" fill="#365092"/></svg>