<svg width="16" height="16" viewBox="0 0 16 16" fill="none" xmlns="http://www.w3.org/2000/svg">
<path d="M14.3875 3.61249C16.8113 7.13999 15.9158 11.963 12.3875 14.3875C8.86 16.8112 4.037 15.9155 1.6125 12.3875C-0.810997 8.85999 0.0847526 4.03449 3.6125 1.61249C7.14 -0.810508 11.9655 0.0852425 14.3875 3.61249" fill="#DB7C27"/>
<path d="M11.331 14.9965C11.331 14.9965 7.631 6.7515 11.5728 1.121L11.903 1.3035C11.903 1.3035 7.77375 6.96 12.1153 14.573L11.331 14.9955" fill="#404041"/>
<path d="M1.6115 12.3873C1.6115 12.3873 5.25825 6.97225 4.25225 1.216L3.80375 1.5245C3.80375 1.5245 5.7725 3.13125 1.3305 11.978" fill="#404041"/>
<path d="M8.63975 0.285254C8.63975 0.285254 4.131 5.93175 5.05725 15.1853C5.05725 15.1853 5.72725 15.384 5.9435 15.4608C6.15925 15.537 4.505 7.07825 9.3195 0.363254L8.6395 0.285004" fill="#404041"/>
<path d="M0.42 6.74351C0.42 6.74351 6.28075 10.971 15.4785 9.59326C15.4785 9.59326 15.644 8.91425 15.7098 8.69475C15.7758 8.475 7.408 10.5418 0.46425 6.061L0.41925 6.74351" fill="#404041"/>
</svg>
