<svg width="13" height="11" viewBox="0 0 13 11" fill="none" xmlns="http://www.w3.org/2000/svg">
<path d="M1.344 0C1.344 0 1 0.6035 1 1.625C1 2.3025 1.1545 2.66 1.2655 2.844C0.485 3.656 0 4.7575 0 6.1715C0 9.793 2.295 11 6.5 11C10.705 11 13 9.793 13 6.172C13 4.709 12.543 3.6095 11.797 2.8125C12.1054 1.89191 12.0608 0.889602 11.672 0C10.121 0 8.828 1.1915 8.781 1.2345C8.03122 1.0751 7.26653 0.99649 6.5 1C5.6975 1 4.91 1.0975 4.172 1.2815C3.133 0.251 1.879 0 1.344 0ZM8.844 5.219C9.2655 5.215 9.6565 5.25 10 5.359C10.916 5.6505 11.5 6.492 11.5 7.4375C11.5 10.0545 10.0955 10.5 6.5 10.5C3.828 10.5 1.656 10.0295 1.656 7.531C1.656 6.578 2.174 6.039 2.547 5.703C3.367 4.965 4.662 5.328 6.5 5.328C7.336 5.328 8.1385 5.2265 8.844 5.2185V5.219ZM3.75 6.5C3.336 6.5 3 6.9475 3 7.5C3 8.0525 3.336 8.5 3.75 8.5C4.164 8.5 4.5 8.0525 4.5 7.5C4.5 6.9475 4.164 6.5 3.75 6.5ZM9.25 6.5C8.836 6.5 8.5 6.9475 8.5 7.5C8.5 8.0525 8.836 8.5 9.25 8.5C9.664 8.5 10 8.0525 10 7.5C10 6.9475 9.664 6.5 9.25 6.5ZM3.672 6.922C3.789 6.922 3.875 7.0215 3.875 7.1405C3.875 7.26 3.789 7.3595 3.672 7.3595C3.61416 7.35872 3.55891 7.3354 3.518 7.2945C3.4771 7.25359 3.45378 7.19834 3.453 7.1405C3.453 7.0215 3.5545 6.922 3.672 6.922ZM9.172 6.922C9.289 6.922 9.375 7.0215 9.375 7.1405C9.375 7.26 9.289 7.3595 9.172 7.3595C9.11416 7.35872 9.05891 7.3354 9.018 7.2945C8.9771 7.25359 8.95378 7.19834 8.953 7.1405C8.953 7.0215 9.0545 6.922 9.172 6.922Z" fill="black"/>
</svg>
