<?xml version="1.0" encoding="UTF-8"?><!DOCTYPE svg PUBLIC "-//W3C//DTD SVG 1.1//EN" "http://www.w3.org/Graphics/SVG/1.1/DTD/svg11.dtd"><svg xmlns="http://www.w3.org/2000/svg" xmlns:xlink="http://www.w3.org/1999/xlink"><defs><clipPath id="clip0"><path fill="#fff" d="M0 0h128v29H0z"/></clipPath><filter id="filter0_di" x="0" y="0" width="93" height="94" filterUnits="userSpaceOnUse" color-interpolation-filters="sRGB"><feFlood flood-opacity="0" result="BackgroundImageFix"/><feColorMatrix in="SourceAlpha" values="0 0 0 0 0 0 0 0 0 0 0 0 0 0 0 0 0 0 127 0"/><feMorphology radius="1" operator="dilate" in="SourceAlpha" result="effect1_dropShadow"/><feOffset dx="1" dy="3"/><feColorMatrix values="0 0 0 0 0 0 0 0 0 0 0 0 0 0 0 0 0 0 1 0"/><feBlend in2="BackgroundImageFix" result="effect1_dropShadow"/><feBlend in="SourceGraphic" in2="effect1_dropShadow" result="shape"/><feColorMatrix in="SourceAlpha" values="0 0 0 0 0 0 0 0 0 0 0 0 0 0 0 0 0 0 127 0" result="hardAlpha"/><feMorphology radius="10" in="SourceAlpha" result="effect2_innerShadow"/><feOffset dx="13" dy="22"/><feGaussianBlur stdDeviation="2"/><feComposite in2="hardAlpha" operator="arithmetic" k2="-1" k3="1"/><feColorMatrix values="0 0 0 0 0.795833 0 0 0 0 0.722882 0 0 0 0 0.722882 0 0 0 1 0"/><feBlend in2="shape" result="effect2_innerShadow"/></filter></defs><symbol id="css"><path d="M2.951 13.6L1.828 1h12.344l-1.125 12.598L7.992 15l-5.041-1.4z" fill="#1572B6"/><path d="M8 13.929l4.085-1.133.961-10.765H8v11.898z" fill="#33A9DC"/><path d="M8 6.596h2.045l.141-1.583H8V3.468h3.875l-.037.414-.38 4.259H8V6.596z" fill="#fff"/><path d="M8.01 10.609l-.008.002-1.72-.465-.11-1.232H4.62l.216 2.426 3.166.879.007-.002v-1.608z" fill="#EBEBEB"/><path d="M9.914 8.075l-.187 2.07-1.723.465v1.608l3.168-.878.023-.261.269-3.004h-1.55z" fill="#fff"/><path d="M8.005 3.468v1.545H4.272l-.03-.347-.071-.784-.037-.414h3.871zM8 6.596V8.14H6.3l-.03-.347-.07-.784-.037-.414H8z" fill="#EBEBEB"/></symbol><symbol id="html"><path d="M2.951 13.6L1.827 1h12.345l-1.125 12.598L7.992 15l-5.041-1.4z" fill="#E44F26"/><path d="M8 13.929l4.085-1.133.961-10.765H8v11.898z" fill="#F1662A"/><path d="M8 6.704H5.955L5.814 5.12H8V3.575H4.125l.037.415.38 4.259H8V6.703zm0 4.013l-.007.002-1.721-.464-.11-1.233H4.611l.216 2.426 3.166.879.007-.002v-1.608z" fill="#EBEBEB"/><path d="M7.995 6.703V8.25h1.903l-.18 2.005-1.723.465v1.607l3.168-.878.023-.261.363-4.069.038-.415H7.995zm0-3.128v1.546h3.732l.031-.347.071-.784.037-.415H7.995z" fill="#fff"/></symbol><symbol id="icon-link" viewBox="0 0 11 11">
<path fill-rule="evenodd" clip-rule="evenodd" d="M1 1.70867e-06C0.734784 1.70867e-06 0.48043 0.105358 0.292893 0.292895C0.105357 0.480431 0 0.734785 0 1V10C0 10.2652 0.105357 10.5196 0.292893 10.7071C0.48043 10.8946 0.734784 11 1 11H10C10.2652 11 10.5196 10.8946 10.7071 10.7071C10.8946 10.5196 11 10.2652 11 10V6.5C11 6.36739 10.9473 6.24022 10.8536 6.14645C10.7598 6.05268 10.6326 6 10.5 6C10.3674 6 10.2402 6.05268 10.1464 6.14645C10.0527 6.24022 10 6.36739 10 6.5V10H1V1H4.5C4.63261 1 4.75979 0.947323 4.85355 0.853555C4.94732 0.759787 5 0.63261 5 0.500002C5 0.367393 4.94732 0.240217 4.85355 0.146448C4.75979 0.0526802 4.63261 1.70867e-06 4.5 1.70867e-06H1ZM10.854 0.146002C10.947 0.239216 10.9994 0.365343 11 0.497002V3.5C11 3.63261 10.9473 3.75979 10.8536 3.85355C10.7598 3.94732 10.6326 4 10.5 4C10.3674 4 10.2402 3.94732 10.1464 3.85355C10.0527 3.75979 10 3.63261 10 3.5V1.707L4.854 6.854C4.80751 6.90049 4.75232 6.93737 4.69158 6.96253C4.63084 6.98768 4.56574 7.00063 4.5 7.00063C4.43426 7.00063 4.36916 6.98768 4.30842 6.96253C4.24768 6.93737 4.19249 6.90049 4.146 6.854C4.09951 6.80751 4.06264 6.75233 4.03748 6.69159C4.01232 6.63085 3.99937 6.56575 3.99937 6.5C3.99937 6.43426 4.01232 6.36916 4.03748 6.30842C4.06264 6.24768 4.09951 6.19249 4.146 6.146L9.293 1H7.5C7.36739 1 7.24021 0.947323 7.14645 0.853555C7.05268 0.759787 7 0.63261 7 0.500002C7 0.367393 7.05268 0.240217 7.14645 0.146448C7.24021 0.0526802 7.36739 1.70867e-06 7.5 1.70867e-06H10.5C10.5657 -0.00017025 10.6308 0.0126387 10.6916 0.0376935C10.7523 0.0627483 10.8075 0.0995554 10.854 0.146002Z" fill="black"/>
</symbol><symbol id="icon-npm"><path fill-rule="evenodd" clip-rule="evenodd" d="M0 0h24v24H0V0z" fill="#D40001"/><path fill-rule="evenodd" clip-rule="evenodd" d="M16.718 7.928h-4.513V20.25H4V3h16v17.249h-3.282V7.928z" fill="#fff"/></symbol><symbol id="logos_figma"><path d="M4 24c2.208 0 4-1.792 4-4v-4H4c-2.208 0-4 1.792-4 4s1.792 4 4 4z" fill="#0ACF83"/><path d="M0 12c0-2.208 1.792-4 4-4h4v8H4c-2.208 0-4-1.792-4-4z" fill="#A259FF"/><path d="M0 4c0-2.208 1.792-4 4-4h4v8H4C1.792 8 0 6.208 0 4z" fill="#F24E1E"/><path d="M8 0h4c2.208 0 4 1.792 4 4s-1.792 4-4 4H8V0z" fill="#FF7262"/><path d="M16 12c0 2.208-1.792 4-4 4s-4-1.792-4-4 1.792-4 4-4 4 1.792 4 4z" fill="#1ABCFE"/></symbol><symbol id="logos_gulp"><path d="M35.449 104.708l.975-17.255 2.693-4.88s-6.129 2.661-16.389 2.661-16.296-2.613-16.296-2.613l3.018 5.325 1.068 16.762c0 1.797 5.58 3.254 12.465 3.254s12.466-1.457 12.466-3.254M32.373 24.13l2.047-8.592L45.754 2.872 42.767.17l-12 13.492-2.377 10.264a150.114 150.114 0 00-5.368-.094c-12.638 0-22.884 1.53-22.884 3.415 0 1.887 10.246 3.416 22.884 3.416 12.639 0 22.884-1.529 22.884-3.416 0-1.389-5.557-2.584-13.533-3.118" fill="#D34A47"/><path d="M31.182 28.94s-.443.106-1.747.112c-1.304.006-2.23-.01-2.6-.366-.099-.096-.153-.286-.152-.415 0-.245.165-.39.373-.48l.198.33c-.086.03-.135.068-.135.107-.001.187 1.333.314 2.354.3 1.02-.013 2.254-.102 2.255-.286 0-.055-.093-.108-.255-.149l.196-.326c.265.087.496.255.495.547-.002.495-.597.57-.982.626" fill="#fff"/><path d="M45.732 2.898c.285-.35-.147-1.244-.966-1.997-.819-.752-1.714-1.08-2-.73-.284.35.148 1.244.967 1.997.819.753 1.714 1.08 2 .73zM34.904 62.56c-.27-2.744 5.653-6.719 4.133-6.846-3.272.199-4.9 4.071-6.546 8.128-.603 1.486-2.667 7.826-4.021 7.045-1.354-.78 1.755-5.993 2.626-9.089-1.006.783-4.692 3.825-5.642.976-1.527 1.378-4.79 2.124-4.423-1.494-.812 1.528-2.636 3.662-4.825 2.775-2.874-1.164 1.666-10.888 2.795-10.397 1.129.49-.228 2.705-.583 3.565-.782 1.893-1.685 4.273-1.082 4.76 1.034.835 3.846-3.157 3.908-3.245.526-.738 2.025-5.565 3.232-5.01 1.208.554-3.012 6.927-1.434 8.192.318.255 1.62-.157 2.412-1.067.513-.589.336-1.893 2.045-6.219 1.708-4.326 3.23-9.713 4.402-9.303 1.172.41.206 3.176-.214 4.206-1.973 4.838-5.383 12.83-3.775 12.226 1.609-.605 2.446-.64 4.021-2.598 1.575-1.957 1.502-5.18 2.552-5.112 1.05.069.874 1.102.62 1.89 1.033-1.256 4.897-3.9 5.83-1.282 1.105 3.1-5.529 7.58-3.875 7.351 1.613-.223 4.225-1.98 5.341-3.578l3.07-29.313s-3.09 2.715-22.746 2.715C3.068 31.836.298 29.177.298 29.177l2.614 26.757C4.3 51.746 7.595 43.275 12.788 43.56c2.363.129 5.517 4.96 2.815 5.123-1.143.07-1.26-2.41-2.614-2.775-.977-.263-2.337.58-3.216 1.495-1.754 1.822-5.525 9.011-5.027 12.596.635 4.57 5.939-1.588 6.836-3.416.632-1.288 1.059-5.103 2.441-4.703 1.383.4-.12 4.338-1.122 7.82-1.126 3.908-1.718 8.032-3.128 7.558-1.411-.474.887-5.521.804-6.405-1.326 1.3-3.77 4.588-6.895 2.96L5.306 80.43s4.314 3.62 17.313 3.62c12.998 0 17.472-3.564 17.472-3.564l2.016-19.244c-1.65 1.705-6.87 4.734-7.203 1.32" fill="#D34A47"/><path d="M35.449 104.708l.975-17.255 2.693-4.88s-6.129 2.661-16.389 2.661-16.296-2.613-16.296-2.613l3.018 5.325 1.068 16.762c0 1.797 5.58 3.254 12.465 3.254s12.466-1.457 12.466-3.254M32.373 24.13l2.047-8.592L45.754 2.872 42.767.17l-12 13.492-2.377 10.264a150.114 150.114 0 00-5.368-.094c-12.638 0-22.884 1.53-22.884 3.415 0 1.887 10.246 3.416 22.884 3.416 12.639 0 22.884-1.529 22.884-3.416 0-1.389-5.557-2.584-13.533-3.118" fill="#D34A47"/><path d="M31.182 28.94s-.443.106-1.747.112c-1.304.006-2.23-.01-2.6-.366-.099-.096-.153-.286-.152-.415 0-.245.165-.39.373-.48l.198.33c-.086.03-.135.068-.135.107-.001.187 1.333.314 2.354.3 1.02-.013 2.254-.102 2.255-.286 0-.055-.093-.108-.255-.149l.196-.326c.265.087.496.255.495.547-.002.495-.597.57-.982.626" fill="#fff"/><path d="M45.732 2.898c.285-.35-.147-1.244-.966-1.997-.819-.752-1.714-1.08-2-.73-.284.35.148 1.244.967 1.997.819.753 1.714 1.08 2 .73zM34.904 62.56c-.27-2.744 5.653-6.719 4.133-6.846-3.272.199-4.9 4.071-6.546 8.128-.603 1.486-2.667 7.826-4.021 7.045-1.354-.78 1.755-5.993 2.626-9.089-1.006.783-4.692 3.825-5.642.976-1.527 1.378-4.79 2.124-4.423-1.494-.812 1.528-2.636 3.662-4.825 2.775-2.874-1.164 1.666-10.888 2.795-10.397 1.129.49-.228 2.705-.583 3.565-.782 1.893-1.685 4.273-1.082 4.76 1.034.835 3.846-3.157 3.908-3.245.526-.738 2.025-5.565 3.232-5.01 1.208.554-3.012 6.927-1.434 8.192.318.255 1.62-.157 2.412-1.067.513-.589.336-1.893 2.045-6.219 1.708-4.326 3.23-9.713 4.402-9.303 1.172.41.206 3.176-.214 4.206-1.973 4.838-5.383 12.83-3.775 12.226 1.609-.605 2.446-.64 4.021-2.598 1.575-1.957 1.502-5.18 2.552-5.112 1.05.069.874 1.102.62 1.89 1.033-1.256 4.897-3.9 5.83-1.282 1.105 3.1-5.529 7.58-3.875 7.351 1.613-.223 4.225-1.98 5.341-3.578l3.07-29.313s-3.09 2.715-22.746 2.715C3.068 31.836.298 29.177.298 29.177l2.614 26.757C4.3 51.746 7.595 43.275 12.788 43.56c2.363.129 5.517 4.96 2.815 5.123-1.143.07-1.26-2.41-2.614-2.775-.977-.263-2.337.58-3.216 1.495-1.754 1.822-5.525 9.011-5.027 12.596.635 4.57 5.939-1.588 6.836-3.416.632-1.288 1.059-5.103 2.441-4.703 1.383.4-.12 4.338-1.122 7.82-1.126 3.908-1.718 8.032-3.128 7.558-1.411-.474.887-5.521.804-6.405-1.326 1.3-3.77 4.588-6.895 2.96L5.306 80.43s4.314 3.62 17.313 3.62c12.998 0 17.472-3.564 17.472-3.564l2.016-19.244c-1.65 1.705-6.87 4.734-7.203 1.32" fill="#D34A47"/></symbol><symbol id="logos_javascript"><path d="M0 0h16v16H0V0z" fill="#F7DF1E"/><path d="M4.207 13.37l1.224-.74c.237.419.452.773.967.773.494 0 .806-.193.806-.945V7.346h1.503v5.133c0 1.558-.913 2.266-2.245 2.266-1.202 0-1.9-.622-2.255-1.374m5.317-.161l1.224-.71c.322.527.741.914 1.482.914.623 0 1.02-.312 1.02-.741 0-.516-.408-.698-1.095-1l-.376-.16c-1.085-.462-1.804-1.042-1.804-2.266 0-1.128.86-1.987 2.202-1.987.956 0 1.643.333 2.137 1.203l-1.17.751c-.259-.461-.538-.644-.967-.644-.44 0-.72.28-.72.644 0 .451.28.634.924.913l.375.162c1.279.547 1.998 1.106 1.998 2.362 0 1.354-1.063 2.095-2.492 2.095-1.396 0-2.298-.666-2.738-1.536" fill="#000"/></symbol><symbol id="logos_jquery"><g clip-path="url(#clip0)" fill-rule="evenodd" clip-rule="evenodd"><path d="M122.429 2.162l5.355.029s-9.956 13.491-10.769 14.59c-.264.357-.665.74-.868 1.216-.514 1.197-1.042 3.822-1.042 3.822l-4.9.024s.762-2.736.731-4.193c-.028-1.273-.678-2.544-1.042-3.821-.369-1.293-.869-3.822-.869-3.822h5.038l.694 2.78 7.672-10.626" fill="#1A1918"/><path d="M112.289 5.007c.988.595 1.595 3.882 1.595 3.882s-5.171.076-7.985.076h-2.432l-2.953 12.854h-4.516s2.81-13.969 3.474-16.501c.215-.82 1.473-.68 3.597-.68h3.393c2.19 0 4.75-.28 5.827.369m-21.024 6.26s.14-.825-.478-1.78c-.528-.815-1.016-1.005-2.405-1.048-3.924-.123-3.848 2.784-3.848 2.784l6.731.044zm4.255-3.33c.576 2.074-.52 6.948-.52 6.948s-5.724-.096-8.859 0c-.975.03-2.142-.106-2.432.347-.408.636.15 1.614.622 2.027.544.476 1.603.53 1.984.578 2.544.324 7.87.084 7.87.084l-.923 4.085s-7.525.378-11.29-.521c-.743-.177-1.44-.535-1.91-1.042-.129-.139-.24-.328-.362-.492-.097-.13-.38-.559-.507-.898-.86-2.29.1-6.68 1.042-9.032.11-.272.247-.618.391-.912.18-.366.334-.78.478-.998.097-.151.217-.249.318-.391.116-.169.251-.332.377-.478.347-.403.741-.688 1.215-1.042 1.569-1.174 4.407-2.086 7.817-1.737 1.284.132 3.222.59 4.168 1.91.254.353.38 1.053.522 1.564zM74.807 4.622l4.38-.025s-2.441 11.576-3.685 17.222h-5.037c-3.521 0-6.656.436-7.99-2.085-1.294-2.447-.06-6.472.52-9.206.41-1.935 1.274-5.89 1.274-5.89l4.537-.041s-1.282 6.157-1.815 9.232c-.191 1.101-.585 2.138-.174 2.952.391.775.938.83 2.606.869.528.013 2.258 0 2.258 0l3.126-13.028M54.311 12.96c.459-1.629 1.127-3.395 1.042-4.863-.092-1.57-1.408-3-2.258-3.3-2.558-.904-4.953.359-5.905 1.389-1.232 1.334-1.649 2.892-2.085 5.037-.324 1.593-.59 3.274 0 4.516 1.046 2.196 4.306 1.716 7.817 1.738.52-1.397.951-2.966 1.389-4.517zm6.08-6.426c.5 3.637-1.42 7.651-2.741 11.142 1.348.122 2.529-.019 2.614.082.088.13-.904 4.167-1.25 4.177-1.07.028-4.614.058-6.093.058-4.823 0-9.336.314-11.637-2.085-.934-.974-1.58-2.646-1.737-3.821-.26-1.963.066-4.124.521-5.906.412-1.608.94-3.126 1.737-4.516C43.832 2.127 47.358-.5 53.269.107c1.146.118 2.793.62 3.821 1.216.071.041.32.24.377.274 1.39.884 2.656 2.995 2.924 4.937zM39.048 4.643c-.291 1.33-.583 2.835-.89 4.148h-4.864c.377-1.455.665-2.902 1.042-4.168 1.556 0 3.003.02 4.712.02m-5.928 5.365h4.69c-.613 3.394-1.828 8.868-2.78 12.68-.595 2.384-.993 4.125-2.605 5.384-.144.113-.227.059-.347.174-.297.283-1.671.611-2.432.694-1.236.134-2.635.018-4.155-.014.398-1.453.848-3.199 1.203-4.502 3.704.448 3.798-3.053 4.515-6.427.416-1.948 1.673-7.208 1.911-7.99" fill="#1A1918"/><path d="M22.177 18.866l-.1.26c-1.713 3.335-4.748 5.381-9.076 5.472-2.024.042-3.952-.478-5.211-1.042-2.718-1.222-5.005-3.486-6.253-5.906-1.791-3.469-2.114-8.294 1.61-11.898.057 0-.452.782-.394.782l-.103.333c-2.683 8.401 5.584 15.601 13.621 14.778 1.932-.198 4.395-1.256 5.906-2.779z" fill="#21609B"/><path d="M17.314 15.392c2.021.014 4.134-.931 5.384-2.258-1.094 2.777-4.262 4.563-8.51 3.995-3.558-.476-6.947-4.056-7.296-7.643-.255-2.61.655-4.168 2.154-6.058-.521.988-.716 1.75-.764 2.237-.57 5.647 4.51 9.697 9.032 9.727" fill="#21609B"/><path d="M22.495 8.378c-.314.721-2.124 2.082-2.923 2.253-3.165.674-5.192-.827-6.253-2.534-.158-.255-.45-.952-.502-1.13-.412-1.4-.223-3.517 1.005-4.613-.37 1.042-.423 2.253-.229 3.04.118.476.478 1.306.838 1.829.654.952 1.07 1.183 1.91 1.689.379.227.785.41.96.46.798.234 2.481.853 5.194-.994" fill="#21609B"/></g></symbol><symbol id="radio-empty"><g filter="url(#filter0_di)"><circle cx="40" cy="40" r="39" stroke="#000" stroke-width="2"/></g></symbol><symbol id="scss"><path d="M8.085 9.35c-.24.11-.504.255-1.031.544-.2.113-.409.225-.604.331l-.04-.044c-1.044-1.115-2.974-1.903-2.892-3.4.03-.546.218-1.978 3.707-3.717 2.87-1.415 5.155-1.023 5.55-.153.566 1.239-1.225 3.546-4.19 3.88a2.234 2.234 0 01-1.876-.474c-.156-.17-.18-.18-.238-.146-.096.05-.034.204 0 .293a1.75 1.75 0 001.07.842 5.7 5.7 0 003.479-.345c1.796-.695 3.2-2.629 2.789-4.25-.413-1.643-3.141-2.185-5.722-1.268a13 13 0 00-4.395 2.523c-1.422 1.33-1.647 2.486-1.555 2.97.331 1.719 2.7 2.837 3.65 3.665l-.13.072c-.473.236-2.28 1.18-2.731 2.179-.512 1.132.082 1.944.474 2.053a2.916 2.916 0 003.14-1.272 3.15 3.15 0 00.28-2.9c.112-.09.232-.17.358-.239.242-.143.473-.284.677-.393a5.238 5.238 0 012.237-.494c1.623.19 1.944 1.203 1.883 1.63a1.08 1.08 0 01-.515.729c-.113.072-.15.096-.14.147.013.075.067.071.163.058a1.267 1.267 0 00.883-1.129c.05-1-.903-2.097-2.591-2.087a3.877 3.877 0 00-1.692.394l.002.001zm-2.412 3.92c-.539.586-1.289.808-1.613.62-.35-.2-.211-1.068.45-1.688.392-.353.815-.67 1.265-.944.079-.05.194-.116.334-.2l.037-.021.083-.05a2.329 2.329 0 01-.556 2.283z" fill="#CD6799"/></symbol><symbol id="vscode-icons_file-type-css"><path d="M2.951 13.6L1.828 1h12.344l-1.125 12.598L7.992 15l-5.041-1.4z" fill="#1572B6"/><path d="M8 13.929l4.085-1.133.961-10.765H8v11.898z" fill="#33A9DC"/><path d="M8 6.596h2.045l.141-1.583H8V3.468h3.875l-.037.414-.38 4.259H8V6.596z" fill="#fff"/><path d="M8.01 10.609l-.008.002-1.72-.465-.11-1.232H4.62l.216 2.426 3.166.879.007-.002v-1.608z" fill="#EBEBEB"/><path d="M9.914 8.075l-.187 2.07-1.723.465v1.608l3.168-.878.023-.261.269-3.004h-1.55z" fill="#fff"/><path d="M8.005 3.468v1.545H4.272l-.03-.347-.071-.784-.037-.414h3.871zM8 6.596V8.14H6.3l-.03-.347-.07-.784-.037-.414H8z" fill="#EBEBEB"/></symbol><symbol id="vscode-icons_file-type-html"><path d="M2.951 13.6L1.827 1h12.345l-1.125 12.598L7.992 15l-5.041-1.4z" fill="#E44F26"/><path d="M8 13.929l4.085-1.133.961-10.765H8v11.898z" fill="#F1662A"/><path d="M8 6.704H5.955L5.814 5.12H8V3.575H4.125l.037.415.38 4.259H8V6.703zm0 4.013l-.007.002-1.721-.464-.11-1.233H4.611l.216 2.426 3.166.879.007-.002v-1.608z" fill="#EBEBEB"/><path d="M7.995 6.703V8.25h1.903l-.18 2.005-1.723.465v1.607l3.168-.878.023-.261.363-4.069.038-.415H7.995zm0-3.128v1.546h3.732l.031-.347.071-.784.037-.415H7.995z" fill="#fff"/></symbol><symbol id="vscode-icons_file-type-scss"><path d="M8.085 9.35c-.24.11-.504.255-1.031.544-.2.113-.409.225-.604.331l-.04-.044c-1.044-1.115-2.974-1.903-2.892-3.4.03-.546.218-1.978 3.707-3.717 2.87-1.415 5.155-1.023 5.55-.153.566 1.239-1.225 3.546-4.19 3.88a2.234 2.234 0 01-1.876-.474c-.156-.17-.18-.18-.238-.146-.096.05-.034.204 0 .293a1.75 1.75 0 001.07.842 5.7 5.7 0 003.479-.345c1.796-.695 3.2-2.629 2.789-4.25-.413-1.643-3.141-2.185-5.722-1.268a13 13 0 00-4.395 2.523c-1.422 1.33-1.647 2.486-1.555 2.97.331 1.719 2.7 2.837 3.65 3.665l-.13.072c-.473.236-2.28 1.18-2.731 2.179-.512 1.132.082 1.944.474 2.053a2.916 2.916 0 003.14-1.272 3.15 3.15 0 00.28-2.9c.112-.09.232-.17.358-.239.242-.143.473-.284.677-.393a5.238 5.238 0 012.237-.494c1.623.19 1.944 1.203 1.883 1.63a1.08 1.08 0 01-.515.729c-.113.072-.15.096-.14.147.013.075.067.071.163.058a1.267 1.267 0 00.883-1.129c.05-1-.903-2.097-2.591-2.087a3.877 3.877 0 00-1.692.394l.002.001zm-2.412 3.92c-.539.586-1.289.808-1.613.62-.35-.2-.211-1.068.45-1.688.392-.353.815-.67 1.265-.944.079-.05.194-.116.334-.2l.037-.021.083-.05a2.329 2.329 0 01-.556 2.283z" fill="#CD6799"/></symbol></svg>