<?xml version="1.0" encoding="UTF-8"?><!DOCTYPE svg PUBLIC "-//W3C//DTD SVG 1.1//EN" "http://www.w3.org/Graphics/SVG/1.1/DTD/svg11.dtd"><svg xmlns="http://www.w3.org/2000/svg" xmlns:xlink="http://www.w3.org/1999/xlink"><defs><clipPath id="clip0"><path fill="#fff" d="M0 0h128v29H0z"/></clipPath><filter id="filter0_di" x="0" y="0" width="93" height="94" filterUnits="userSpaceOnUse" color-interpolation-filters="sRGB"><feFlood flood-opacity="0" result="BackgroundImageFix"/><feColorMatrix in="SourceAlpha" values="0 0 0 0 0 0 0 0 0 0 0 0 0 0 0 0 0 0 127 0"/><feMorphology radius="1" operator="dilate" in="SourceAlpha" result="effect1_dropShadow"/><feOffset dx="1" dy="3"/><feColorMatrix values="0 0 0 0 0 0 0 0 0 0 0 0 0 0 0 0 0 0 1 0"/><feBlend in2="BackgroundImageFix" result="effect1_dropShadow"/><feBlend in="SourceGraphic" in2="effect1_dropShadow" result="shape"/><feColorMatrix in="SourceAlpha" values="0 0 0 0 0 0 0 0 0 0 0 0 0 0 0 0 0 0 127 0" result="hardAlpha"/><feMorphology radius="10" in="SourceAlpha" result="effect2_innerShadow"/><feOffset dx="13" dy="22"/><feGaussianBlur stdDeviation="2"/><feComposite in2="hardAlpha" operator="arithmetic" k2="-1" k3="1"/><feColorMatrix values="0 0 0 0 0.795833 0 0 0 0 0.722882 0 0 0 0 0.722882 0 0 0 1 0"/><feBlend in2="shape" result="effect2_innerShadow"/></filter></defs><symbol id="aslogo"><path d="M22.342 50.203H10.059L7.3 60.775H3.313L14.51 20.268h3.383l11.215 40.507h-3.966l-2.8-10.572zm-11.115-4.396h9.967L16.2 26.862l-4.973 18.945zm30.465-3.087c-3.315-1.317-5.732-2.931-7.249-4.841-1.503-1.93-2.255-4.303-2.255-7.122 0-3.19.92-5.824 2.759-7.902 1.852-2.095 4.255-3.143 7.209-3.143 2.013 0 3.805.538 5.376 1.613 1.584 1.076 2.806 2.56 3.665 4.452.872 1.892 1.308 3.96 1.308 6.204H48.62c0-2.449-.564-4.368-1.691-5.76-1.128-1.409-2.719-2.113-4.772-2.113-1.907 0-3.397.584-4.47 1.752-1.061 1.15-1.591 2.754-1.591 4.813 0 1.65.503 3.051 1.51 4.201 1.02 1.131 2.745 2.17 5.175 3.116 2.443.946 4.35 1.994 5.718 3.144 1.383 1.131 2.403 2.457 3.061 3.978.671 1.52 1.007 3.31 1.007 5.37 0 3.282-.926 5.916-2.779 7.9-1.852 1.966-4.33 2.95-7.43 2.95-2.014 0-3.893-.53-5.638-1.586-1.745-1.076-3.095-2.541-4.048-4.396-.94-1.855-1.41-3.96-1.41-6.315h3.887c0 2.448.651 4.386 1.953 5.814 1.316 1.41 3.068 2.115 5.256 2.115 2.04 0 3.604-.575 4.692-1.725 1.087-1.15 1.63-2.717 1.63-4.702 0-1.984-.503-3.515-1.51-4.59-1.006-1.095-2.832-2.17-5.477-3.228zm23.298-.78l-3.584 5.147v13.688h-3.867V20.268h3.867V40.3l13.028-20.03h4.671L67.567 38.156l12.444 22.618H75.38L64.99 41.94zm40.312-.11c0 3.968-.483 7.437-1.45 10.404-.966 2.949-2.335 5.203-4.107 6.76-1.772 1.558-3.84 2.337-6.202 2.337-2.31 0-4.356-.779-6.142-2.337-1.785-1.576-3.174-3.811-4.168-6.704-.98-2.912-1.483-6.279-1.51-10.1v-2.92c0-3.895.49-7.336 1.47-10.322.98-2.986 2.362-5.267 4.148-6.844 1.799-1.595 3.853-2.392 6.162-2.392 2.349 0 4.416.788 6.201 2.365 1.799 1.557 3.182 3.83 4.148 6.816.967 2.967 1.45 6.426 1.45 10.377v2.56zm-3.846-2.616c0-4.804-.698-8.485-2.094-11.045-1.396-2.578-3.35-3.867-5.86-3.867-2.443 0-4.369 1.29-5.779 3.867-1.396 2.56-2.114 6.12-2.154 10.683v2.977c0 4.655.705 8.319 2.114 10.99 1.423 2.651 3.376 3.978 5.86 3.978 2.497 0 4.43-1.252 5.799-3.756 1.369-2.522 2.074-6.13 2.114-10.822v-3.005zm14.639-18.946l9.585 33.051 9.585-33.05h5.014v40.506h-3.867V45.001l.363-17.026-9.625 32.8h-2.96l-9.605-32.717.383 16.943v15.774h-3.867V20.268h4.994zm47.562 29.935h-12.283l-2.759 10.572h-3.987l11.196-40.507h3.382l11.216 40.507h-3.967l-2.798-10.572zm-11.116-4.396h9.968l-4.994-18.945-4.974 18.945zm32.581-1.418h-6.887v16.386h-3.886V20.268h9.705c3.303 0 5.84 1.039 7.612 3.116 1.785 2.077 2.678 5.1 2.678 9.07 0 2.522-.497 4.72-1.49 6.593-.98 1.873-2.349 3.274-4.108 4.201l6.887 17.193v.334h-4.148l-6.363-16.386zm-6.887-4.368h5.94c1.92 0 3.443-.686 4.571-2.059 1.141-1.372 1.712-3.209 1.712-5.508 0-2.504-.544-4.424-1.631-5.76-1.074-1.335-2.631-2.012-4.672-2.03h-5.92V40.02zm44.098 1.809c0 3.968-.483 7.437-1.45 10.404-.966 2.949-2.336 5.203-4.108 6.76-1.771 1.558-3.839 2.337-6.201 2.337-2.309 0-4.357-.779-6.142-2.337-1.785-1.576-3.175-3.811-4.168-6.704-.98-2.912-1.483-6.279-1.51-10.1v-2.92c0-3.895.49-7.336 1.47-10.322.98-2.986 2.362-5.267 4.148-6.844 1.798-1.595 3.852-2.392 6.161-2.392 2.35 0 4.417.788 6.202 2.365 1.799 1.557 3.182 3.83 4.148 6.816.967 2.967 1.45 6.426 1.45 10.377v2.56zm-3.846-2.616c0-4.804-.698-8.485-2.094-11.045-1.396-2.578-3.349-3.867-5.86-3.867-2.443 0-4.369 1.29-5.779 3.867-1.396 2.56-2.114 6.12-2.154 10.683v2.977c0 4.655.704 8.319 2.114 10.99 1.423 2.651 3.376 3.978 5.86 3.978 2.496 0 4.43-1.252 5.799-3.756 1.369-2.522 2.074-6.13 2.114-10.822v-3.005zm18.908 14.466l8.376-33.412H250l-10.873 40.507h-3.424L224.85 20.268h4.208l8.337 33.413z" fill="#000"/><path d="M92.872 57.773a5 5 0 00-4.14-2.196H43.186a5 5 0 00-4.153 2.215l-6.7 9.992A5 5 0 0128.182 70H9.99c-4.12 0-6.472-4.7-4.003-7.997l44.925-60A5 5 0 0154.916 0h21.886a5 5 0 013.995 1.993l45.174 60c2.481 3.295.13 8.007-3.994 8.007h-18.173a4.999 4.999 0 01-4.14-2.196l-6.792-10.03zM53.547 36.117c-2.22 3.322.162 7.777 4.158 7.777H74.14c4.007 0 6.386-4.478 4.144-7.798L70.02 23.86c-1.988-2.944-6.327-2.933-8.3.021l-8.174 12.235z" fill="#5A37A5" fill-opacity=".76"/><path d="M210.086 50c0-2.59-1.94-4.571-5.822-5.942-3.881-1.402-10.868-2.864-20.959-4.388-10.092-1.554-18.081-3.077-23.968-4.57-16.043-4.083-24.065-9.582-24.065-16.499 0-3.595 2.135-6.794 6.404-9.597 4.335-2.834 10.513-5.043 18.534-6.627C168.296.792 177.353 0 187.38 0c10.092 0 19.084.868 26.976 2.605 7.892 1.706 14.005 4.129 18.34 7.267 2.547 1.817 4.357 3.778 5.429 5.882 1.254 2.46-1.07 4.812-3.831 4.812h-19.111c-2.761 0-4.961-2.52-6.915-4.471-1.004-1.004-2.403-1.875-4.198-2.613-4.075-1.706-9.8-2.559-17.175-2.559-7.116 0-12.647.716-16.593 2.148-3.946 1.402-5.919 3.26-5.919 5.576 0 2.163 2.296 3.976 6.889 5.439 4.658 1.462 11.483 2.833 20.475 4.113 16.56 2.346 28.625 5.256 36.194 8.73 7.569 3.472 11.353 7.8 11.353 12.979 0 5.758-4.625 10.283-13.876 13.574-9.251 3.26-21.704 6.48-37.359 6.48-10.868 0-25.856.428-35.008-1.59-6.89-1.52-9.549-2.923-14.271-6.184-2.585-1.809-4.726-5.11-6.12-8.426-1.382-3.286 1.87-5.731 5.163-4.364l7.79 3.235a6.63 6.63 0 011.036.56c6.735 4.332 23.235 4.347 41.41 4.347 6.922 0 12.324-.655 16.205-1.965 3.882-1.34 5.822-3.2 5.822-5.576z" fill="#365092"/></symbol><symbol id="aslogobalck"><path d="M19.333 31.158H7.383l-2.684 7.73H.82l10.893-29.62h3.29L25.915 38.89h-3.859l-2.723-7.731zM8.52 27.943h9.697l-4.858-13.855L8.52 27.943zm29.64-2.258c-3.227-.963-5.577-2.143-7.053-3.54-1.463-1.41-2.194-3.147-2.194-5.208 0-2.333.894-4.26 2.684-5.778 1.802-1.533 4.14-2.3 7.013-2.3 1.959 0 3.702.394 5.23 1.18 1.542.787 2.73 1.872 3.566 3.256a8.512 8.512 0 011.273 4.537H44.9c0-1.79-.55-3.194-1.646-4.212-1.097-1.03-2.645-1.546-4.643-1.546-1.855 0-3.304.427-4.35 1.282-1.03.84-1.547 2.014-1.547 3.52 0 1.207.49 2.23 1.47 3.072.992.827 2.67 1.587 5.034 2.278 2.377.692 4.232 1.458 5.564 2.3 1.345.827 2.338 1.796 2.977 2.909.653 1.112.98 2.42.98 3.926 0 2.4-.901 4.327-2.703 5.778-1.803 1.438-4.212 2.157-7.23 2.157-1.958 0-3.787-.387-5.484-1.16-1.698-.787-3.01-1.858-3.938-3.214-.914-1.357-1.371-2.896-1.371-4.619h3.78c0 1.79.634 3.208 1.9 4.252 1.28 1.031 2.985 1.547 5.114 1.547 1.985 0 3.506-.42 4.564-1.262 1.058-.84 1.587-1.987 1.587-3.438s-.49-2.57-1.47-3.357c-.979-.8-2.755-1.587-5.328-2.36zm22.665-.57l-3.487 3.764v10.01h-3.761V9.266h3.761v14.649L70.013 9.267h4.545L63.333 22.348l12.106 16.54h-4.505L60.825 25.116zm39.22-.081c0 2.902-.47 5.439-1.41 7.609-.941 2.157-2.273 3.804-3.997 4.944-1.724 1.14-3.735 1.709-6.034 1.709-2.246 0-4.238-.57-5.975-1.71-1.737-1.152-3.089-2.786-4.055-4.902-.953-2.13-1.443-4.591-1.47-7.386v-2.136c0-2.848.477-5.364 1.43-7.548.954-2.184 2.3-3.852 4.036-5.005 1.75-1.166 3.749-1.75 5.995-1.75 2.285 0 4.297.577 6.034 1.73 1.75 1.14 3.095 2.8 4.035 4.984.94 2.17 1.411 4.7 1.411 7.59v1.87zm-3.742-1.912c0-3.513-.679-6.206-2.037-8.078-1.359-1.885-3.259-2.828-5.701-2.828-2.377 0-4.251.943-5.622 2.829-1.359 1.871-2.057 4.475-2.097 7.812v2.177c0 3.404.686 6.083 2.057 8.036 1.385 1.94 3.285 2.91 5.701 2.91 2.43 0 4.31-.916 5.642-2.747 1.332-1.845 2.018-4.483 2.057-7.914v-2.197zm14.242-13.855l9.325 24.17 9.325-24.17h4.878v29.622h-3.761V27.353l.352-12.45-9.364 23.986h-2.879l-9.345-23.926.372 12.39V38.89h-3.761V9.266h4.858zm46.272 21.891h-11.95l-2.684 7.73h-3.878l10.892-29.621h3.291L163.4 38.889h-3.86l-2.723-7.731zm-10.813-3.215h9.697l-4.859-13.855-4.838 13.855zm31.697-1.037h-6.7v11.983h-3.781V9.266h9.442c3.213 0 5.681.76 7.405 2.28 1.737 1.518 2.606 3.73 2.606 6.632 0 1.844-.483 3.451-1.45 4.821-.953 1.37-2.285 2.394-3.996 3.073l6.7 12.573v.244h-4.036l-6.19-11.983zm-6.7-3.194h5.779c1.867 0 3.35-.502 4.447-1.506 1.11-1.004 1.665-2.346 1.665-4.028 0-1.831-.529-3.235-1.587-4.212-1.045-.976-2.56-1.471-4.545-1.485h-5.759v11.23zm42.902 1.322c0 2.902-.47 5.439-1.41 7.609-.94 2.157-2.273 3.804-3.997 4.944-1.724 1.14-3.735 1.709-6.033 1.709-2.247 0-4.238-.57-5.975-1.71-1.737-1.152-3.089-2.786-4.056-4.902-.953-2.13-1.443-4.591-1.469-7.386v-2.136c0-2.848.477-5.364 1.43-7.548.954-2.184 2.299-3.852 4.036-5.005 1.75-1.166 3.748-1.75 5.994-1.75 2.286 0 4.297.577 6.034 1.73 1.75 1.14 3.096 2.8 4.036 4.984.94 2.17 1.41 4.7 1.41 7.59v1.87zm-3.741-1.912c0-3.513-.68-6.206-2.038-8.078-1.358-1.885-3.258-2.828-5.701-2.828-2.376 0-4.251.943-5.622 2.829-1.358 1.871-2.057 4.475-2.096 7.812v2.177c0 3.404.686 6.083 2.057 8.036 1.384 1.94 3.285 2.91 5.701 2.91 2.429 0 4.309-.916 5.642-2.747 1.332-1.845 2.017-4.483 2.057-7.914v-2.197zM228.557 33.7l8.149-24.434h4.114L230.242 38.89h-3.331L216.352 9.266h4.094l8.111 24.435z" fill="#000"/><path d="M87.93 40.762a3.284 3.284 0 00-2.41-1.064H38.645c-.915 0-1.79.389-2.42 1.077l-7.479 8.148A3.285 3.285 0 0126.325 50H6.038c-3.029 0-4.496-3.849-2.289-6.003L47.876.942A3.277 3.277 0 0150.166 0h23.64c.847 0 1.663.334 2.282.935l44.371 43.056c2.217 2.15.751 6.009-2.282 6.009H97.914a3.284 3.284 0 01-2.408-1.064l-7.577-8.174zM50.23 25.49c-2.022 2.212-.513 5.863 2.425 5.863H71.44c2.946 0 4.452-3.67 2.412-5.877l-9.444-10.215a3.258 3.258 0 00-4.836.013l-9.34 10.216z" fill="#000" fill-opacity=".76"/><path d="M209.036 36.564c0-1.894-1.888-3.342-5.664-4.345-3.776-1.025-10.573-2.094-20.392-3.208-9.818-1.137-17.59-2.25-23.318-3.343-15.608-2.985-23.412-7.007-23.412-12.065 0-2.63 2.077-4.969 6.231-7.019 4.216-2.072 10.227-3.687 18.031-4.846C168.379.579 177.19 0 186.945 0c9.819 0 18.567.635 26.245 1.905 7.678 1.248 13.626 3.02 17.843 5.314 2.612 1.401 4.427 2.918 5.445 4.551 1.003 1.61-.523 3.27-2.369 3.27h-21.635c-1.846 0-3.422-1.745-4.839-2.974-.992-.86-2.475-1.596-4.452-2.206-3.965-1.248-9.535-1.872-16.71-1.872-6.923 0-12.304.524-16.143 1.57-3.839 1.026-5.759 2.385-5.759 4.078 0 1.582 2.235 2.908 6.703 3.978 4.532 1.07 11.171 2.072 19.92 3.008 16.111 1.715 27.849 3.843 35.213 6.383 7.363 2.54 11.045 5.704 11.045 9.492 0 4.212-4.5 7.52-13.5 9.927-9 2.384-21.115 3.576-36.346 3.576-10.573 0-20.202-.68-28.888-2.039-8.685-1.381-15.325-3.264-19.919-5.648-2.874-1.512-4.836-3.176-5.888-4.993-.951-1.644.588-3.296 2.434-3.296h21.729c1.847 0 3.335 1.736 4.62 3.112 3.077 3.295 11.714 4.943 25.912 4.943 6.735 0 11.99-.48 15.766-1.437 3.776-.98 5.664-2.34 5.664-4.078z" fill="#000"/></symbol><symbol id="basket-ball-img"><path d="M14.387 3.612a7.748 7.748 0 01-2 10.775 7.749 7.749 0 01-10.774-2 7.75 7.75 0 0112.775-8.775" fill="#DB7C27"/><path d="M11.331 14.996s-3.7-8.245.242-13.875l.33.183s-4.13 5.656.212 13.269l-.784.422m-9.72-2.608S5.258 6.972 4.252 1.216l-.448.308S5.773 3.131 1.33 11.979M8.64.285s-4.509 5.647-3.583 14.9c0 0 .67.199.886.276.216.076-1.438-8.383 3.377-15.098L8.64.285" fill="#404041"/><path d="M.42 6.744s5.86 4.227 15.059 2.85c0 0 .165-.68.23-.9.067-.219-8.301 1.848-15.245-2.633l-.045.683" fill="#404041"/></symbol><symbol id="gihub-eye"><path d="M1.344 0S1 .604 1 1.625c0 .678.155 1.035.266 1.219C.485 3.656 0 4.758 0 6.172 0 9.793 2.295 11 6.5 11S13 9.793 13 6.172c0-1.463-.457-2.562-1.203-3.36A3.916 3.916 0 0011.672 0c-1.551 0-2.844 1.192-2.891 1.234A10.725 10.725 0 006.5 1a9.66 9.66 0 00-2.328.282C3.133.25 1.879 0 1.344 0zm7.5 5.219c.421-.004.813.031 1.156.14.916.292 1.5 1.133 1.5 2.079 0 2.617-1.405 3.062-5 3.062-2.672 0-4.844-.47-4.844-2.969 0-.953.518-1.492.891-1.828.82-.738 2.115-.375 3.953-.375.836 0 1.639-.102 2.344-.11v.001zM3.75 6.5c-.414 0-.75.447-.75 1 0 .553.336 1 .75 1s.75-.447.75-1c0-.553-.336-1-.75-1zm5.5 0c-.414 0-.75.447-.75 1 0 .553.336 1 .75 1s.75-.447.75-1c0-.553-.336-1-.75-1zm-5.578.422c.117 0 .203.1.203.219s-.086.218-.203.218a.222.222 0 01-.219-.218c0-.12.102-.219.219-.219zm5.5 0c.117 0 .203.1.203.219s-.086.218-.203.218a.222.222 0 01-.219-.218c0-.12.102-.219.219-.219z" fill="#000"/></symbol><symbol id="github-logo"><path d="M12 .297c-6.63 0-12 5.373-12 12 0 5.303 3.438 9.8 8.205 11.385.6.113.82-.258.82-.577 0-.285-.01-1.04-.015-2.04-3.338.724-4.042-1.61-4.042-1.61C4.422 18.07 3.633 17.7 3.633 17.7c-1.087-.744.084-.729.084-.729 1.205.084 1.838 1.236 1.838 1.236 1.07 1.835 2.809 1.305 3.495.998.108-.776.417-1.305.76-1.605-2.665-.3-5.466-1.332-5.466-5.93 0-1.31.465-2.38 1.235-3.22-.135-.303-.54-1.523.105-3.176 0 0 1.005-.322 3.3 1.23.96-.267 1.98-.399 3-.405 1.02.006 2.04.138 3 .405 2.28-1.552 3.285-1.23 3.285-1.23.645 1.653.24 2.873.12 3.176.765.84 1.23 1.91 1.23 3.22 0 4.61-2.805 5.625-5.475 5.92.42.36.81 1.096.81 2.22 0 1.606-.015 2.896-.015 3.286 0 .315.21.69.825.57C20.565 22.092 24 17.592 24 12.297c0-6.627-5.373-12-12-12" fill="#000"/></symbol><symbol id="GreatOne"><path d="M11.443 11.418c-.474.527-1.169.952-2.083 1.274-.914.323-1.916.484-3.006.484-1.675 0-3.014-.513-4.016-1.538C1.336 10.612.8 9.186.729 7.358L.721 6.25c0-1.26.222-2.358.668-3.296.445-.943 1.08-1.667 1.907-2.17.832-.51 1.793-.765 2.883-.765 1.593 0 2.83.366 3.709 1.098.885.727 1.4 1.814 1.547 3.26H8.464c-.106-.714-.334-1.224-.686-1.528-.351-.305-.85-.457-1.494-.457-.773 0-1.37.328-1.793.984-.422.656-.636 1.594-.641 2.812v.774c0 1.277.216 2.238.65 2.883.44.638 1.128.958 2.065.958.803 0 1.4-.179 1.793-.536V8.28H6.214V6.162h5.23v5.256zm7.949-5.248l-.975-.07c-.932 0-1.53.294-1.793.88V13h-2.962V3.49h2.777l.097 1.222c.498-.932 1.192-1.398 2.083-1.398.317 0 .592.036.826.106l-.053 2.75zm6.034 7.006c-1.46 0-2.64-.434-3.542-1.301-.903-.873-1.354-2.007-1.354-3.401v-.246c0-.973.179-1.832.536-2.576a3.955 3.955 0 011.582-1.722c.692-.41 1.512-.616 2.461-.616 1.336 0 2.39.416 3.164 1.248.774.827 1.16 1.981 1.16 3.463v1.152h-5.888c.105.533.337.952.694 1.257.358.304.82.457 1.389.457.937 0 1.67-.329 2.197-.985l1.354 1.6c-.37.51-.894.917-1.574 1.221-.673.3-1.4.449-2.18.449zM25.092 5.6c-.867 0-1.383.574-1.547 1.722h2.988v-.228c.012-.475-.108-.841-.36-1.099-.252-.264-.612-.395-1.081-.395zM36.53 13c-.105-.193-.2-.477-.281-.852-.545.685-1.307 1.028-2.285 1.028-.897 0-1.658-.27-2.285-.809-.627-.545-.94-1.227-.94-2.048 0-1.03.38-1.81 1.142-2.338.761-.527 1.869-.79 3.322-.79h.914v-.502c0-.873-.378-1.31-1.134-1.31-.703 0-1.054.347-1.054 1.038h-2.962c0-.92.39-1.667 1.169-2.241.785-.574 1.784-.862 2.997-.862 1.213 0 2.17.296 2.874.888.703.592 1.063 1.403 1.08 2.435v4.21c.012.873.147 1.54.405 2.004V13H36.53zm-1.854-1.934c.369 0 .673-.079.914-.237.246-.158.422-.337.527-.536v-1.52h-.861c-1.032 0-1.547.462-1.547 1.388 0 .27.09.49.272.66.182.163.413.245.695.245zm10.049-9.94V3.49h1.565v2.057h-1.565v4.35c0 .358.065.607.194.748.129.14.384.21.764.21.293 0 .54-.017.739-.052v2.118c-.533.17-1.09.255-1.67.255-1.02 0-1.773-.24-2.259-.72-.486-.481-.73-1.21-.73-2.19v-4.72h-1.212V3.49h1.212V1.126h2.962zm14.251 5.739c0 1.248-.231 2.353-.694 3.314-.463.96-1.122 1.702-1.977 2.223-.85.516-1.82.774-2.91.774s-2.056-.25-2.9-.747c-.844-.504-1.503-1.222-1.978-2.154-.468-.931-.715-2-.738-3.208v-.72c0-1.254.229-2.359.686-3.314.462-.96 1.122-1.702 1.977-2.223.861-.522 1.84-.783 2.936-.783 1.084 0 2.05.258 2.9.774.85.515 1.509 1.25 1.978 2.206.474.949.715 2.039.72 3.27v.588zM55.84 6.33c0-1.271-.214-2.235-.642-2.891-.422-.663-1.028-.994-1.82-.994-1.546 0-2.364 1.16-2.451 3.48l-.01.941c0 1.254.209 2.218.625 2.892.416.674 1.034 1.01 1.854 1.01.78 0 1.38-.33 1.802-.993.422-.662.636-1.614.642-2.856V6.33zm7.851-2.84l.097 1.116c.656-.86 1.561-1.292 2.716-1.292.99 0 1.728.296 2.215.888.492.592.747 1.483.764 2.672V13h-2.97V6.997c0-.48-.097-.832-.29-1.055-.194-.228-.546-.342-1.055-.342-.58 0-1.011.228-1.292.685V13h-2.962V3.49h2.777zm12.581 9.686c-1.459 0-2.64-.434-3.542-1.301-.902-.873-1.353-2.007-1.353-3.401v-.246c0-.973.178-1.832.536-2.576a3.955 3.955 0 011.582-1.722c.691-.41 1.512-.616 2.46-.616 1.337 0 2.391.416 3.165 1.248.773.827 1.16 1.981 1.16 3.463v1.152h-5.889c.106.533.337.952.695 1.257.357.304.82.457 1.388.457.938 0 1.67-.329 2.198-.985l1.353 1.6c-.369.51-.893.917-1.573 1.221-.674.3-1.4.449-2.18.449zM75.938 5.6c-.867 0-1.383.574-1.547 1.722h2.989v-.228c.011-.475-.109-.841-.36-1.099-.253-.264-.613-.395-1.082-.395z" fill="#62D0DF"/></symbol><symbol id="icon-telegam"><path d="M16 8A8 8 0 11-.001 8 8 8 0 0116 8zM8.287 5.906c-.778.324-2.334.994-4.666 2.01-.378.15-.577.298-.595.442-.03.243.275.339.69.47l.175.055c.408.133.958.288 1.243.294.26.006.549-.1.868-.32 2.179-1.471 3.304-2.214 3.374-2.23.05-.012.12-.026.166.016.047.041.042.12.037.141-.03.129-1.227 1.241-1.846 1.817-.193.18-.33.307-.358.336a8.161 8.161 0 01-.188.186c-.38.366-.664.64.015 1.088.327.216.589.393.85.571.284.194.568.387.936.629.093.06.183.125.27.187.331.236.63.448.997.414.214-.02.435-.22.547-.82.265-1.417.786-4.486.906-5.751.007-.105.003-.21-.013-.315a.337.337 0 00-.114-.217.526.526 0 00-.31-.093c-.3.005-.763.166-2.984 1.09z" fill="#000"/></symbol><symbol id="icon-npm"><path fill-rule="evenodd" clip-rule="evenodd" d="M0 0h24v24H0V0z" fill="#D40001"/><path fill-rule="evenodd" clip-rule="evenodd" d="M16.718 7.928h-4.513V20.25H4V3h16v17.249h-3.282V7.928z" fill="#fff"/></symbol><symbol id="logos_figma"><path d="M4 24c2.208 0 4-1.792 4-4v-4H4c-2.208 0-4 1.792-4 4s1.792 4 4 4z" fill="#0ACF83"/><path d="M0 12c0-2.208 1.792-4 4-4h4v8H4c-2.208 0-4-1.792-4-4z" fill="#A259FF"/><path d="M0 4c0-2.208 1.792-4 4-4h4v8H4C1.792 8 0 6.208 0 4z" fill="#F24E1E"/><path d="M8 0h4c2.208 0 4 1.792 4 4s-1.792 4-4 4H8V0z" fill="#FF7262"/><path d="M16 12c0 2.208-1.792 4-4 4s-4-1.792-4-4 1.792-4 4-4 4 1.792 4 4z" fill="#1ABCFE"/></symbol><symbol id="logos_gulp"><path d="M35.449 104.708l.975-17.255 2.693-4.88s-6.129 2.661-16.389 2.661-16.296-2.613-16.296-2.613l3.018 5.325 1.068 16.762c0 1.797 5.58 3.254 12.465 3.254s12.466-1.457 12.466-3.254M32.373 24.13l2.047-8.592L45.754 2.872 42.767.17l-12 13.492-2.377 10.264a150.114 150.114 0 00-5.368-.094c-12.638 0-22.884 1.53-22.884 3.415 0 1.887 10.246 3.416 22.884 3.416 12.639 0 22.884-1.529 22.884-3.416 0-1.389-5.557-2.584-13.533-3.118" fill="#D34A47"/><path d="M31.182 28.94s-.443.106-1.747.112c-1.304.006-2.23-.01-2.6-.366-.099-.096-.153-.286-.152-.415 0-.245.165-.39.373-.48l.198.33c-.086.03-.135.068-.135.107-.001.187 1.333.314 2.354.3 1.02-.013 2.254-.102 2.255-.286 0-.055-.093-.108-.255-.149l.196-.326c.265.087.496.255.495.547-.002.495-.597.57-.982.626" fill="#fff"/><path d="M45.732 2.898c.285-.35-.147-1.244-.966-1.997-.819-.752-1.714-1.08-2-.73-.284.35.148 1.244.967 1.997.819.753 1.714 1.08 2 .73zM34.904 62.56c-.27-2.744 5.653-6.719 4.133-6.846-3.272.199-4.9 4.071-6.546 8.128-.603 1.486-2.667 7.826-4.021 7.045-1.354-.78 1.755-5.993 2.626-9.089-1.006.783-4.692 3.825-5.642.976-1.527 1.378-4.79 2.124-4.423-1.494-.812 1.528-2.636 3.662-4.825 2.775-2.874-1.164 1.666-10.888 2.795-10.397 1.129.49-.228 2.705-.583 3.565-.782 1.893-1.685 4.273-1.082 4.76 1.034.835 3.846-3.157 3.908-3.245.526-.738 2.025-5.565 3.232-5.01 1.208.554-3.012 6.927-1.434 8.192.318.255 1.62-.157 2.412-1.067.513-.589.336-1.893 2.045-6.219 1.708-4.326 3.23-9.713 4.402-9.303 1.172.41.206 3.176-.214 4.206-1.973 4.838-5.383 12.83-3.775 12.226 1.609-.605 2.446-.64 4.021-2.598 1.575-1.957 1.502-5.18 2.552-5.112 1.05.069.874 1.102.62 1.89 1.033-1.256 4.897-3.9 5.83-1.282 1.105 3.1-5.529 7.58-3.875 7.351 1.613-.223 4.225-1.98 5.341-3.578l3.07-29.313s-3.09 2.715-22.746 2.715C3.068 31.836.298 29.177.298 29.177l2.614 26.757C4.3 51.746 7.595 43.275 12.788 43.56c2.363.129 5.517 4.96 2.815 5.123-1.143.07-1.26-2.41-2.614-2.775-.977-.263-2.337.58-3.216 1.495-1.754 1.822-5.525 9.011-5.027 12.596.635 4.57 5.939-1.588 6.836-3.416.632-1.288 1.059-5.103 2.441-4.703 1.383.4-.12 4.338-1.122 7.82-1.126 3.908-1.718 8.032-3.128 7.558-1.411-.474.887-5.521.804-6.405-1.326 1.3-3.77 4.588-6.895 2.96L5.306 80.43s4.314 3.62 17.313 3.62c12.998 0 17.472-3.564 17.472-3.564l2.016-19.244c-1.65 1.705-6.87 4.734-7.203 1.32" fill="#D34A47"/></symbol><symbol id="logos_javascript"><path d="M0 0h16v16H0V0z" fill="#F7DF1E"/><path d="M4.207 13.37l1.224-.74c.237.419.452.773.967.773.494 0 .806-.193.806-.945V7.346h1.503v5.133c0 1.558-.913 2.266-2.245 2.266-1.202 0-1.9-.622-2.255-1.374m5.317-.161l1.224-.71c.322.527.741.914 1.482.914.623 0 1.02-.312 1.02-.741 0-.516-.408-.698-1.095-1l-.376-.16c-1.085-.462-1.804-1.042-1.804-2.266 0-1.128.86-1.987 2.202-1.987.956 0 1.643.333 2.137 1.203l-1.17.751c-.259-.461-.538-.644-.967-.644-.44 0-.72.28-.72.644 0 .451.28.634.924.913l.375.162c1.279.547 1.998 1.106 1.998 2.362 0 1.354-1.063 2.095-2.492 2.095-1.396 0-2.298-.666-2.738-1.536" fill="#000"/></symbol><symbol id="logos_jquery"><g clip-path="url(#clip0)" fill-rule="evenodd" clip-rule="evenodd"><path d="M122.429 2.162l5.355.029s-9.956 13.491-10.769 14.59c-.264.357-.665.74-.868 1.216-.514 1.197-1.042 3.822-1.042 3.822l-4.9.024s.762-2.736.731-4.193c-.028-1.273-.678-2.544-1.042-3.821-.369-1.293-.869-3.822-.869-3.822h5.038l.694 2.78 7.672-10.626" fill="#1A1918"/><path d="M112.289 5.007c.988.595 1.595 3.882 1.595 3.882s-5.171.076-7.985.076h-2.432l-2.953 12.854h-4.516s2.81-13.969 3.474-16.501c.215-.82 1.473-.68 3.597-.68h3.393c2.19 0 4.75-.28 5.827.369m-21.024 6.26s.14-.825-.478-1.78c-.528-.815-1.016-1.005-2.405-1.048-3.924-.123-3.848 2.784-3.848 2.784l6.731.044zm4.255-3.33c.576 2.074-.52 6.948-.52 6.948s-5.724-.096-8.859 0c-.975.03-2.142-.106-2.432.347-.408.636.15 1.614.622 2.027.544.476 1.603.53 1.984.578 2.544.324 7.87.084 7.87.084l-.923 4.085s-7.525.378-11.29-.521c-.743-.177-1.44-.535-1.91-1.042-.129-.139-.24-.328-.362-.492-.097-.13-.38-.559-.507-.898-.86-2.29.1-6.68 1.042-9.032.11-.272.247-.618.391-.912.18-.366.334-.78.478-.998.097-.151.217-.249.318-.391.116-.169.251-.332.377-.478.347-.403.741-.688 1.215-1.042 1.569-1.174 4.407-2.086 7.817-1.737 1.284.132 3.222.59 4.168 1.91.254.353.38 1.053.522 1.564zM74.807 4.622l4.38-.025s-2.441 11.576-3.685 17.222h-5.037c-3.521 0-6.656.436-7.99-2.085-1.294-2.447-.06-6.472.52-9.206.41-1.935 1.274-5.89 1.274-5.89l4.537-.041s-1.282 6.157-1.815 9.232c-.191 1.101-.585 2.138-.174 2.952.391.775.938.83 2.606.869.528.013 2.258 0 2.258 0l3.126-13.028M54.311 12.96c.459-1.629 1.127-3.395 1.042-4.863-.092-1.57-1.408-3-2.258-3.3-2.558-.904-4.953.359-5.905 1.389-1.232 1.334-1.649 2.892-2.085 5.037-.324 1.593-.59 3.274 0 4.516 1.046 2.196 4.306 1.716 7.817 1.738.52-1.397.951-2.966 1.389-4.517zm6.08-6.426c.5 3.637-1.42 7.651-2.741 11.142 1.348.122 2.529-.019 2.614.082.088.13-.904 4.167-1.25 4.177-1.07.028-4.614.058-6.093.058-4.823 0-9.336.314-11.637-2.085-.934-.974-1.58-2.646-1.737-3.821-.26-1.963.066-4.124.521-5.906.412-1.608.94-3.126 1.737-4.516C43.832 2.127 47.358-.5 53.269.107c1.146.118 2.793.62 3.821 1.216.071.041.32.24.377.274 1.39.884 2.656 2.995 2.924 4.937zM39.048 4.643c-.291 1.33-.583 2.835-.89 4.148h-4.864c.377-1.455.665-2.902 1.042-4.168 1.556 0 3.003.02 4.712.02m-5.928 5.365h4.69c-.613 3.394-1.828 8.868-2.78 12.68-.595 2.384-.993 4.125-2.605 5.384-.144.113-.227.059-.347.174-.297.283-1.671.611-2.432.694-1.236.134-2.635.018-4.155-.014.398-1.453.848-3.199 1.203-4.502 3.704.448 3.798-3.053 4.515-6.427.416-1.948 1.673-7.208 1.911-7.99" fill="#1A1918"/><path d="M22.177 18.866l-.1.26c-1.713 3.335-4.748 5.381-9.076 5.472-2.024.042-3.952-.478-5.211-1.042-2.718-1.222-5.005-3.486-6.253-5.906-1.791-3.469-2.114-8.294 1.61-11.898.057 0-.452.782-.394.782l-.103.333c-2.683 8.401 5.584 15.601 13.621 14.778 1.932-.198 4.395-1.256 5.906-2.779z" fill="#21609B"/><path d="M17.314 15.392c2.021.014 4.134-.931 5.384-2.258-1.094 2.777-4.262 4.563-8.51 3.995-3.558-.476-6.947-4.056-7.296-7.643-.255-2.61.655-4.168 2.154-6.058-.521.988-.716 1.75-.764 2.237-.57 5.647 4.51 9.697 9.032 9.727" fill="#21609B"/><path d="M22.495 8.378c-.314.721-2.124 2.082-2.923 2.253-3.165.674-5.192-.827-6.253-2.534-.158-.255-.45-.952-.502-1.13-.412-1.4-.223-3.517 1.005-4.613-.37 1.042-.423 2.253-.229 3.04.118.476.478 1.306.838 1.829.654.952 1.07 1.183 1.91 1.689.379.227.785.41.96.46.798.234 2.481.853 5.194-.994" fill="#21609B"/></g></symbol><symbol id="radio-empty"><g filter="url(#filter0_di)"><circle cx="40" cy="40" r="39" stroke="#000" stroke-width="2"/></g></symbol><symbol id="vscode-icons_file-type-css"><path d="M2.951 13.6L1.828 1h12.344l-1.125 12.598L7.992 15l-5.041-1.4z" fill="#1572B6"/><path d="M8 13.929l4.085-1.133.961-10.765H8v11.898z" fill="#33A9DC"/><path d="M8 6.596h2.045l.141-1.583H8V3.468h3.875l-.037.414-.38 4.259H8V6.596z" fill="#fff"/><path d="M8.01 10.609l-.008.002-1.72-.465-.11-1.232H4.62l.216 2.426 3.166.879.007-.002v-1.608z" fill="#EBEBEB"/><path d="M9.914 8.075l-.187 2.07-1.723.465v1.608l3.168-.878.023-.261.269-3.004h-1.55z" fill="#fff"/><path d="M8.005 3.468v1.545H4.272l-.03-.347-.071-.784-.037-.414h3.871zM8 6.596V8.14H6.3l-.03-.347-.07-.784-.037-.414H8z" fill="#EBEBEB"/></symbol><symbol id="vscode-icons_file-type-html"><path d="M2.951 13.6L1.827 1h12.345l-1.125 12.598L7.992 15l-5.041-1.4z" fill="#E44F26"/><path d="M8 13.929l4.085-1.133.961-10.765H8v11.898z" fill="#F1662A"/><path d="M8 6.704H5.955L5.814 5.12H8V3.575H4.125l.037.415.38 4.259H8V6.703zm0 4.013l-.007.002-1.721-.464-.11-1.233H4.611l.216 2.426 3.166.879.007-.002v-1.608z" fill="#EBEBEB"/><path d="M7.995 6.703V8.25h1.903l-.18 2.005-1.723.465v1.607l3.168-.878.023-.261.363-4.069.038-.415H7.995zm0-3.128v1.546h3.732l.031-.347.071-.784.037-.415H7.995z" fill="#fff"/></symbol><symbol id="vscode-icons_file-type-scss"><path d="M8.085 9.35c-.24.11-.504.255-1.031.544-.2.113-.409.225-.604.331l-.04-.044c-1.044-1.115-2.974-1.903-2.892-3.4.03-.546.218-1.978 3.707-3.717 2.87-1.415 5.155-1.023 5.55-.153.566 1.239-1.225 3.546-4.19 3.88a2.234 2.234 0 01-1.876-.474c-.156-.17-.18-.18-.238-.146-.096.05-.034.204 0 .293a1.75 1.75 0 001.07.842 5.7 5.7 0 003.479-.345c1.796-.695 3.2-2.629 2.789-4.25-.413-1.643-3.141-2.185-5.722-1.268a13 13 0 00-4.395 2.523c-1.422 1.33-1.647 2.486-1.555 2.97.331 1.719 2.7 2.837 3.65 3.665l-.13.072c-.473.236-2.28 1.18-2.731 2.179-.512 1.132.082 1.944.474 2.053a2.916 2.916 0 003.14-1.272 3.15 3.15 0 00.28-2.9c.112-.09.232-.17.358-.239.242-.143.473-.284.677-.393a5.238 5.238 0 012.237-.494c1.623.19 1.944 1.203 1.883 1.63a1.08 1.08 0 01-.515.729c-.113.072-.15.096-.14.147.013.075.067.071.163.058a1.267 1.267 0 00.883-1.129c.05-1-.903-2.097-2.591-2.087a3.877 3.877 0 00-1.692.394l.002.001zm-2.412 3.92c-.539.586-1.289.808-1.613.62-.35-.2-.211-1.068.45-1.688.392-.353.815-.67 1.265-.944.079-.05.194-.116.334-.2l.037-.021.083-.05a2.329 2.329 0 01-.556 2.283z" fill="#CD6799"/></symbol></svg>